<?xml version="1.0" encoding="utf-8"?>
<!-- Generator: Adobe Illustrator 27.8.0, SVG Export Plug-In . SVG Version: 6.00 Build 0)  -->
<svg version="1.1" id="Capa_1" xmlns="http://www.w3.org/2000/svg" xmlns:xlink="http://www.w3.org/1999/xlink" x="0px" y="0px"
	 viewBox="0 0 444.63 237.51" style="enable-background:new 0 0 444.63 237.51;" xml:space="preserve">
<style type="text/css">
	.st0{fill:#E20E18;}
	.st1{fill:#FFFFFF;}
	.st2{fill:#1E1E1C;}
	.st3{font-family:'Geograph-BoldItalic';}
	.st4{font-size:44.9117px;}
	.st5{letter-spacing:1;}
</style>
<g>
	<rect y="91.38" class="st0" width="424.61" height="106.8"/>
	<rect x="20.02" y="71.23" class="st1" width="424.61" height="106.8"/>
	<g>
		<path class="st1" d="M342.15,136.45c-3.45,1.58-6.59,1.55-7.89,0c-1.19-1.42-0.53-3.75-0.32-4.49c1.92-6.81,9.92-6.4,11.48-12.13
			c0.99-3.64-1.96-4.83-0.83-10.46c0.37-1.85,1.04-3.37,2.37-6.42c2.52-5.74,3.88-6.94,3.34-7.63c-1.09-1.38-8.21,1.09-12.83,6.29
			c-1.48,1.66-0.62,1.44-3.9,6.54c-1.88,2.92-2.88,4.16-5.72,8.53c-1.93,2.97-2.27,3.36-2.63,4.23c-0.45,1.07-1.38,3.32-1.19,6.15
			c0.21,3.12,1.58,3.83,1.13,6.11c-0.41,2.04-1.88,3.32-2.12,3.53c-2.35,2-4.66,0.77-10.84,1.41c-4.28,0.44-6.44,0.66-8.6,2.25
			c-2.95,2.17-3.26,4.95-5.13,5.04c-1.94,0.1-3.73-2.45-4.36-4.27c-0.13-0.36-0.81-2.32-0.17-4.46c0.4-1.33,1.01-1.73,0.94-2.86
			c-0.1-1.55-1.36-2.73-1.52-2.65c-0.1,0.05,0.3,0.64,0.19,1.56c-0.06,0.53-0.26,0.93-0.36,1.13c-0.22,0.44-0.41,0.52-0.89,1.13
			c-0.02,0.03-0.4,0.51-0.65,0.94c-0.17,0.28-0.73,1.22-0.72,2.38c0,0.87,0.32,1.51,0.7,2.26c0.66,1.32,1.11,1.36,1.15,2.07
			c0.02,0.42-0.12,0.7-1.03,2.21c-0.74,1.22-1.11,1.83-1.2,1.95c-1.53,2.01-4.9,0.64-7.28,1.9c-2.98,1.58-4.04,7.1-3.02,11.16
			c1.35,5.35,5.54,5.05,7.51,10.97c1.17,3.51-0.27,3.74,0.83,10.46c0.78,4.74,1.39,4.03,2.31,9.43c0.55,3.23,1.9,6.35,1.92,9.62
			c0,0.21,0,0.88,0.26,0.96c0.54,0.17,2.01-2.38,2.63-4.23c2.06-6.16-3.16-11.09-1.46-17.58c0.25-0.95,0.67-2.04,1.65-2.63
			c0.84-0.51,1.96-0.56,5,0.45c3.81,1.27,4.98,2.33,8.21,3.46c1.85,0.65,3.24,0.92,4.75,1.22c6.87,1.36,10.1,0.25,11.44,2.24
			c0.47,0.69,0.49,1.43,0.23,3.53c-0.76,6.27-2.06,8.57-2.63,12.19c-0.87,5.51,0.62,10.14,1.03,11.36c1.47,4.41,3.01,4.53,4.11,9.11
			c0.23,0.97,0.52,3.36,1.09,8.15c0.54,4.53,0.68,6.31,2.12,7.25c1.19,0.78,3.03,0.82,3.79,0c0.61-0.66,0.3-1.66,0.13-3.02
			c0,0-0.55-4.29,1.22-8.79c0.2-0.51,1.2-2.01,3.21-5c2.8-4.19,3.25-4.63,3.53-5.84c0.55-2.38-0.44-3.88-1.41-6.87
			c-1.77-5.46-0.2-5.81-1.6-12.51c-1.6-7.67-4.5-11.24-2.82-12.96c1.01-1.04,2.92-0.64,3.72-0.51c5.86,0.95,11.55-2.47,21.3-8.34
			c13.17-7.92,22.29-18.24,28.04-24.83c3.95-4.53,10.83-12.95,15.98-21.49c1.34-2.22,3.62-6.24,7.75-10.92
			c2.55-2.89,2.99-2.84,5.37-5.75c2.4-2.94,5.14-6.35,6.81-11.43c0.77-2.34,1.06-4.25,1.3-5.87c0.33-2.18,0.89-5.96,0.17-6.21
			c-0.69-0.24-1.6,3.68-4.79,7.67c-4.2,5.26-9.84,7.54-10.08,7.22c-0.14-0.19,1.52-1.24,3.13-3.85c0.84-1.36,1.27-2.5,1.55-3.24
			c2.44-6.55,3.66-9.82,4.36-12.51c1.68-6.46,3.35-12.89,2.89-20.02c-1.07-16.5-13.07-29.36-15.88-32.37
			c-4.26-4.56-6.96-6.01-9.7-11.29c-4.29-8.26-3.45-15.83-5.05-15.91c-1.52-0.07-3.18,6.64-3.85,11.29
			c-0.79,5.51-1.58,9.82,0.13,14.76c1.46,4.21,3.58,5.73,2.69,7.57c-1.06,2.19-5.22,2.4-8.73,2.57c-5.76,0.28-8.93-1.04-9.5,0
			c-0.68,1.26,1.91,4.92,5.52,6.54c5.65,2.53,12.81-0.38,13.73-0.77c3.07-1.29,4.77-2.87,6.91-2.11c0.68,0.24,1.01,0.58,3.23,3.27
			c4.08,4.96,4.54,5.78,4.23,6.42c-0.44,0.93-2.61-0.17-3.5,0.93c-0.78,0.96-0.03,2.78,0.84,4.84c1.67,3.96,2.73,3.91,3.18,6.16
			c0.65,3.25-0.96,6.29-1.15,6.64c-1.15,2.12-2.33,2.37-2.21,3.56c0.17,1.75,2.78,1.78,3.95,4.52c0.14,0.32,0.83,1.95,0.19,3.46
			c-0.49,1.17-1.5,1.63-2.21,2.12c-0.79,0.54-1.87,1.58-3.75,8.37c-1.91,6.88-1.12,7.01-2.5,9.43c-0.23,0.41-1.6,2.14-4.33,5.58
			c-2.37,3-3.57,4.5-3.75,4.72c-2.88,3.32-5.71,5.33-7.99,6.93c-1.53,1.07-5.17,3.51-12.22,6.54c-6.41,2.76-8.66,3-15.59,5.49
			C353.8,131.33,348.5,133.38,342.15,136.45z"/>
		<g>
			<path class="st2" d="M391.09,35.36c-0.18-0.55-3.92,1.15-9.99,1.02c-5.1-0.11-7.13-1.41-7.73-0.52
				c-1.12,1.67,3.59,9.69,10.35,10.98c7.56,1.45,12.56-6.51,18.47-4.06c2.31,0.96,3.73,3.08,5.05,6.09
				c7.49,17.09,1.87,40.17,2.52,40.29c0.36,0.07,2.66-7.02,3.55-16.93c0.83-9.26,1.44-17.25-3.05-24.77
				c-1.97-3.29-3.71-6.22-7.01-7.12c-6.64-1.81-11.64,6.77-18.6,4.66c-3.51-1.07-6.16-4.45-5.66-5.53c0.34-0.75,2.05-0.15,5.04-0.68
				C388.04,38.07,391.27,35.88,391.09,35.36z"/>
			<path class="st2" d="M391.05,31.11c-0.86,0.06-2.32-6.01-2.43-12.09c-0.16-9.03,2.65-19.06,5.15-19.02
				c2.25,0.04,1.73,8.16,7.3,17.73c4.91,8.43,10.96,11.85,14.24,14.84c19.58,17.84,4.87,54.73,4.3,56.32
				c-1.99,5.46-4.21,9.26-4.48,9.15c-0.58-0.23,10.07-17.06,8.1-37.01c-0.54-5.44-1.74-17.66-10.46-27.01
				c-5.44-5.83-10.21-6.7-14.39-14.19c-4.33-7.76-3.81-15.09-4.7-15.05C392.01,4.86,392.82,30.98,391.05,31.11z"/>
			<path class="st2" d="M406.19,53.1c0.67-1.07,0.99-2.51,0.69-2.69c-0.44-0.26-3.03,1.67-2.98,3.76c0.04,1.4,1.22,1.74,3.42,5.37
				c1,1.66,1.06,2.1,1.06,2.46c-0.04,1.56-1.43,2.15-1.47,3.97c-0.02,0.98,0.38,0.93,0.41,1.89c0.08,2.42-2.51,3.25-2.32,5.03
				c0.11,1.01,0.97,0.97,2.9,3.4c0.93,1.18,1.4,1.77,1.59,2.3c1.05,3.02-3.77,5.2-5.66,11.51c-1.05,3.5-0.06,3.77-1.17,6.06
				c-1.49,3.08-3.56,3.55-5.97,6.87c-1.85,2.56-1.1,2.92-2.74,5.57c-2.11,3.41-5.8,5.86-13.11,10.63c-1.26,0.82-2.69,1.75-4.68,2.93
				c-4.62,2.75-7.67,4.56-11.57,5.93c-5,1.76-5.11,0.58-10.88,2.54c-5.18,1.77-4.66,2.57-8.49,3.43c-2.71,0.61-4.22,0.48-10.26,1.57
				c-2.88,0.52-4.14,0.83-4.12,1.12c0.02,0.32,1.64,0.28,5.26,0.94c2.54,0.46,3.01,0.71,4.33,0.66c1.02-0.04,1.65-0.22,4.01-0.98
				c4.1-1.31,6.16-1.98,7.06-2.49c2.26-1.29,3.58-2.82,4.01-3.28c5.36-5.71,14.73-5.32,27.42-11.29c1.3-0.61,4.19-2.02,7.33-4.58
				c1.87-1.53,3.07-2.5,4.28-4.23c2.14-3.05,1.62-4.59,3.87-6.63c1.41-1.28,2.06-1.08,3.44-2.59c0.64-0.7,1.57-1.92,2.36-4.14
				c1.19-3.35,0.71-5.22,1.06-7.94c0.93-7.26,6.32-9.45,4.91-12.85c-1-2.42-4.26-2.66-4.13-4.55c0.09-1.41,1.92-1.55,2.57-3.97
				c0.22-0.8,0.34-2.02,0.35-3.07c0.01-0.74-0.05-0.99-0.01-1.74c0.08-1.36,0.33-1.79,0.41-2.56c0.21-1.97-1.01-3.69-1.39-4.22
				c-1.21-1.71-2.65-2.17-2.49-3.13C405.56,53.75,405.78,53.75,406.19,53.1z"/>
			<path class="st2" d="M332.65,132.42c-0.95,1.01-1.91,2.49-1.68,2.71c0.24,0.24,2.1-0.76,3.33-2.45c1.29-1.77,0.73-2.71,1.66-4.57
				c0.71-1.43,2.38-2.59,5.69-4.84c3.58-2.44,4.4-2.55,5.09-3.94c0.99-1.99,0.5-4.24,0.27-5.33c-0.7-3.23-2.38-3.87-1.94-5.81
				c0.28-1.24,1.06-1.36,1.85-3.5c0.47-1.26,0.56-2.17,0.65-2.72c0.88-4.94,7.77-9.13,8.74-9.7c1.14-0.68,2.71-1.47,4.79-3.13
				c0.35-0.28,2.48-1.97,2.32-2.2c-0.21-0.32-5.86,3.98-14.01,7.93c-0.55,0.27-0.52,0.25-3.38,1.61c-5.5,2.63-8.26,3.92-8.42,4.06
				c-3.82,3.45-2.79,6.03-7.81,12.17c-0.73,0.89-2.28,2.72-3.81,5.53c-0.64,1.17-1.24,2.31-1.74,3.94
				c-0.97,3.19-0.79,5.89-0.69,6.84c0.32,3.25,1.28,3.45,0.85,4.6c-0.31,0.83-1.27,1.98-12.51,3.83c-2.2,0.36-5.12,0.81-8.06,2.15
				c-1.78,0.82-3.1,1.75-4.17,2.93c-0.78,0.86-0.71,1.06-1.29,1.63c-1.58,1.55-3.71,1.65-6.1,1.86c-4.5,0.41-6.75,0.61-7.67,1.08
				c-3.77,1.91-5.31,7.04-5.34,10.67c-0.03,2.85,0.88,4.98,1.25,5.85c1.39,3.19,3.63,5.19,6.93,8.16c1.46,1.31,2.31,3.12,3.56,2.94
				c0.53-0.08,1.17-0.48,1.3-1.05c0.29-1.27-2.22-2.29-6.14-5.8c-2.89-2.58-3.64-3.92-4.02-4.69c-0.18-0.37-0.91-1.93-1.12-4.12
				c-0.09-0.96-0.38-3.88,0.95-6.29c2.28-4.15,8.45-5.22,10.82-5.63c3.28-0.57,5.52-0.22,7.04-2.04c0.93-1.11,0.65-1.91,1.9-3.12
				c1.61-1.56,3.74-1.84,4.67-1.96c1.82-0.22,3.04,0.14,4.23,0.35c0,0,7.84,1.38,14.65-4.2c0.45-0.37,1.07-0.94,1.34-1.83
				c0.42-1.37-0.28-2.57-0.84-3.9c-0.49-1.16-1.79-4.23-1.44-6.92c0.11-0.85,0.36-1.52,3.33-5.91c1.55-2.29,1.57-2.17,3.41-4.92
				c1.84-2.75,2.77-4.15,3.41-5.61c0.51-1.15,0.67-1.77,1.35-2.86c1.01-1.62,2.15-2.62,2.67-3.08c1.73-1.5,2.47-1.28,7.14-3.46
				c2.17-1.01,3.06-1.55,3.3-1.27c0.49,0.57-2.84,3.09-3.58,7.52c-0.15,0.87-0.06,1.05-0.28,1.99c-0.61,2.66-1.72,3.21-1.88,5.05
				c-0.04,0.49,0.21,1.42,0.72,3.3c0.84,3.11,1.38,3.92,0.96,4.96c-0.27,0.66-0.67,0.83-2.09,1.81c-0.88,0.61-3.39,2.37-5.41,4.42
				c-1.76,1.79-2.64,2.68-2.92,3.79c-0.1,0.39-0.3,1.44-1.12,2.45C333.09,132.01,333.01,132.03,332.65,132.42z"/>
			<path class="st2" d="M408.79,104.44c0.9-2.89,3.67-4.13,7.25-6.38c3.01-1.89,4.66-2.93,6.13-4.38
				c4.94-4.88,4.94-11.58,5.61-11.49c0.64,0.08,1.57,6.23-0.22,12.99c-4.67,17.62-25.22,29.32-27.87,26.99
				c-0.48-0.42-0.73-1.62-0.31-2.09c0.56-0.62,2.06,0.28,3.51,0.53c3.32,0.56,6.44-2.28,11.13-6.67c2.25-2.11,4.03-3.77,6-6.47
				c6.73-9.21,7.75-19.53,7.2-19.71c-0.37-0.12-0.93,4.46-5.05,8.12c-2.56,2.27-3.52,1.55-6.92,4.21c-3.94,3.08-5.85,6.54-6.52,6.15
				C408.31,105.99,408.75,104.58,408.79,104.44z"/>
			<path class="st2" d="M289.31,176.24c-0.17-0.02-1.75,4.32-0.89,9.43c0.66,3.93,2.05,4.1,2.97,8.6c0.96,4.69,0.09,7.66,1.06,7.95
				c0.91,0.26,2.49-2.05,3.31-3.96c1.6-3.7,1.03-7.39,0.72-9.22c-0.73-4.33-2.29-5.92-1.5-9.25c0.33-1.37,0.49-2.06,1.1-2.59
				c2.82-2.46,8.37,3.96,18.83,5.32c5.41,0.7,8.48-0.43,9.86,1.67c1.05,1.6,0.02,3.39-1.13,7.76c-0.28,1.05-2.24,8.67-1.78,14.7
				c0.41,5.42,2.41,4.77,4.81,12.83c2.96,9.94,1.71,16.94,5.02,17.93c1.12,0.34,2.17-0.2,2.43-0.33c3.36-1.71,0.97-7.14,3.66-13.9
				c2.38-5.97,6.38-7.11,5.98-11.8c-0.13-1.54-0.56-1.38-1.51-4.32c-1.95-6.02-0.47-7.69-1.97-13.69c-1.08-4.34-1.79-3.17-3.44-8.88
				c-1.07-3.68-1.66-7.22-3.48-7.52c-0.17-0.03-0.65-0.11-1,0.16c-1.5,1.18,2.12,6.73,5.72,17.36c1.62,4.76,2.53,7.51,2.45,10.35
				c-0.03,1.24-0.25,2.37,0.3,3.88c0.5,1.36,1.32,2.23,1.37,3.95c0.02,0.62-0.08,1.09-0.13,1.37c-0.63,3.05-3.49,4.72-5.29,7.76
				c-1.3,2.19-1.57,4.29-1.83,6.35c-0.56,4.34,0.49,6.91-0.72,7.57c-0.83,0.46-2.29-0.23-2.98-1.15c-0.75-1.01-0.23-1.82-0.44-4.25
				c-0.21-2.4-0.8-2.48-1.13-5.23c-0.29-2.36,0.12-2.52-0.13-4.09c-0.42-2.62-1.81-3.94-3.15-5.97c0,0-2.53-3.86-3.34-8.46
				c-0.8-4.5,0.99-6.26,2.15-13.63c1.17-7.46,1.29-8.36,0.68-9.16c-1.79-2.35-4.91-0.26-12.8-2.44c-1.42-0.39-3.74-1.26-8.37-3
				c-2.42-0.91-3.71-2.28-6.17-2.38c-0.87-0.03-3.43-0.14-4.74,1.5c-1.05,1.31-0.79,3.07-0.41,5.62c0.37,2.52,0.82,2.53,1.28,4.94
				c0.55,2.9,0.35,5.18,0.12,7.72c-0.04,0.46-0.42,4.49-0.9,4.48c-0.2,0-0.36-0.71-0.46-1.17c-0.33-1.51-0.17-2.66-0.13-3.34
				c0.06-0.95-0.18-1.96-0.65-3.98c-1.07-4.55-2.64-5.27-3.4-8.82C288.44,179.12,289.45,176.26,289.31,176.24z"/>
			<path class="st2" d="M344.21,179.01c-1.15,0.1-6.28,0.4-6.34,1.29c-0.04,0.62,2.44,1.26,3.04,1.41
				c6.55,1.67,23.28-5.28,41.74-24.66c6.94-7.28,12.49-14.61,16.96-20.51c6.55-8.64,8.12-12.29,10.27-14.38
				c0.2-0.19,0.91-0.87,0.76-1.14c-0.25-0.43-2.67,0.37-4.05,1.18c-3.59,2.09-4.4,6.69-5.02,8.95c-0.98,3.56-4.66,7.43-12.04,15.17
				C381.64,154.63,359.64,177.73,344.21,179.01z"/>
			<path class="st2" d="M294.23,168.54c-0.07-0.21,4.04-2.85,8.74-2.14c2.64,0.4,6.58,2.03,7.54,5.35c0.7,2.4-0.2,5.54-1.57,5.91
				c-0.66,0.18-1.55-0.23-1.7-0.77c-0.14-0.51,0.79-0.86,1.23-2.2c0,0,0.1-0.31,0.16-0.69c0.21-1.34-0.71-3.02-1.63-4.01
				c-2.3-2.46-6.15-2.3-8.18-2.21C295.96,167.91,294.27,168.67,294.23,168.54z"/>
			<path class="st2" d="M301.38,169.1c-0.88,0.2-1.52,2.07-1.11,3.37c0.68,2.15,4.38,3.13,5.34,2.11c0.78-0.82-0.01-3.2-1.29-4.27
				c-0.66-0.55-1.58-0.86-2.26-1.09C301.65,169.08,301.52,169.07,301.38,169.1z"/>
			<path class="st2" d="M290.94,145.4c0.05-0.06,0.1-0.12,0.15-0.17c1.23-1.39,1.62-2.28,1.62-2.28s-2.53-3.52-2.39-3.98
				c0.14-0.45-0.65,2.3,0.21-0.92c0.86-3.22,1.69-3.38,2.41-4.02c0.72-0.64-0.8-4.67-0.75-4.84s1.67-3.91,1.14-1.05
				c-0.54,2.86,2.2,4.43,1.69,6.06c-0.51,1.63-0.9,0.97-0.74,3.4s-0.04,3.87,0.72,5.59s-2.02-2.21-1.82-2.79
				c0.2-0.58-0.29-2.48,0.22-3.77c0.5-1.29,1.26-2.46,1-3.45c-0.26-0.98-0.56-0.71-0.62-0.53c-0.05,0.18-0.01,0.77-0.44,1.38
				c-0.44,0.61-0.77,0.69-1.28,1.67s-0.8,0.58-0.9,2.01c-0.1,1.44,1.24,3.46,1.33,3.61c0.09,0.16,0.88,0.91,0.8,1.45
				s-1.07,2.49-1.07,2.49"/>
		</g>
	</g>
	<g>
		<text transform="matrix(1 0 0 1 29.3727 169.0889)" class="st2 st3 st4 st5">Aventura</text>
	</g>
</g>
</svg>
