<?xml version="1.0" encoding="UTF-8"?>
<svg id="Capa_1" data-name="Capa 1" xmlns="http://www.w3.org/2000/svg" viewBox="0 0 83.34 64.48">
  <defs>
    <style>
      .cls-1 {
        fill: none;
        stroke: #b20404;
        stroke-miterlimit: 10;
        stroke-width: 1.93px;
      }
    </style>
  </defs>
  <polygon class="cls-1" points="4.96 42.12 4.96 63.52 14.93 63.52 14.93 51.61 68.78 51.61 68.78 63.52 78.2 63.52 78.2 42.12 4.96 42.12"/>
  <path class="cls-1" d="m5.14,42.12c-2.67-2.26-4.18-4.81-4.18-7.5,0-3.99,3.3-7.66,8.83-10.56,4.48-2.35,10.42-4.19,17.26-5.28,4.54-.73,9.47-1.13,14.62-1.13s10.08.4,14.62,1.13c15.26,2.45,26.08,8.62,26.08,15.84,0,2.69-1.5,5.24-4.18,7.5"/>
  <path class="cls-1" d="m56.29,18.78c3.47-.99,5.6-2.32,5.6-3.8,0-3.04-9.05-5.5-20.21-5.5s-20.22,2.46-20.22,5.5c0,1.47,2.13,2.81,5.6,3.8"/>
  <polyline class="cls-1" points="9.8 24.07 9.8 .97 74.03 .97 74.03 24.07"/>
</svg>