<?xml version="1.0" encoding="utf-8"?>
<!-- Generator: Adobe Illustrator 27.8.0, SVG Export Plug-In . SVG Version: 6.00 Build 0)  -->
<svg version="1.1" id="Capa_1" xmlns="http://www.w3.org/2000/svg" xmlns:xlink="http://www.w3.org/1999/xlink" x="0px" y="0px"
	 viewBox="0 0 453.05 166.17" style="enable-background:new 0 0 453.05 166.17;" xml:space="preserve">
<style type="text/css">
	.st0{fill:#E20E18;}
	.st1{fill:#FFFFFF;}
	.st2{fill:#1E1E1C;}
	.st3{font-family:'Geograph-BoldItalic';}
	.st4{font-size:44.9117px;}
	.st5{letter-spacing:1;}
</style>
<g>
	<rect y="20.14" class="st0" width="424.61" height="106.8"/>
	<rect x="20.02" class="st1" width="424.61" height="106.8"/>
	<path class="st1" d="M392.87,139.85c3.64,1.56,1.54,9.2,7.6,15.21c1.24,1.23,3.25,3.22,6.06,3.37c3.09,0.16,3.97-2.07,8.66-3.14
		c3.78-0.86,6.76-0.23,7.7,0c1.35,0.33,4.3,1.09,6.58,3.63c1.52,1.7,2.62,4.05,2.12,4.49c-0.49,0.43-1.96-1.43-4.88-2.57
		c-4.23-1.64-8.53-0.58-10.88,0c-1.21,0.3-3.02,0.97-6.64,2.31c-2.87,1.06-4.33,1.69-6.35,1.48c-1.89-0.2-3.23-1.01-3.95-1.44
		c-3.51-2.13-9.25-8.98-15.37-18.86C388.69,139.51,391.37,139.22,392.87,139.85z"/>
	<g>
		<path class="st1" d="M346.86,130.75c-0.2-3.7,7.04-4.76,7.54-8.86c0.4-3.21-3.55-6.57-6.81-7.86c-3.59-1.41-6.81-0.49-7.59-0.22
			c-3.6,1.2-5.53,3.89-7,5.94c-3.05,4.26-3.66,8.52-3.8,9.72c-0.56,4.83,0.78,8.44,2.12,12.01c1.07,2.86,3.01,7.87,7.8,12.32
			c3.21,2.99,6.42,4.52,8.54,5.53c3.99,1.91,7.28,2.66,8.25,2.86c4,0.86,7.11,1.52,10.63,0.53c4.56-1.28,3.65-3.6,9.38-5.68
			c2.99-1.08,5.53-1.29,6.5-3.37c0.44-0.96,0.42-2.04,1.49-3.13c0.62-0.63,1.01-0.66,2.31-1.35c2.41-1.28,2.26-1.8,4.55-3.01
			c1.28-0.67,2.12-1.12,3.39-1.44c1.62-0.42,2.76-0.35,3.39-1.25c0.41-0.59,0.37-1.25,0.36-1.42c-0.12-1.72-2.19-2.81-3.34-3.42
			c-1.26-0.66-2.48-0.84-4.5-1.2c-0.81-0.15-1.51-0.24-1.73-0.26c-3.41-0.36-8.02,4.54-9.24,5.77c-0.82,0.83-7.82,7.76-15.25,8.08
			c-7.52,0.33-15.52-6.1-15.4-10.71c0.04-1.4,0.82-2.68,0.36-5.05C348.3,132.63,346.95,132.33,346.86,130.75z"/>
		<g>
			<path class="st1" d="M303.65,6.99L292.2,9.68l-8.37,4.23l-6.64,6.74l-2.03,2.88l-3.95-2.05l-5.86-0.55l-7.22,1.19l-5.04,1.83
				l-3.5,2.21l-3.56,2.89l-3.08,3.65l-3.18,4.24l-2.47,5.45l-1.86,8.18l0.13,6.06l1.99,8.98l2.41,4.14l4.04,5.87l4.04,2.98
				l5.58,2.15l6.58,1.8l9.34,4.02l6.51,3.26l5.84,6.22l1.41,3.79l-1.48,5.07l-1.01,2.42l19.46-1.23l39.11-0.01l7.61-0.06l59.89,1.08
				l3.34-10.1l0.32-6.79l2.37-7.04l0.58-3.16l-1.03-9.62l-2.57-3.14l-3.34-6.8c0,0-2.89-2.12-2.95-2.31
				c-0.06-0.19-1.6-7.19-1.6-7.19l-2.82-2.05l-0.64-2.82l-0.9-4.49c0,0-1.8-1.41-1.8-1.73c0-0.32,1.48-5.52,1.48-5.52L397,29.79
				l3.53-3.34l1.99-4.62l1.28-0.83h2.95l3.07-3.45l3.89,0.29l2.7-1.97l2.68,0.36c0,0,0.81,0.23,0.82,0.24
				c0.01,0.01,1.31,0.18,1.31,0.18l2.25,0.44c0,0,1.96,0.84,2.08,0.98c0.12,0.14,2.6,1.64,2.6,1.64l1.3,1.11l0.38,3.54l0.79,1.9
				l0.38,1.37l-1.01,0.96l-1.15,1.2l0.63,2.19l0.24,2.09l-0.12,2.91l0.63,1.54l0.84,1.42l0.1,2.26l1.44,0.82l1.59,1.95l2.65,1.25
				l1.44,1.92l2.43-0.24c0,0,3.27,1.03,3.39,1.06c0.12,0.02,3.85-0.75,3.85-0.75l3.42-2.26l0.82-1.92l-2.12,0.77l-3.42,0.89
				l-2.67-0.1l-2.05-0.41l-3.39-1.35l-2.41-4.02l-1.03-6.16c0,0,0.99-6.28,1.23-6.83c0.24-0.55,0.6-3.44,0.6-3.44l-1.03-4.88
				l-3.03-2.79l-5.73-4.09l-6.18-2.19l-6.62-1.01l-5.56,0.24l-5.41,2.21l-5.37,2.91l-2.62,1.68l-3.03,3.37l-2.05,2.14l-2.72,2.96
				l-0.34,2.69l-1.71,2.38l-0.75,0.91l-0.12,4.99l-0.45,4.56l-0.19,3.91l1.41,3.85l0.83,2.57c1.39,2.44,2.78,4.88,4.17,7.31
				c1.86,1.96,6.43,7.34,7.41,15.53c0.53,4.46-0.19,8.16-0.87,10.53c-2.86,2.22-5.71,4.44-8.57,6.66c-3.7,6.85-5.49,7.96-6.45,7.7
				c-2.17-0.6-3.51-9.33-1.54-16.46c0.41-1.5,1.05-3.2,0.77-5.58c-0.37-3.11-2.06-5.47-3.43-6.98c-1.01-1.02-2.28-2.52-3.33-4.57
				c-1.75-3.41-2.02-6.59-2.03-8.37c0.21-3.85,0.43-7.7,0.64-11.55l-5.39-10.84l-6.99-9.11l-18.93-11.36l-29.58-6.74L303.65,6.99z"
				/>
			<g>
				<g>
					<path class="st2" d="M374.17,72.33c0.85-0.87-0.43-3.35-0.85-4.31c-2.25-5.04,0.14-10.23,0.78-15.38
						c0.88-7.15-1.78-13.02-4.19-18.34c-7.21-15.89-25.65-21.75-36.61-25.23c-8.5-2.7-19.87-6.31-33.39-2.92
						c-11.8,2.96-24.07,10.97-23.51,15.65c0.04,0.35,0.3,1.91,0.97,2.02c1.09,0.19,2.49-3.55,3.07-4.79
						c4.62-9.96,26.37-11.22,28-11.3c9.74-0.48,17.78,1.97,23.16,4.27c4.4,0.92,10.66,2.7,17.49,6.36c3.64,1.95,6.98,3.74,10.5,7.08
						c0.69,0.65,13.29,12.92,12.01,27.23c-0.06,0.71-0.47,4.82-0.72,10.39c-0.25,5.6-0.17,8.61,1.42,9.4
						C372.9,72.74,373.76,72.75,374.17,72.33z"/>
					<path class="st2" d="M270.63,34.6c-0.66-1.77-1.23-2.16-1.65-2.17c-1.85-0.05-4.14,7.34-4.19,14.15
						c-0.03,3.5,0.61,6.07,1.87,11.23c1.72,7,3.36,9.47,5.17,11.16c1.42,1.33,3.45,2.65,3.89,2.25c0.51-0.46-1.32-2.92-2.9-5.74
						c-3.44-6.16-4.34-11.66-5-15.66c-1.56-9.53,0.59-12.7,1.23-13.56C269.63,35.49,270.21,34.95,270.63,34.6z"/>
					<path class="st2" d="M297.81,85.13c0.06-0.65,8.82,2.08,14.82-2.44c1.41-1.06,3.18-2.91,4.42-2.35
						c0.73,0.34,1.17,1.48,0.97,2.4c-0.71,3.26-9.6,3.76-10.71,3.82C302.13,86.81,297.77,85.59,297.81,85.13z"/>
					<path class="st2" d="M319.89,78.32c-0.04-0.23,1.82-1.04,4.04-1.05c1.21,0,1.38,0.24,5.47,1.35c2.33,0.63,2.8,0.7,3.37,1.27
						c1.31,1.33,1.41,3.67,0.82,3.97c-0.54,0.27-1.31-1.4-3.89-3.14c-0.68-0.46-2.48-1.65-4.94-2.17
						C321.97,77.95,319.93,78.56,319.89,78.32z"/>
					<path class="st2" d="M319.11,86.89c-0.12-0.11,1.09-2.76,3.59-3.76c5.03-2.01,10.77,4.46,11.24,4.99
						c1.32,1.48,1.55,2.48,1.4,3.26c-0.1,0.56-0.48,1.42-1.07,1.52c-1.01,0.16-1.65-2.1-3.59-4.49c-0.67-0.83-3.96-4.9-7.3-4.52
						C320.8,84.18,319.24,87.01,319.11,86.89z"/>
					<path class="st2" d="M361.89,83.89c1.36-0.93,1.91-2.53,2.7-2.33c0.43,0.11,0.72,0.71,0.73,1.19c0.03,1.19-1.58,2.04-2.47,2.52
						c-0.62,0.33-2.41,1.29-4.58,1.12c-3.39-0.26-5.66-3.12-7.05-4.87c-3.73-4.7-3.13-8.28-5.92-9.08c-1.7-0.49-2.92,0.54-4.91-0.53
						c-1.04-0.56-2.25-1.66-2.02-2.41c0.28-0.93,2.73-1.2,4.6-0.73c0.4,0.1,2.22,0.59,4.1,2.75c1.95,2.24,1.45,3.4,3.24,6.66
						c1.28,2.33,2.51,4.58,5.07,5.72C355.61,83.99,359.38,85.61,361.89,83.89z"/>
					<path class="st2" d="M360.77,85.66c-0.67-0.97-2.41-0.55-3.76-0.67c-2.37-0.22-5.52-2.3-8.92-10.53
						c-4.19,1.81-6.67,6.11-6.12,10.41c0.68,5.3,5.67,8.43,9.87,8.59c2.83,0.11,5.83-1.11,7.59-3.31
						C360.36,88.98,361.55,86.78,360.77,85.66z M357.63,90.66c-2.97,2.54-7.65,2.1-10.66,0c-3.39-2.36-3.92-6.26-4.01-6.98
						c-0.05-0.47-0.29-3.3,1.76-5.49c1.17-1.25,2.54-1.71,3.2-1.88c1.61,2.89,3.3,4.99,4.58,6.4c1.68,1.86,2.72,2.57,3.87,3.03
						c1.48,0.59,2.85,0.62,3.74,0.56C359.88,87.29,359.31,89.21,357.63,90.66z"/>
					<path class="st2" d="M376.27,64.54c-1.47-2.77-1.95-4.37-2.47-4.27c-0.7,0.14-1.2,3.37,0,6.06c1.23,2.76,3.24,2.69,4.94,4.94
						c3.48,4.59,0.29,11.73,1.01,11.9c0.57,0.14,3.51-4.17,2.58-8.73C381.67,71.16,379.62,70.88,376.27,64.54z"/>
					<path class="st2" d="M393.36,107.09c-0.18,0.3-5.54-1.3-9.79-5.59c-1.37-1.39-4.47-4.52-5.22-9.09
						c-0.36-2.2,0.15-2.76-0.56-4.84c-0.97-2.86-2.67-3.97-2.33-6.06c0.16-0.98,0.75-2.12,1.37-2.13c1.35-0.02,2.39,5.52,2.47,5.95
						c0.56,3.09,0.04,3.5,0.4,5.83c0.06,0.42,1.01,6.1,5.33,9.89c0.61,0.54,3.69,3.14,5.54,3.93c0.04,0.02,0.19,0.08,0.42,0.2
						c0.01,0,0.01,0.01,0.01,0.01c0.33,0.17,0.81,0.46,1.32,0.86c0,0,0.01,0,0.01,0.01c0.15,0.12,0.3,0.24,0.45,0.38
						C393.14,106.77,393.4,107.01,393.36,107.09z"/>
					<path class="st2" d="M391,105.18c0.43,0.31,0.88,0.6,1.32,0.86C391.81,105.63,391.33,105.35,391,105.18z M452.93,43.28
						c-0.53-0.56-2.33,1.37-5.39,1.95c-0.21,0.04-4.98,0.88-8.29-1.93c-3.46-2.93-3.21-8.03-3.09-10.65
						c0.27-5.51,2.51-6.7,2.39-9.59c-0.28-7.37-15.64-17.14-30.24-14.67c-13.83,2.34-23.59,15.1-24.86,26.65
						c-0.79,7.17,1.72,13.59,2.4,15.27c3.42,8.51,7.67,8.79,10.18,16.47c2.27,6.95,1.99,16.46-2.67,19.62
						c-1.22,0.83-3.04,1.43-4.67,1.84c0.45,0.4,0.96,0.82,1.51,1.26c1.82-0.38,3.7-1.05,5.3-2.51c5.4-4.9,3.47-14.9,3.29-15.8
						c-0.92-4.51-2.68-5.3-7.56-14.15c-3.62-6.55-5.42-9.83-6.14-12.88c-1.94-8.27,0.97-18.33,7.41-25.31
						c7.21-7.8,18.52-11.44,28.45-8.83c0.72,0.19,13.32,3.64,14.97,11.75c0.93,4.53-2.43,6.23-1.72,12.5
						c0.5,4.45,2.93,10.27,7.34,11.83c4.44,1.58,9.44-1.69,9.58-1.35c0.26,0.63-3.36,4.17-6.51,3.44c-1.78-0.41-3.19-2.13-4.64-1.49
						c-0.65,0.28-0.86,0.84-1.35,0.74c-0.73-0.14-0.61-1.5-1.72-2.24c-0.69-0.46-0.9-0.04-1.72-0.45c-1.41-0.71-1.18-2.13-2.69-2.92
						c-0.64-0.34-0.88-0.18-1.12-0.52c-0.56-0.77,0.48-1.75,0.07-2.99c-0.31-0.96-1.07-0.79-1.42-1.72
						c-0.47-1.22,0.69-1.82,0.6-3.52c-0.1-1.77-1.42-2.19-1.12-3.37c0.3-1.2,1.73-1.12,2.02-2.32c0.26-1.08-0.83-1.44-1.12-3.22
						c-0.31-1.9,0.74-2.65,0.15-3.67c-0.57-0.99-1.65-0.44-3.14-1.43c-2.17-1.43-1.87-3.86-3.3-4.12c-1.18-0.21-1.54,1.44-3.14,1.57
						c-2.12,0.17-3.17-2.55-4.94-2.24c-1.06,0.18-0.79,1.29-2.1,2.1c-2.17,1.34-4.37-0.67-6.14,0.67c-1.05,0.79-0.48,1.64-1.57,2.55
						c-1.78,1.48-3.94-0.16-5.32,1.12c-1.22,1.14,0.11,2.77-1.19,4.87c-1.12,1.79-2.55,1.35-3.37,2.99
						c-0.88,1.76,0.56,2.67,0.23,5.24c-0.46,3.5-3.48,4.65-2.85,6.44c0.5,1.4,2.4,0.79,3.52,2.47c1.53,2.28-0.91,4.99,0.68,7.12
						c0.92,1.24,1.85,0.46,3.07,1.72c2.16,2.24,0.21,5.7,2.47,7.86c0.88,0.84,1.07,0.24,2.17,1.12c2.61,2.12,1.32,5.43,4.27,8.24
						c0.74,0.71,0.82,0.49,1.27,1.05c1.36,1.69,0.68,3.69,0.9,7.64c0.12,2.2,0.35,1.84,0.37,3.37c0.07,3.43-1.08,4.45-3.52,12.05
						c-0.32,1.02-0.67,2.02-1.35,4.04c-0.59,1.76-0.9,2.64-1.19,3.3c0.65,0.39,1.28,0.77,1.87,1.12c1.42-2.38,2.39-5.06,2.69-7.49
						c0.31-2.52-0.09-4.79,1.35-8.24c1.23-2.94,2.43-3.47,2.55-5.76c0.13-2.59-1.36-2.93-1.8-6.66c-0.36-3.06,0.55-3.67-0.3-5.32
						c-1.04-2.02-2.66-1.61-3.82-3.74c-1.12-2.04,0.09-2.93-0.97-4.94c-1.26-2.38-3.31-1.81-4.42-4.11
						c-0.94-1.98,0.31-2.9-0.74-4.87c-1.04-1.92-2.51-1.51-3.3-3.3c-0.84-1.89,0.62-2.79-0.07-5.09c-0.71-2.33-2.5-2.35-2.62-4.19
						c-0.12-1.81,1.58-2.13,1.72-4.42c0.13-2.03-1.15-2.97-0.52-3.97c0.6-0.94,1.84-0.25,3.07-1.12c2.19-1.55,0.63-5.4,2.55-6.51
						c1.38-0.81,2.75,0.86,4.34-0.07c1.5-0.89,1.07-2.84,2.39-3.3c1.2-0.41,1.99,1.03,3.67,0.82c1.32-0.16,1.75-1.14,2.74-1.8
						c3.85-2.56,12.76,2.18,12.58,5.13c-0.03,0.49-0.29,0.59-0.34,1.31c-0.13,1.94,1.67,2.76,1.38,3.89
						c-0.3,1.21-2.51,0.92-2.88,2.13c-0.41,1.3,1.95,2.21,1.91,4.23c-0.04,1.77-1.89,2.38-1.57,3.63c0.34,1.34,2.6,1.16,3,2.58
						c0.37,1.34-1.33,2.6-0.86,3.22c0.44,0.58,2.01-0.51,2.92,0.19c1.11,0.84,0.1,3.43,0.9,3.78c0.64,0.29,1.57-1.32,2.36-1.05
						c0.96,0.34,0.35,3.02,1.42,3.52c0.92,0.42,1.76-1.33,3.52-1.27c1.76,0.05,2.19,1.84,3.82,1.72c0.85-0.06,0.85-0.57,2.66-1.65
						c1.99-1.18,2.57-0.81,3.6-1.8C452.37,45.69,453.4,43.78,452.93,43.28z"/>
					<path class="st2" d="M279.02,108.12c-0.48-0.41,3.56-3.45,3.59-7.41c0.07-7.78-15.28-14.19-20.44-16.35
						c-8.9-3.72-9.78-2.15-14.15-4.99c-7.97-5.17-12.83-15.45-13.03-25.15c-0.31-15.3,10.94-29.56,23.81-32.57
						c1.49-0.35,11.81-2.76,17,2.47c2.78,2.79,2.26,5.93,6.53,10.06c1.7,1.64,4.14,4.01,7.68,4.54c5.45,0.81,7.44-3.62,12.13-2.69
						c5.1,1.01,8.14,7.33,7.64,7.86c-0.32,0.34-2.16-1.6-6.06-2.7c-2.67-0.75-3.5-1.06-4.27-0.67c-1.16,0.58-1.36,1.86-2.58,2.02
						c-0.86,0.11-1.09-0.48-1.83-0.3c-1.26,0.31-1.39,2.23-2.25,2.25c-0.63,0.01-0.67-1.02-1.5-1.27c-1.4-0.42-2.94,1.98-3.82,1.5
						c-0.42-0.23-0.16-0.83-0.6-1.12c-0.9-0.6-2.6,1.5-3.74,0.97c-0.98-0.45-0.4-2.29-1.5-2.92c-1.06-0.61-2.17,0.78-3.29,0.22
						c-1.22-0.61-0.46-2.5-1.87-3.74c-1.3-1.14-2.85-0.34-3.44-1.35c-0.67-1.15,1.07-2.67,0.37-3.74c-0.58-0.89-2-0.17-3.1-1.27
						c-0.93-0.93-0.46-1.99-1.24-2.4c-0.94-0.48-1.79,0.96-3.37,0.67c-1.23-0.22-1.43-1.23-2.4-1.12c-0.99,0.11-1.14,1.21-2.1,1.27
						c-1.08,0.07-1.77-1.27-2.17-1.05c-0.43,0.24,0.56,1.7,0,2.92c-0.59,1.27-2.15,0.73-3.67,2.25c-1.16,1.16-0.6,1.84-1.87,3.14
						c-1.32,1.36-2.28,0.99-2.84,2.1c-0.66,1.29,0.47,2.11-0.07,3.59c-0.63,1.71-2.43,1.4-2.92,2.84c-0.6,1.79,1.93,2.93,1.72,5.54
						c-0.16,2.01-1.75,2.37-1.5,3.89c0.29,1.76,2.46,1.6,3.59,3.89c1.01,2.06-0.19,3.29,0.9,4.49c1.17,1.29,2.76,0.1,4.94,1.42
						c1.92,1.16,1.35,2.49,3.14,3.52c2.17,1.24,3.57-0.39,5.91,0.82c1.95,1.01,1.44,2.37,3.37,3.37c2.26,1.16,3.46-0.44,6.07,0.6
						c2.4,0.95,2.09,2.59,4.26,3.22c2.53,0.73,3.67-1.28,5.91-0.45c1.64,0.6,1.39,1.81,3.74,3.94c2.34,2.12,3.24,1.52,4.94,3.18
						c1.85,1.8,1.31,3.03,3.14,7.33c2.08,4.89,3.32,4.58,3.97,7.64c0.91,4.28-0.69,8.83-1.57,8.83c-0.41,0-0.86-0.96-0.82-1.8
						c0.05-1.19,1.07-1.63,1.65-2.62c1.12-1.92-0.17-4.65-1.12-6.66c-1.72-3.64-3.04-3.26-4.19-6.36c-1.07-2.89-0.18-3.9-1.5-5.39
						c-1.47-1.67-2.94-0.81-5.02-2.62c-2.09-1.82-1.44-3.43-3.07-4.19c-2.24-1.05-4.08,1.69-6.66,0.75
						c-2.17-0.79-1.67-2.99-3.97-3.97c-2.54-1.08-4.26,1.14-6.51-0.07c-1.79-0.96-1.19-2.61-2.99-3.59c-2.28-1.24-4.08,0.9-6.29-0.3
						c-1.88-1.02-1.19-2.91-3.22-4.12c-2.17-1.29-4.06,0.22-5.24-1.05c-1.15-1.23,0.42-2.88-0.6-5.09
						c-1.19-2.57-4.27-2.41-4.49-4.27c-0.19-1.55,1.92-1.91,2.25-4.01c0.44-2.84-3.04-4.73-2.25-6.48c0.56-1.23,2.47-0.66,3.22-2.1
						c0.82-1.57-0.99-3.1-0.15-4.57c0.67-1.16,2-0.55,3.22-1.95c1.15-1.32,0.4-2.37,1.5-3.44c1.32-1.3,3.03-0.37,3.82-1.5
						c0.96-1.37-0.77-3.86-0.15-4.27c0.57-0.37,1.96,1.73,3.44,1.35c0.89-0.23,0.89-1.12,1.8-1.27c1.02-0.18,1.33,0.9,2.7,1.12
						c1.61,0.27,2.2-1.07,3.44-0.67c1.08,0.35,0.83,1.42,2.25,2.4c1.44,0.99,2.39,0.36,2.99,1.2c0.86,1.19-0.79,2.88,0.07,4.12
						c0.65,0.93,1.79,0.28,2.84,1.35c1.09,1.11,0.47,2.42,1.42,2.99c0.95,0.57,1.94-0.51,3.14-0.07c1.27,0.46,0.85,2.4,1.87,2.84
						c1.04,0.45,2.25-1.8,3.14-1.42c0.72,0.3,0.33,1.83,1.07,2.13c0.87,0.36,1.98-1.58,3.22-1.24c0.72,0.2,0.7,0.95,1.35,1.01
						c0.88,0.08,1.14-1.31,2.41-1.57c0.84-0.17,1.12,0.33,1.95,0.24c1.26-0.14,1.33-1.54,2.49-2.15c1.13-0.6,2.46-0.07,4.66,0.84
						c3.55,1.47,5.05,3,5.41,2.66c0.38-0.37-0.9-2.6-2.64-4.23c-1.02-0.95-2.44-2.29-4.49-2.6c-2.79-0.43-3.62,1.51-8.74,2.4
						c-1.47,0.25-2.28,0.4-3.41,0.3c-1.51-0.13-4.32-0.75-7.99-4.57c-4.51-4.69-3.77-7.37-6.48-10.07
						c-5.17-5.15-15.37-2.8-17.37-2.28c-12.42,3.21-23.19,17.08-22.46,31.93c0.45,9.05,5.19,19.01,12.99,23.58
						c2.68,1.57,2.74,0.7,14.52,4.94c10.4,3.74,12.61,5.2,14.45,6.89c0.74,0.67,8.22,7.69,6.18,13.7
						C282.78,106.54,279.43,108.47,279.02,108.12z"/>
					<path class="st2" d="M354.41,121.89c1-1.89-3.61-7.96-8.83-8.98c-5.61-1.1-11.51,3.71-14.22,8.24
						c-5.96,9.95-0.85,25.86,9.13,34.44c10.01,8.59,24.49,9.47,30.1,6.14c2.18-1.3,6.33-5.2,10.03-6.14c0.6-0.15,2.24-0.49,2.99-1.8
						c0.57-0.98,0.12-1.59,0.75-2.4c0.83-1.06,1.94-0.4,3.29-1.5c1.1-0.89,0.74-1.62,1.8-2.25c1.02-0.6,1.52-0.02,2.87-0.6
						c1.25-0.54,1.02-1.12,2.22-1.65c1.46-0.65,2.28,0,3.29-0.75c0.67-0.49,0.99-1.27,1.05-1.65c0.37-2.26-4.78-6.68-9.88-6.74
						c-4.3-0.05-5.07,3.04-16.02,9.88c-5.24,3.28-8.3,4.59-11.68,4.04c-1.15-0.18-3.82-0.62-5.54-2.7c-1.54-1.86-0.95-3.39-2.7-4.94
						c-1.9-1.7-3.81-0.96-4.34-2.25c-0.71-1.69,2.39-3.42,1.8-5.69c-0.47-1.8-2.75-1.98-2.7-3.29c0.06-1.48,2.98-1.72,3.29-3.74
						c0.13-0.83-0.19-1.85-0.9-2.25c-0.83-0.46-1.89,0.11-2.25,0.3c-1.55,0.83-2.87,2.89-2.55,4.79c0.37,2.14,2.49,2.22,2.7,4.19
						c0.19,1.85-1.61,2.4-1.5,4.49c0.04,0.85,0.38,1.45,2.1,3.74c2.17,2.9,3.28,4.33,3.74,4.79c2.53,2.49,6.9,4.81,11.39,4.64
						c3.43-0.13,6.18-2.03,11.52-5.84c7.6-5.42,8.54-8.08,12.43-8.34c5-0.33,9.36,3.69,9.13,4.29c-0.14,0.37-2.03-0.49-3.57,0.6
						c-1.01,0.71-0.67,1.42-1.7,2.1c-1.3,0.86-2.37,0.09-3.56,1.05c-0.6,0.48-0.55,0.85-1.05,1.5c-1.3,1.71-3.39,0.73-4.19,1.95
						c-0.62,0.95,0.3,1.77-0.22,3.03c-0.61,1.47-2.52,1.94-3.29,2.17c-4.22,1.24-6.04,4.32-9.02,6.14
						c-6.91,4.22-18.01,0.5-23.88-2.77c-2.51-1.4-7.66-4.69-11.57-10.97c-1.17-1.87-4.81-7.9-4.72-16.17
						c0.03-2.95,0.07-6.36,2.17-9.88c2.86-4.8,9.07-9.01,13.03-7.41c4.09,1.66,4.29,8.91,7.49,8.91
						C353.39,122.64,354.12,122.42,354.41,121.89z"/>
					<path class="st2" d="M391.32,153.77c-0.08,0.06,3.91,11.03,11.75,12.3c4.9,0.79,6.37-3,16.25-4.04
						c6.51-0.69,9.2,0.59,10.56,1.5c0.81,0.54,1.71,1.32,1.95,1.12c0.41-0.36-1.27-3.56-3.74-5.76c-2.93-2.61-6.3-3.2-7.79-3.44
						c-6.29-1.02-8.58,3.18-14.37,3.59c-7.52,0.53-12.97-5.32-13.1-5.09c-0.14,0.24,5.28,6.22,12.4,6.1
						c6.01-0.1,7.55-4.46,14.04-3.83c4.31,0.42,7.44,2.71,8.08,3.19c2.2,1.67,3.99,3.98,3.77,4.22c-0.17,0.19-1.46-0.93-2.86-1.73
						c-3.88-2.2-8.13-1.61-11.25-1.13c-8.57,1.31-9.31,4.86-13.76,4.44C395.71,164.48,391.4,153.71,391.32,153.77z"/>
				</g>
				<path class="st2" d="M347.07,82.28c0.71-0.72,7.64,4.26,7.19,5.2c-0.22,0.46-2.25-0.02-3.59-0.71
					C348.1,85.46,346.65,82.71,347.07,82.28z"/>
			</g>
		</g>
	</g>
	<g>
		<text transform="matrix(1 0 0 1 25.666 100.3822)" class="st2 st3 st4 st5">Comida</text>
	</g>
</g>
</svg>
