<?xml version="1.0" encoding="UTF-8"?>
<svg id="icons" xmlns="http://www.w3.org/2000/svg" viewBox="0 0 224.2 65.16">
  <defs>
    <style>
      .cls-1 {
        fill: #fff;
        stroke-width: 0px;
      }
    </style>
  </defs>
  <path class="cls-1" d="m80.47,3.5l.87-3.5c-6.35,4-32.36,3.48-32.36,3.48h-15.31S7.66,4,1.3,0l.87,3.5L0,5.65s1.74,1.91,6.18,1.91v1.91h3.74l.61,3.48s5.51.36,13.07.66l-.51,6.13h-12.91l.7,4.96s4.57-.26,11.23-.5l-1.19,14.24h-6.56v-2.62l2.64-1.3-4.25-2.08-4.25,2.08,2.64,1.3v29.33h3.22v-7.39h4.95l-.62,7.39h6.79l.31-7.39h4.84v7.39h3.22v-29.33l2.64-1.3-4.25-2.08-4.25,2.08,2.64,1.3v2.62h-4.04l.6-14.41c4.37-.12,9.24-.21,14.14-.21s9.77.09,14.14.21l.6,14.41h-4.04v-2.62l2.64-1.3-4.25-2.08-4.25,2.08,2.64,1.3v29.33h3.22v-7.39h4.84l.31,7.39h6.79l-.62-7.39h4.95v7.39h3.22v-29.33l2.64-1.3-4.25-2.08-4.25,2.08,2.64,1.3v2.62h-6.56l-1.19-14.24c6.66.24,11.23.5,11.23.5l.7-4.96h-12.91l-.51-6.13c7.56-.3,13.07-.66,13.07-.66l.61-3.48h3.74v-1.91c4.44,0,6.18-1.91,6.18-1.91l-2.17-2.15ZM19.55,54.81h-5.2v-13.4h6.31l-1.12,13.4Zm11.07-13.4v13.4h-4.72l.56-13.4h4.16Zm21.4-21.66h-21.4v-5.89c3.47.09,7.11.15,10.7.15s7.23-.06,10.7-.15v5.89Zm0,35.06v-13.4h4.16l.56,13.4h-4.72Zm16.27-13.4v13.4h-5.2l-1.12-13.4h6.31Z"/>
  <g>
    <path class="cls-1" d="m104.74,44.37h-14.44v-4.37h4.04v-15.92h-4.04v-4.37h14.44v4.37h-4.04v15.92h4.04v4.37Z"/>
    <path class="cls-1" d="m132.35,44.37h-6.13l-10.47-16.93v16.93h-5.83v-24.66h7.6l8.99,14.13v-14.13h5.83v24.66Z"/>
    <path class="cls-1" d="m151.98,44.37h-14.44v-4.37h4.04v-15.92h-4.04v-4.37h14.44v4.37h-4.04v15.92h4.04v4.37Z"/>
    <path class="cls-1" d="m168.31,44.85c-1.83,0-3.53-.27-5.08-.81-1.55-.54-2.88-1.35-4-2.42-1.12-1.07-1.98-2.41-2.59-4.01-.61-1.6-.92-3.45-.92-5.55,0-1.95.29-3.73.88-5.32.59-1.59,1.44-2.95,2.55-4.09,1.07-1.09,2.4-1.94,3.98-2.53,1.58-.6,3.32-.89,5.19-.89,1.04,0,1.97.06,2.81.17.83.12,1.6.27,2.31.46.74.21,1.41.44,2.01.7.6.26,1.13.5,1.58.72v5.98h-.73c-.31-.26-.7-.58-1.17-.94-.47-.36-1-.72-1.6-1.07-.61-.35-1.26-.65-1.97-.89-.71-.24-1.46-.36-2.27-.36-.89,0-1.74.14-2.55.42-.81.28-1.55.75-2.24,1.4-.65.63-1.18,1.46-1.58,2.5-.4,1.04-.6,2.29-.6,3.77s.22,2.83.65,3.87c.44,1.04.99,1.85,1.65,2.45.67.61,1.42,1.04,2.25,1.3.83.26,1.65.39,2.45.39s1.54-.12,2.29-.35c.76-.23,1.45-.54,2.1-.94.54-.32,1.04-.66,1.51-1.02s.84-.68,1.14-.94h.66v5.9c-.62.28-1.21.54-1.77.78-.56.24-1.15.45-1.77.63-.81.23-1.56.41-2.27.53-.71.12-1.68.18-2.91.18Z"/>
    <path class="cls-1" d="m195.04,44.37h-14.44v-4.37h4.04v-15.92h-4.04v-4.37h14.44v4.37h-4.04v15.92h4.04v4.37Z"/>
    <path class="cls-1" d="m224.2,32.04c0,3.93-1.13,7.05-3.38,9.37-2.25,2.31-5.37,3.47-9.34,3.47s-7.07-1.16-9.32-3.47c-2.25-2.31-3.38-5.44-3.38-9.37s1.13-7.1,3.38-9.4c2.25-2.3,5.36-3.45,9.32-3.45s7.06,1.15,9.32,3.45c2.26,2.3,3.4,5.44,3.4,9.4Zm-8.43,6.24c.62-.75,1.08-1.64,1.37-2.66.3-1.02.45-2.22.45-3.6,0-1.48-.17-2.74-.51-3.78-.34-1.04-.79-1.88-1.34-2.52-.56-.66-1.21-1.14-1.95-1.44-.73-.3-1.5-.45-2.29-.45s-1.57.14-2.28.43c-.71.29-1.37.76-1.96,1.42-.55.62-1,1.47-1.35,2.56-.35,1.09-.52,2.35-.52,3.78s.17,2.72.51,3.75c.34,1.03.78,1.87,1.33,2.53.55.65,1.2,1.13,1.94,1.44.74.31,1.52.46,2.34.46s1.6-.16,2.34-.47c.74-.31,1.39-.8,1.94-1.47Z"/>
  </g>
</svg>