<?xml version="1.0" encoding="utf-8"?>
<!-- Generator: Adobe Illustrator 27.8.0, SVG Export Plug-In . SVG Version: 6.00 Build 0)  -->
<svg version="1.1" id="Capa_1" xmlns="http://www.w3.org/2000/svg" xmlns:xlink="http://www.w3.org/1999/xlink" x="0px" y="0px"
	 viewBox="0 0 320.39 182.31" style="enable-background:new 0 0 320.39 182.31;" xml:space="preserve">
<style type="text/css">
	.st0{fill:#FFFFFF;}
	.st1{fill:#E41313;}
	.st2{fill:#020203;}
	.st3{fill:#DD0C15;}
	.st4{fill:none;}
</style>
<g>
	<path class="st0" d="M26.88,132.8c-0.12,0.33-5.2-2.05-8.61-0.1c-0.46,0.26-1.73,1-1.77,2.04c-0.04,0.86,0.75,1.51,0.42,2.16
		c-0.14,0.26-0.44,0.47-0.71,0.5c-0.94,0.08-1.94-2.11-2.62-3.85c-2.2-5.71-4.06-10.48-1.97-15.35c1.18-2.76,3.27-4.74,3.84-4.46
		c0.55,0.26-0.78,2.52,0,5.47c0.65,2.54,2.43,3.98,2.12,4.28c-0.24,0.22-1.4-0.4-2.27-1.25c-1.5-1.45-1.65-3.05-2.23-3.03
		c-0.46,0.03-0.76,1.01-0.94,1.62c-0.94,3.2-0.1,5.89,0.54,7.87c0.35,1.05,0.71,1.86,1.37,2.01c0.58,0.14,1.15-0.3,1.32-0.43
		C17.9,128.49,27.04,132.37,26.88,132.8z"/>
	<path class="st0" d="M34.35,131.43c-1.04,1.05-4.68-1.05-5.76-1.66c-4.16-2.38-7.46-6-7-6.6c0.4-0.53,3.02,2.54,8.44,3.59
		c1.32,0.25,2.9,0.42,3.85,1.68C34.6,129.36,34.93,130.84,34.35,131.43z"/>
	<path class="st0" d="M34.7,141.47c-0.64,0.44-1.66-0.57-4.18-1.73c-3.63-1.69-5.61-1.51-5.61-1.98c0.03-0.9,7.15-2.88,9.45,0.04
		C35.28,138.99,35.41,140.99,34.7,141.47z"/>
	<path class="st0" d="M39.15,148.93c-0.65,0.65-2.72-1.93-6.55-2.15c-3.67-0.19-6.14,1.94-6.44,1.44c-0.29-0.47,1.77-2.72,4.56-3.78
		c1.23-0.47,3.53-1.36,5.68-0.22C38.65,145.41,39.76,148.32,39.15,148.93z"/>
	<path class="st0" d="M42.03,87.98c-1.19,2.04-4.34,1.37-7.88,2.08c-8.63,1.75-12.67,10.24-13.59,9.55c-0.76-0.57,1.58-6.49,6.54-11
		c4.35-3.96,11.53-7.55,14.22-5.29C42.53,84.35,42.85,86.61,42.03,87.98z"/>
	<path class="st0" d="M42.92,97.53c-1.87,2.41-5.29,0.9-9.4,2.08c-8.43,2.44-11.13,13.79-12.28,13.29
		c-0.86-0.36-0.19-6.93,3.95-12.58c5.2-7.11,14.9-11.34,17.72-8.85C44.34,92.71,44.26,95.81,42.92,97.53z"/>
	<path class="st0" d="M44.72,144.44c-1.59-0.11-2.65-1.68-3.44-3.06c-0.36-0.64-0.73-1.3-0.78-2.02c-0.04-0.54,0.1-1.07,0.29-1.57
		c0.51-1.34,1.44-2.52,2.59-2.76C43.23,138.22,43.68,141.43,44.72,144.44z"/>
	<path class="st0" d="M44.88,149.04c-0.11,0.22-1.9-0.28-3.49-1.19c-1.08-0.62-3.27-1.87-3.6-4.02c-0.1-0.62-0.08-1.55,0.25-1.66
		c0.51-0.17,1.14,1.83,3.05,3.85C43.04,148.1,45.01,148.79,44.88,149.04z"/>
	<path class="st0" d="M49.29,152.7c-0.01,0.26-1.84,0.48-3.67,0.26c-1.25-0.15-3.74-0.46-4.89-2.3c-0.33-0.54-0.67-1.4-0.4-1.62
		c0.4-0.36,1.75,1.23,4.31,2.37C47.23,152.54,49.29,152.42,49.29,152.7z"/>
	<path class="st0" d="M48.26,107.3c-0.44,0.85-2.24,0.76-4.88,0.61c-3.6-0.19-4.77-0.75-6.19-0.82c-6.06-0.3-10.61,8.34-11.14,7.94
		c-0.42-0.3,1.73-5.83,7.05-9.51c0.82-0.55,7.69-5.17,12.36-2.49C47.31,104.1,48.78,106.28,48.26,107.3z"/>
	<path class="st0" d="M52.02,142.28c-2.94-0.06-5.71-2.3-6.36-5.17c-0.36-1.52-0.15-3.12,0.04-4.67c0.12-0.97,0.26-1.97,0.76-2.81
		c0.5-0.83,1.45-1.48,2.38-1.07C47.49,133.27,48.74,138.65,52.02,142.28z"/>
	<path class="st0" d="M53.93,155.77c0,0.21-1.33,0.67-2.74,0.8c-0.96,0.08-2.9,0.26-4.06-0.94c-0.33-0.35-0.73-0.94-0.58-1.15
		c0.25-0.33,1.54,0.65,3.64,1.08C52.35,156,53.89,155.57,53.93,155.77z"/>
	<path class="st0" d="M49.43,121.41c-2.59,3.21-2.73,4.59-4.18,4.82c-2.06,0.35-4.17-2.02-5.9-3.96c-2.66-2.99-3.31-5.35-4.12-5.18
		c-0.85,0.18-1.11,2.99-0.93,5.42c0.54,7.07,4.88,11.42,4,12.14c-0.75,0.61-3.98-1.84-3.8-2.23c0.1-0.21,1.09,0.39,1.51,0
		c0.75-0.71-1.62-3.62-3.42-8.83c-0.65-1.83-0.98-2.79-1.04-4.09c-0.03-0.61-0.21-4.31,1.97-6.71c2.77-3.02,7.73-2.18,11.68-1.5
		c1.4,0.24,8.81,1.51,9.1,4.35C54.44,117.07,52.66,117.4,49.43,121.41z"/>
	<path class="st0" d="M61.11,156.19c0.11,0.17-0.91,1.15-2.15,1.87c-0.83,0.48-2.51,1.47-4.07,0.86c-0.46-0.18-1.07-0.55-1.01-0.82
		c0.08-0.4,1.66-0.04,3.76-0.54C59.78,157.05,61,156.01,61.11,156.19z"/>
	<path class="st0" d="M64.87,104.81c-0.17,0.53-2.11-0.47-5.71,0.21c-3.77,0.71-5.46,2.52-7.05,1.55c-1.07-0.64-1.39-2.08-1.43-2.27
		c-0.06-0.28-0.32-1.58,0.39-2.47c0.67-0.85,1.93-0.91,3.24-0.83C59.29,101.3,65.14,103.91,64.87,104.81z"/>
	<path class="st0" d="M66.14,150.65c-0.26,0.49-0.85,0.71-1.39,0.83c-4.2,1.01-8.65-0.42-12.4-2.55c-1.23-0.71-2.45-1.51-3.34-2.63
		c-0.39-0.49-1.69-2.47-1.11-3.09c0.51-0.54,1.72,1.26,2.2,1.62C54.74,148.21,60.53,149.47,66.14,150.65z"/>
	<path class="st0" d="M68.23,117.81c-0.51,1.15-3.08,0.32-5.92,0.93c-5.15,1.14-7.52,6.25-8.01,5.89c-0.43-0.3,1.09-4.31,4.67-6.97
		c2.31-1.73,6.42-3.59,8.38-2.02C68.01,116.16,68.52,117.14,68.23,117.81z"/>
	<path class="st0" d="M72.68,7.71v130.38c-0.29-0.33-0.71-0.85-1.45-1.19c-0.9-0.43-1.64-0.33-2.23-0.33c-0.43,0-0.8-0.04-1.12-0.37
		c-0.55-0.57-0.6-1.62-0.18-2.36c0.3-0.54,0.82-0.8,1.3-0.93v-2.11c-1.98,0.29-4.68,0.4-7.51,1.73c-4.61,2.18-6.51,6.12-7.08,5.72
		c-0.47-0.35,0.75-3.27,2.55-5.79c3.27-4.61,8.58-8.09,12.04-7.58v-1.27c-1.11,0.61-2.79,0.44-4.07,0.53
		c-6.72,0.4-10.55,7.95-11.21,7.43c-0.73-0.58,3.3-9.91,10.66-11.86c0.86-0.24,3.2-0.85,4.63-0.19v-5.47
		c-4.37-0.47-7.23,1-7.91-0.36c-1.05-2.05,4.74-6.91,7.14-8.92c0.26-0.22,0.53-0.44,0.78-0.65v-3.05c-0.73,0.14-3.91-2.56-9.73-2.99
		c-4.42-0.32-8.4,0.82-10.67-1.16c-0.32-0.28-1.16-1.04-1.41-2.27c-0.18-0.89,0-1.9,0.39-2.47c1.47-2.15,7.7-0.21,8.67,0.1
		c6.58,2.05,11.76,6.39,12.75,8.11v-3.17c-0.91-0.68-4.91-7.09-11.4-7.54c-2.19-0.14-5.22,0.35-8.81-1.03
		c-1.14-0.44-2.36-1.08-2.73-2.27c-0.26-0.83-0.1-1.87,0.37-2.47c1.58-1.97,7.25-0.12,10.35,1.3C63.83,88.44,68.07,94.4,69,96.49
		V80.25c-1.97-2.05-5-4.56-8.97-4.81c-2.19-0.15-5.22,0.33-8.81-1.04c-1.14-0.44-2.36-1.08-2.73-2.27c-0.26-0.83-0.1-1.87,0.37-2.47
		c1.58-1.97,7.25-0.12,10.35,1.3c4.39,2.02,7.69,5.1,9.78,7.64v-9.69c-1.36-0.69-2.9-1.18-4.57-1.29c-2.31-0.15-5.54,0.36-9.35-1.09
		c-1.21-0.47-2.49-1.15-2.9-2.41c-0.29-0.89-0.11-1.98,0.4-2.63c1.66-2.06,7.69-0.11,10.99,1.4c2.04,0.94,3.85,2.09,5.43,3.31v-7.3
		c-1.77,0-3.84-0.12-6.14-1.01c-1.14-0.43-2.36-1.07-2.74-2.26c-0.25-0.83-0.1-1.87,0.39-2.47c1.3-1.61,5.36-0.65,8.49,0.53v-9.35
		c-2.43-0.14-6.35-0.14-10.77,1.25c-5.35,1.7-8.49,4.5-8.85,4.5h-0.01c-1.43,0.98-3.26,2.38-5.09,4.25
		c0.53-0.33,1.08-0.65,1.68-0.96c4.34-2.22,8.98-2.52,10.67-1.08c0.17,0.15,0.67,0.58,0.75,1.23c0.14,1.15-1.16,2.09-1.4,2.26
		c-1.25,0.85-2.66,0.62-3.03,0.54c-1.93-0.43-4.63-0.75-7.62-0.01c-1.66,0.42-2.99,1.05-3.94,1.54c-0.91,1.29-1.75,2.72-2.43,4.31
		c2.38-2.09,5.7-2.69,8.3-2.09c0.9,0.21,2.91,0.68,3.19,2.02c0.22,1.14-0.89,2.56-2.08,2.88c-0.51,0.12-0.94,0.03-1.11,0
		c0,0-2.18-0.46-5.76,0.39c-2.16,0.5-3.48,1.98-4.32,2.94c-0.06,0.39-0.11,0.78-0.15,1.16c0.76-0.53,1.95-0.69,3.91-0.97
		c1.97-0.26,3.05-0.4,3.95,0.3c0.67,0.53,1.21,1.5,1.05,2.48c-0.22,1.33-1.64,1.98-2.06,2.18c-1.27,0.58-2.12,0.26-4.55,0.39
		c-1,0.04-1.83,0.15-2.45,0.24c0.06,1.22,0.18,2.33,0.32,3.28c0.73-0.69,1.34-1.33,1.84-1.87c-0.46,0.82-1.01,1.73-1.72,2.72
		c0.3,1.79,0.62,2.85,0.53,2.87c-0.08,0-0.5-0.86-0.94-2.3c-1.21,1.59-2.77,3.27-4.79,4.79c-1.65,1.23-2.01,1.16-4.02,2.51
		c-2.08,1.4-6.78,4.53-9.49,9.55c-2.69,4.92-2.99,10.77-1.87,11.21c1.09,0.43,3.73-4.24,4.21-3.95c0.36,0.22-1.43,2.87-2.34,6.96
		c-0.94,4.16-0.3,6.75-0.83,6.86c-0.71,0.12-2.7-4.25-3.12-9.17c-0.14-1.65-0.53-7.14,2.54-12.76c2.99-5.5,7.93-8.66,10.79-10.5
		c1.48-0.94,2.72-1.58,4.84-3.16c1.5-1.12,2.77-2.23,3.84-3.21c-0.62-2.31-1.19-5.72-0.85-9.51c0-0.08,0-0.17,0.01-0.25
		c0-0.1,0.01-0.18,0.03-0.28c0.25-2.36,0.85-4.84,2-7.28c3.28-6.98,9.7-10.68,12.65-11.9l0.01-0.01c1.58-1.5,4.67-3.81,8.7-4.92
		c3.85-1.05,7.48-0.75,9.8-0.24v-2.08c-1.55-1.86-3.56-4.18-6.25-6.61c-0.01-0.01-0.03-0.03-0.06-0.04
		c-0.15-0.11-0.32-0.22-0.49-0.35c-0.78-0.57-1.43-1.15-1.94-1.69c-0.69-0.54-1.43-1.09-2.22-1.64c-0.8-0.55-1.61-1.11-2.41-1.65
		c-0.06,0.11-0.1,0.21-0.15,0.32c-0.36-0.39-0.79-0.8-1.33-1.25h-0.01c0,0,0,0-0.01-0.01c-1.83-1.08-3.67-1.98-5.57-2.38v0.01
		c-0.07-0.01-0.15-0.04-0.24-0.06c-0.03,0-0.06-0.01-0.08-0.01H48.2c-0.21-0.04-0.4-0.07-0.61-0.1c-0.36-0.04-0.75-0.07-1.18-0.07
		c-0.17,0-0.33,0.01-0.51,0.03c-0.17,0-0.33,0.01-0.51,0.04c-0.01,0-0.01,0-0.03,0c-0.15,0.01-0.3,0.04-0.46,0.07
		c-0.33,0.06-0.64,0.12-0.9,0.19c-0.86,0.25-1.73,0.62-2.56,1.11c-0.4,0.24-0.86,0.54-1.34,0.91c-0.17,0.12-0.32,0.26-0.49,0.4
		c-0.19,0.17-0.37,0.35-0.54,0.51c-0.1,0.08-0.18,0.17-0.25,0.25c-0.4,0.42-0.73,0.82-1,1.18c-0.76,1.04-1.34,2.22-1.65,3.46
		c-0.36,1.5-0.25,2.83,0.11,4.09v0.01c0.06,0.01,0.1,0.04,0.15,0.06c0.51,1.3,1.03,2.62,1.55,3.92c0.3,0.62,0.6,1.25,0.86,1.88
		c0.07,0.18,0.14,0.37,0.21,0.55c0.28,0.73,0.5,1.51,0.6,2.3l0.01,0.01c0.55,0.44,0.37,2.55-0.62,4.7c-0.01,0.03-0.03,0.06-0.04,0.1
		c-0.57,1.43-1.69,3.42-3.8,4.35c-0.4,0.17-0.8,0.29-1.19,0.37c-0.03,0.01-0.06,0.01-0.08,0.01c-4.67,1.25-9.74-3.3-9.33-4.63
		c-0.35-0.55-0.67-1.14-0.93-1.77h-0.01c0-0.01-0.01-0.04-0.01-0.06c-0.61-1.36-1.05-2.9-1.36-4.52v-0.01
		c-0.25-1.33-0.39-2.72-0.44-4.14c-0.01-0.28-0.03-0.57-0.01-0.87c0-0.26,0.01-0.53,0.01-0.8c0-0.12,0-0.26,0.01-0.4
		c0-0.15,0.01-0.32,0.03-0.47c0.01-0.03,0.01-0.07,0.01-0.1c0-0.12,0-0.24,0.01-0.36c0.01-0.32,0.04-0.65,0.07-0.98
		c0.04-0.4,0.1-0.82,0.15-1.25c0.15-1.09,0.36-2.11,0.58-3.02c0-0.04,0.01-0.1,0.03-0.14c0.4-1.61,0.94-3.19,1.61-4.68
		c0.04-0.1,0.08-0.19,0.14-0.29c0.03-0.06,0.04-0.11,0.08-0.17c0.28-0.68,0.67-1.41,1.12-2.19c0.72-1.19,1.47-2.16,2.15-2.94
		c0.73-0.93,1.57-1.91,2.55-2.9c0.58-0.6,1.25-1.21,2.01-1.83c0.33-0.28,0.67-0.54,1-0.78c0.17-0.12,0.32-0.24,0.47-0.36
		c0.17-0.12,0.32-0.24,0.47-0.33c1.76-1.18,3.76-2.2,6.01-2.9c0.43-0.18,0.93-0.36,1.51-0.51c0.91-0.24,1.73-0.3,2.38-0.3
		c2.23-0.25,4.35-0.14,6.36,0.24c0.06,0.01,0.12,0.03,0.18,0.04c0.01,0,0.03,0,0.04,0.01c0.67,0.11,1.39,0.28,2.16,0.51
		c1.27,0.39,2.36,0.87,3.24,1.36c0.07,0.03,0.15,0.07,0.22,0.11c1.94,1,3.73,2.23,5.36,3.64c0.11,0.1,0.24,0.18,0.36,0.29
		c0.07,0.04,0.12,0.08,0.19,0.14c0.65,0.53,1.25,1.05,1.79,1.55c-0.04,0.03-0.08,0.04-0.14,0.07c1.95,1.98,3.62,4.14,4.97,6.28v-17
		H9.44v153.04H23.7c-0.54-0.54-0.93-1.03-1.21-1.37c-0.43-0.55-1.45-1.95-2.65-6.37c-1.94-7.26-0.43-8.13-2.26-13.32
		c-0.36-1.05-1.11-2.94-0.54-3.34c0.37-0.28,1.16,0.19,1.75,0.61c0.42,1.15,1.01,2.95,1.52,5.21c1.44,6.28,0.51,7.82,1.94,11.53
		c0.28,0.72,2.08,5.39,5.24,7.05c0.62,0.32,1.29,0.54,2.01,0.58c0.89,0.04,1.91-0.15,2.81-0.58c0.82-0.4,1.55-0.98,1.97-1.76
		c1.22-2.18-0.43-4.96,0.6-5.53c0.51-0.29,1.34,0.22,1.79,0.62c1.39,1.26,0.75,4.07,0,5.61c-0.19,0.37-0.42,0.73-0.65,1.05
		c-0.67,0.91-1.5,1.54-2.15,1.95c0.06,0.03,0.11,0.06,0.14,0.08c1.87,1.14,5.56,0.76,7.46-1.05c0.3-0.3,0.57-0.64,0.78-0.98
		c0.79-1.29,0.94-2.72,0.97-3.09c0.14-1.7-0.43-2.97,0.03-3.21c0.37-0.21,1.16,0.32,1.59,0.97c1.15,1.77-0.46,4.6-0.91,5.33
		c-0.04,0.07-0.07,0.12-0.08,0.15c-0.07,0.1-0.18,0.26-0.32,0.46c0.28-0.01,0.57-0.04,0.96-0.18c0.32-0.12,0.58-0.28,0.82-0.43
		c0.54-0.36,0.87-0.76,1-0.93c1.66-2.02,0.54-4.68,1.48-5.04c0.58-0.21,1.66,0.6,1.94,1.51c0.33,1.05-0.53,1.8-0.14,2.31
		c0.43,0.54,1.57-0.19,3.26,0.14c1.45,0.28,2.76,1.26,2.65,1.7c-0.1,0.42-1.29,0.03-2.94,0.3c-0.3,0.04-0.62,0.11-0.96,0.21
		c-1.76,0.54-2.76,1.79-3.64,2.54H6.44V7.71H72.68z"/>
	<path class="st0" d="M72.68,158.28v3.69c-1.01-0.24-1.83-0.28-2.2-0.29c-0.54-0.03-1.03,0-1.48,0.04c-1.01,0.12-1.9,0.39-2.85,0.67
		c-0.67,0.19-1.29,0.4-1.87,0.64c-3.62,1.4-5.53,3.21-6.42,2.48c-0.47-0.39-0.35-1.23-0.33-1.32c0.06-0.37,0.25-0.78,0.57-1.16
		c1.58-2.02,6.19-3.92,10.91-3.67v-0.15c-3.42-0.55-6.15-2.54-6.03-3.05c0.03-0.08,0.14-0.14,0.29-0.18
		c1.7-0.47,3.44,1.12,5.14,1.86c0.19,0.08,0.39,0.15,0.6,0.21C70.19,158.42,71.46,158.46,72.68,158.28z"/>
	<g>
		<g>
			<g>
				<path class="st1" d="M70.62,158.77v1.71l7.06,3.74l0-8.05c-0.33,0.47-1.32,1.77-3.18,2.43
					C72.72,159.24,71.19,158.92,70.62,158.77z"/>
				<path class="st2" d="M52.02,142.28c-2.94-0.06-5.71-2.3-6.36-5.17c-0.36-1.52-0.15-3.12,0.04-4.67
					c0.12-0.97,0.26-1.97,0.76-2.81c0.5-0.83,1.45-1.48,2.38-1.07C47.49,133.27,48.74,138.65,52.02,142.28z"/>
				<path class="st2" d="M44.72,144.44c-1.59-0.11-2.65-1.68-3.44-3.06c-0.36-0.64-0.73-1.3-0.78-2.02
					c-0.04-0.54,0.1-1.07,0.29-1.57c0.51-1.34,1.44-2.52,2.59-2.76C43.23,138.22,43.68,141.43,44.72,144.44z"/>
				<path class="st2" d="M66.14,150.65c-0.26,0.49-0.85,0.71-1.39,0.83c-4.2,1.01-8.65-0.42-12.4-2.55
					c-1.23-0.71-2.45-1.51-3.34-2.63c-0.39-0.49-1.69-2.47-1.11-3.09c0.51-0.54,1.72,1.26,2.2,1.62
					C54.74,148.21,60.53,149.47,66.14,150.65z"/>
				<path class="st2" d="M72.04,129.21c-0.42,1.04-1.52,1.36-3.05,1.59c-1.98,0.29-4.68,0.4-7.51,1.73
					c-4.61,2.18-6.51,6.12-7.08,5.72c-0.47-0.35,0.75-3.27,2.55-5.79c3.27-4.61,8.58-8.09,12.04-7.58c0.26,0.04,0.51,0.1,0.75,0.18
					c0.42,0.15,1.62,0.58,2.18,1.72C72.32,127.59,72.29,128.57,72.04,129.21z"/>
				<path class="st2" d="M69.74,122.96c-0.21,0.28-0.46,0.5-0.75,0.65c-1.11,0.61-2.79,0.44-4.07,0.53
					c-6.72,0.4-10.55,7.95-11.21,7.43c-0.73-0.58,3.3-9.91,10.66-11.86c0.86-0.24,3.2-0.85,4.63-0.19c0.29,0.14,0.55,0.32,0.75,0.58
					C70.33,120.85,70.33,122.14,69.74,122.96z"/>
				<path class="st2" d="M68.23,117.81c-0.51,1.15-3.08,0.32-5.92,0.93c-5.15,1.14-7.52,6.25-8.01,5.89
					c-0.43-0.3,1.09-4.31,4.67-6.97c2.31-1.73,6.42-3.59,8.38-2.02C68.01,116.16,68.52,117.14,68.23,117.81z"/>
				<path class="st2" d="M87.59,129.82c-0.26,0.55-3.2-1.79-8.18-1.33c-1.59,0.15-3.26,0.57-4.74-0.42
					c-0.21-0.12-1.47-0.98-1.39-2.06c0.08-0.96,1.18-1.57,1.51-1.75C78.63,122.16,88.05,128.84,87.59,129.82z"/>
				<path class="st2" d="M85.54,126.16c-0.39,0.43-2.15-1.82-5.96-2.62c-3.27-0.69-5.36,0.24-6.42-1.18
					c-0.3-0.4-0.49-0.96-0.49-1.48c0-0.35,0.08-0.68,0.25-0.96c1-1.51,5.02-0.89,7.76,0.6C84.02,122.32,86,125.66,85.54,126.16z"/>
				<path class="st2" d="M78.83,118.91c-0.08,0.21-1.37-0.55-3.71-0.46c-1.22,0.04-1.9,0.3-2.44,0.07
					c-0.08-0.04-0.17-0.08-0.25-0.15c-0.65-0.51-0.89-1.75-0.43-2.22c0.15-0.17,0.39-0.24,0.68-0.25
					C74.59,115.81,78.97,118.53,78.83,118.91z"/>
				<path class="st2" d="M49.43,121.41c-2.59,3.21-2.73,4.59-4.18,4.82c-2.06,0.35-4.17-2.02-5.9-3.96
					c-2.66-2.99-3.31-5.35-4.12-5.18c-0.85,0.18-1.11,2.99-0.93,5.42c0.54,7.07,4.88,11.42,4,12.14c-0.75,0.61-3.98-1.84-3.8-2.23
					c0.1-0.21,1.09,0.39,1.51,0c0.75-0.71-1.62-3.62-3.42-8.83c-0.65-1.83-0.98-2.79-1.04-4.09c-0.03-0.61-0.21-4.31,1.97-6.71
					c2.77-3.02,7.73-2.18,11.68-1.5c1.4,0.24,8.81,1.51,9.1,4.35C54.44,117.07,52.66,117.4,49.43,121.41z"/>
				<path class="st2" d="M86.32,119.54c-0.01,0.87-0.17,1.45-0.48,1.57c-0.1,0.03-0.19,0.01-0.26,0c-1.36-0.32-0.86-4.6-1.87-8.67
					c-1.22-4.95-4.31-8.06-4.56-7.94c-0.24,0.14,2.06,3.52,2.02,8.36c-0.01,1.68-0.04,3.82-1.3,4.59c-0.64,0.37-1.33,0.25-2.18-0.14
					c-1.22-0.54-2.79-1.61-5-2.4c-0.11-0.04-0.24-0.08-0.35-0.12c-1.19-0.4-2.31-0.62-3.34-0.73c-4.37-0.47-7.23,1-7.91-0.36
					c-1.05-2.05,4.74-6.91,7.14-8.92c0.26-0.22,0.53-0.44,0.78-0.65c1.54-1.27,2.66-2.18,3.69-2.69c0.68-0.35,1.32-0.51,2-0.53
					c1.07-0.03,2.08,0.29,3.01,0.82c3.81,2.16,6.31,7.93,6.75,8.97c1.04,2.49,1.69,5.47,1.86,7.62
					C86.33,118.75,86.34,119.16,86.32,119.54z"/>
				<path class="st2" d="M72.22,144.92c-0.06,0.03-0.19-0.19-0.42-0.6c-0.01-0.03-0.04-0.06-0.07-0.1
					c-0.51-0.91-1.43-2.58-2.74-3.91c-0.98-1.01-2.19-1.84-3.62-2.04c-2.92-0.39-4.52-0.4-4.52-0.4h-0.75c-0.1,0-0.19,0-0.28-0.01
					c-0.73-0.01-1.33-0.1-1.45-0.43c-0.15-0.36,0.32-0.86,0.39-0.93c1.37-1.46,6.03-0.6,9.19,1.77c0.37,0.28,0.72,0.58,1.04,0.89
					C71.63,141.68,72.4,144.81,72.22,144.92z"/>
				<path class="st2" d="M71.96,144.22c0,0.01-0.06,0.06-0.15,0.11c-0.37,0.22-1.43,0.68-2.81,0.93c-1.4,0.26-3.15,0.3-4.86-0.33
					c-1.91-0.72-4.23-2.48-4.55-4.84c-0.11-0.85,0.04-1.65,0.25-2.22c0.19-0.6,0.44-0.97,0.48-0.97c0.04,0.01-0.11,0.39-0.21,0.98
					c-0.1,0.58-0.14,1.37,0.1,2.2c0.44,1.55,1.69,2.47,2.2,2.85c1.57,1.15,3.17,1.34,4.6,1.5c0.72,0.08,1.4,0.1,1.98,0.1
					c1.36-0.03,2.33-0.24,2.74-0.3C71.88,144.2,71.96,144.2,71.96,144.22z"/>
				<path class="st2" d="M86.61,132.47c0.03,0.04-0.21,0.19-0.6,0.47c-0.04,0.04-0.1,0.07-0.15,0.12c-0.94,0.68-2.58,2.04-3.4,4.24
					c-0.8,2.16-0.51,4.24-0.24,5.49c0,0.03,0,0.04,0.01,0.07c0.15,0.69,0.29,1.11,0.21,1.12c-0.22,0.06-2.22-3.34-1.08-6.69
					C82.55,133.78,86.48,132.3,86.61,132.47z"/>
				<path class="st2" d="M86.61,138.95c-0.29,0.93-0.68,1.51-0.79,1.66c-1.11,1.54-2.79,2.06-3.58,2.24
					c-0.08,0.01-0.15,0.03-0.21,0.04c0.07-0.04,0.12-0.07,0.19-0.11c1.18-0.71,2.47-1.76,3.24-3.37c1.33-2.72,0.48-5.56,0.39-6.36
					c-0.03-0.15-0.03-0.22,0.01-0.24c0.03,0,0.08,0.03,0.14,0.11C86.44,133.52,87.44,136.25,86.61,138.95z"/>
				<path class="st2" d="M73.19,138.42c-0.15,0.07-0.3-0.08-0.51-0.33c-0.29-0.33-0.71-0.85-1.45-1.19
					c-0.9-0.43-1.64-0.33-2.23-0.33c-0.43,0-0.8-0.04-1.12-0.37c-0.55-0.57-0.6-1.62-0.18-2.36c0.3-0.54,0.82-0.8,1.3-0.93
					c0.58-0.15,1.12-0.1,1.18-0.08c1.41,0.17,2.18,1.41,2.51,1.98c0.01,0.03,0.03,0.04,0.04,0.07
					C73.58,136.35,73.66,138.23,73.19,138.42z"/>
				<path class="st2" d="M81.55,131.81c-0.01,0.53-0.46,0.86-0.8,1.22c-1.61,1.65-1.14,3.94-1.58,3.96
					c-0.71,0.06-2.48-5.36-0.76-6.55c0.53-0.37,1.41-0.36,2.05-0.06C80.97,130.64,81.56,131.19,81.55,131.81z"/>
				<path class="st2" d="M79.97,151.84c0,0.01,0,0.01,0,0.03c0.01,0.21,0.01,0.42,0,0.6c-0.03,0.43-0.11,0.85-0.26,1.26
					c-0.36,1.05-1.08,2.05-2.02,2.88c-0.58,0.54-1.25,1.01-1.95,1.4c-0.39,0.22-0.8,0.43-1.23,0.6c-0.6,0.25-1.21,0.43-1.82,0.55
					c-0.14,0.03-0.29,0.06-0.43,0.08c-0.54,0.08-1.08,0.12-1.62,0.11c-0.55-0.01-1.11-0.06-1.64-0.15
					c-3.42-0.55-6.15-2.54-6.03-3.05c0.03-0.08,0.14-0.14,0.29-0.18c1.7-0.47,3.44,1.12,5.14,1.86c0.19,0.08,0.39,0.15,0.6,0.21
					c1.19,0.39,2.47,0.43,3.69,0.25c1.66-0.25,3.24-0.94,4.38-1.84c1.03-0.8,2.09-2.11,2.49-3.35c0,0,0-0.01,0-0.03
					c0.19-0.57,0.24-1.09,0.08-1.59c0-0.01,0-0.01,0-0.01c-0.01-0.04-0.03-0.06-0.04-0.1c-0.55-1.47-2.84-1.84-2.69-2.47
					c0.07-0.32,0.78-0.54,1.32-0.39c0.83,0.22,1.37,1.29,1.61,2.4c0.04,0.1,0.06,0.18,0.07,0.28c0,0.06,0,0.11,0.01,0.17
					C79.94,151.51,79.96,151.67,79.97,151.84z"/>
				<path class="st2" d="M82.69,148.1c0.14,0.57-1.79,0.82-2.7,2.47c-0.03,0.04-0.06,0.1-0.07,0.15c0.04-1.36,0.53-2.73,1.44-3.01
					C81.91,147.54,82.6,147.78,82.69,148.1z"/>
				<path class="st2" d="M90.35,148.65c-3.64,5.18-4.53,6.17-6.18,6.79c-0.67,0.26-2.04,0.79-3.15,0.17
					c-0.61-0.35-0.89-0.89-1.05-1.19c-0.11-0.22-0.21-0.44-0.26-0.69c-0.07-0.21-0.12-0.42-0.15-0.64c0,0,0-0.01,0-0.03
					c-0.08-0.53-0.06-1.08,0.08-1.59c0-0.01,0-0.01,0-0.01c0.06-0.19,0.11-0.37,0.19-0.55c0.01-0.07,0.04-0.12,0.08-0.18
					c-0.01,0.15-0.01,0.3-0.01,0.46c0,0.06,0,0.11,0.01,0.17c0.03,0.17,0.04,0.33,0.06,0.5c0,0.01,0,0.01,0,0.03
					c0.01,0.17,0.5,2.97,2.06,3.33c2.52,0.57,7.39-5.49,8.88-11.06c0.1-0.35,0.22-0.86,0.37-1.37c0.26-0.91,0.61-1.82,1.03-1.82
					c0.11,0,0.21,0.07,0.29,0.18c0.26,0.28,0.44,0.83,0.54,1.19C93.54,144,92.59,145.45,90.35,148.65z"/>
				<path class="st2" d="M48.26,107.3c-0.44,0.85-2.24,0.76-4.88,0.61c-3.6-0.19-4.77-0.75-6.19-0.82
					c-6.06-0.3-10.61,8.34-11.14,7.94c-0.42-0.3,1.73-5.83,7.05-9.51c0.82-0.55,7.69-5.17,12.36-2.49
					C47.31,104.1,48.78,106.28,48.26,107.3z"/>
				<path class="st2" d="M42.92,97.53c-1.87,2.41-5.29,0.9-9.4,2.08c-8.43,2.44-11.13,13.79-12.28,13.29
					c-0.86-0.36-0.19-6.93,3.95-12.58c5.2-7.11,14.9-11.34,17.72-8.85C44.34,92.71,44.26,95.81,42.92,97.53z"/>
				<path class="st2" d="M42.03,87.98c-1.19,2.04-4.34,1.37-7.88,2.08c-8.63,1.75-12.67,10.24-13.59,9.55
					c-0.76-0.57,1.58-6.49,6.54-11c4.35-3.96,11.53-7.55,14.22-5.29C42.53,84.35,42.85,86.61,42.03,87.98z"/>
				<path class="st2" d="M64.87,104.81c-0.17,0.53-2.11-0.47-5.71,0.21c-3.77,0.71-5.46,2.52-7.05,1.55
					c-1.07-0.64-1.39-2.08-1.43-2.27c-0.06-0.28-0.32-1.58,0.39-2.47c0.67-0.85,1.93-0.91,3.24-0.83
					C59.29,101.3,65.14,103.91,64.87,104.81z"/>
				<path class="st2" d="M69.12,100.97c-0.03,0.04-0.07,0.07-0.12,0.08c-0.73,0.14-3.91-2.56-9.73-2.99
					c-4.42-0.32-8.4,0.82-10.67-1.16c-0.32-0.28-1.16-1.04-1.41-2.27c-0.18-0.89,0-1.9,0.39-2.47c1.47-2.15,7.7-0.21,8.67,0.1
					c6.58,2.05,11.76,6.39,12.75,8.11C69.15,100.64,69.19,100.84,69.12,100.97z"/>
				<path class="st2" d="M69.16,97.23c-0.04,0.03-0.1,0.01-0.17-0.04c-0.91-0.68-4.91-7.09-11.4-7.54
					c-2.19-0.14-5.22,0.35-8.81-1.03c-1.14-0.44-2.36-1.08-2.73-2.27c-0.26-0.83-0.1-1.87,0.37-2.47c1.58-1.97,7.25-0.12,10.35,1.3
					C63.83,88.44,68.07,94.4,69,96.49C69.18,96.89,69.23,97.16,69.16,97.23z"/>
				<path class="st2" d="M69,78.6v1.65c-1.97-2.05-5-4.56-8.97-4.81c-2.19-0.15-5.22,0.33-8.81-1.04c-1.14-0.44-2.36-1.08-2.73-2.27
					c-0.26-0.83-0.1-1.87,0.37-2.47c1.58-1.97,7.25-0.12,10.35,1.3C63.6,72.99,66.9,76.07,69,78.6z"/>
				<path class="st2" d="M69,53.69v5.21c-1.77,0-3.84-0.12-6.14-1.01c-1.14-0.43-2.36-1.07-2.74-2.26c-0.25-0.83-0.1-1.87,0.39-2.47
					C61.8,51.55,65.86,52.51,69,53.69z"/>
				<path class="st2" d="M69,66.2v2.72c-1.36-0.69-2.9-1.18-4.57-1.29c-2.31-0.15-5.54,0.36-9.35-1.09
					c-1.21-0.47-2.49-1.15-2.9-2.41c-0.29-0.89-0.11-1.98,0.4-2.63c1.66-2.06,7.69-0.11,10.99,1.4C65.6,63.83,67.42,64.98,69,66.2z"
					/>
				<path class="st2" d="M26.88,132.8c-0.12,0.33-5.2-2.05-8.61-0.1c-0.46,0.26-1.73,1-1.77,2.04c-0.04,0.86,0.75,1.51,0.42,2.16
					c-0.14,0.26-0.44,0.47-0.71,0.5c-0.94,0.08-1.94-2.11-2.62-3.85c-2.2-5.71-4.06-10.48-1.97-15.35c1.18-2.76,3.27-4.74,3.84-4.46
					c0.55,0.26-0.78,2.52,0,5.47c0.65,2.54,2.43,3.98,2.12,4.28c-0.24,0.22-1.4-0.4-2.27-1.25c-1.5-1.45-1.65-3.05-2.23-3.03
					c-0.46,0.03-0.76,1.01-0.94,1.62c-0.94,3.2-0.1,5.89,0.54,7.87c0.35,1.05,0.71,1.86,1.37,2.01c0.58,0.14,1.15-0.3,1.32-0.43
					C17.9,128.49,27.04,132.37,26.88,132.8z"/>
				<path class="st2" d="M36.67,161.97c-0.19,0.37-0.42,0.73-0.65,1.05c-0.67,0.91-1.5,1.54-2.15,1.95
					c-0.3,0.18-0.58,0.32-0.79,0.42c-0.36,0.1-0.89,0.22-1.54,0.3c-0.36,0.04-0.76,0.07-1.19,0.07c-0.79,0-1.69-0.1-2.63-0.37
					c-1.82-0.53-3.12-1.5-4.02-2.37c-0.54-0.54-0.93-1.03-1.21-1.37c-0.43-0.55-1.45-1.95-2.65-6.37
					c-1.94-7.26-0.43-8.13-2.26-13.32c-0.36-1.05-1.11-2.94-0.54-3.34c0.37-0.28,1.16,0.19,1.75,0.61c0.42,1.15,1.01,2.95,1.52,5.21
					c1.44,6.28,0.51,7.82,1.94,11.53c0.28,0.72,2.08,5.39,5.24,7.05c0.62,0.32,1.29,0.54,2.01,0.58c0.89,0.04,1.91-0.15,2.81-0.58
					c0.82-0.4,1.55-0.98,1.97-1.76c1.22-2.18-0.43-4.96,0.6-5.53c0.51-0.29,1.34,0.22,1.79,0.62
					C38.05,157.62,37.41,160.43,36.67,161.97z"/>
				<path class="st2" d="M39.15,148.93c-0.65,0.65-2.72-1.93-6.55-2.15c-3.67-0.19-6.14,1.94-6.44,1.44
					c-0.29-0.47,1.77-2.72,4.56-3.78c1.23-0.47,3.53-1.36,5.68-0.22C38.65,145.41,39.76,148.32,39.15,148.93z"/>
				<path class="st2" d="M34.7,141.47c-0.64,0.44-1.66-0.57-4.18-1.73c-3.63-1.69-5.61-1.51-5.61-1.98c0.03-0.9,7.15-2.88,9.45,0.04
					C35.28,138.99,35.41,140.99,34.7,141.47z"/>
				<path class="st2" d="M34.35,131.43c-1.04,1.05-4.68-1.05-5.76-1.66c-4.16-2.38-7.46-6-7-6.6c0.4-0.53,3.02,2.54,8.44,3.59
					c1.32,0.25,2.9,0.42,3.85,1.68C34.6,129.36,34.93,130.84,34.35,131.43z"/>
				<path class="st2" d="M43.91,163.02c-0.04,0.07-0.07,0.12-0.08,0.15c-0.07,0.1-0.18,0.26-0.32,0.46
					c-0.36,0.49-0.97,1.22-1.86,1.88c-0.11,0.08-0.24,0.18-0.36,0.25c-0.62,0.43-1.39,0.82-2.29,1.08
					c-2.94,0.85-5.85-0.17-7.36-1.08c-0.04-0.03-0.08-0.04-0.11-0.07c-0.65-0.42-1.03-0.82-0.98-1.01c0.04-0.26,0.89-0.35,1.27-0.35
					c0.94,0,1.68,0.4,2.04,0.64c0.06,0.03,0.11,0.06,0.14,0.08c1.87,1.14,5.56,0.76,7.46-1.05c0.3-0.3,0.57-0.64,0.78-0.98
					c0.79-1.29,0.94-2.72,0.97-3.09c0.14-1.7-0.43-2.97,0.03-3.21c0.37-0.21,1.16,0.32,1.59,0.97
					C45.98,159.46,44.37,162.29,43.91,163.02z"/>
				<path class="st2" d="M55.47,162.72c-0.1,0.42-1.29,0.03-2.94,0.3c-0.3,0.04-0.62,0.11-0.96,0.21c-1.76,0.54-2.76,1.79-3.64,2.54
					c-0.1,0.08-0.19,0.17-0.29,0.24c-0.42,0.28-0.8,0.43-1.25,0.29c-0.36-0.1-0.28-0.24-0.79-0.53c-0.1-0.06-0.19-0.11-0.3-0.17
					c-1.27-0.6-2.69-0.29-3.64-0.08c-0.58,0.11-0.98,0.19-1.08,0c-0.15-0.33,0.73-1.3,1.82-1.7c0.46-0.17,0.78-0.17,1.12-0.18
					c0.28-0.01,0.57-0.04,0.96-0.18c0.32-0.12,0.58-0.28,0.82-0.43c0.54-0.36,0.87-0.76,1-0.93c1.66-2.02,0.54-4.68,1.48-5.04
					c0.58-0.21,1.66,0.6,1.94,1.51c0.33,1.05-0.53,1.8-0.14,2.31c0.43,0.54,1.57-0.19,3.26,0.14
					C54.28,161.29,55.58,162.27,55.47,162.72z"/>
				<path class="st2" d="M67.03,180.02c-0.12,0.11-0.25,0.21-0.37,0.3c-0.43,0.33-0.9,0.57-1.4,0.76
					c-3.52,1.25-8.48-0.86-10.92-2.38c-1.09-0.69-1.8-1.33-2.38-1.87c-1.59-1.44-2.95-3.15-4.02-4.84
					c-1.44-2.27-2.36-4.55-2.61-6.24c-0.01-0.06-0.03-0.11-0.03-0.17c-0.12-1.04,0-1.84,0.46-2.27c0.06-0.04,0.33-0.3,0.67-0.3h0.1
					c0.67,0.11,0.83,1.21,1.08,2.74c0.01,0.08,0.03,0.15,0.04,0.24c0.24,1.47,0.55,3.3,1.4,4.99c0.18,0.36,0.36,0.69,0.57,1.01
					c1.72,2.83,4.1,4.32,4.79,4.75c4.37,2.67,10.99,3.33,12.69,0.78c0.97-1.46,0.24-3.81-0.3-5.53c-0.35-1.14-0.61-2-0.25-2.18
					c0.42-0.19,1.18,0.62,1.26,0.71c0.36,0.4,0.65,0.9,0.87,1.47C69.6,174.45,69.06,178.14,67.03,180.02z"/>
				<path class="st2" d="M75.99,177.77c-0.25,0.57-0.57,1.11-0.96,1.61c-0.1,0.12-0.26,0.35-0.54,0.62
					c-0.69,0.72-2.01,1.8-3.87,2.18c-2.06,0.42-4.12-0.18-5.38-1.08c-0.4-0.29-0.73-0.61-0.96-0.94c-0.08-0.11-0.33-0.49-0.21-0.64
					c0.19-0.25,1.23,0.39,2.56,0.82c0.14,0.04,0.28,0.08,0.42,0.12c1.19,0.32,2.54,0.37,3.52,0.17c3.05-0.65,5.72-4.52,5.17-7.47
					c-0.39-2.11-2.38-3.51-1.97-4c0.22-0.25,0.94-0.1,1.45,0.21C77.03,170.48,77.48,174.54,75.99,177.77z"/>
				<path class="st2" d="M81.55,172.25c-0.83,4.55-5.88,7.94-7.05,7.75c-0.06-0.01-0.1-0.03-0.14-0.06
					c-0.24-0.15-0.19-0.69-0.06-1.05c0.26-0.68,1.05-0.93,1.69-1.12c0.17-0.06,0.32-0.1,0.46-0.15c2.26-0.85,3.46-4.23,3.52-6.69
					c0.1-3.45-2.02-5.75-2.56-6.31c-0.75-0.79-1.58-1.37-2.4-1.8c-0.82-0.42-1.62-0.68-2.33-0.85c-1.01-0.24-1.83-0.28-2.2-0.29
					c-0.54-0.03-1.03,0-1.48,0.04c-1.01,0.12-1.9,0.39-2.85,0.67c-0.67,0.19-1.29,0.4-1.87,0.64c-3.62,1.4-5.53,3.21-6.42,2.48
					c-0.47-0.39-0.35-1.23-0.33-1.32c0.06-0.37,0.25-0.78,0.57-1.16c1.58-2.02,6.19-3.92,10.91-3.67c0.54,0.03,1.09,0.08,1.64,0.18
					c0.69,0.11,1.39,0.28,2.05,0.51c0.26,0.08,0.53,0.18,0.79,0.29c1.46,0.61,2.94,1.55,4.21,2.72
					C80.32,165.46,82.17,168.84,81.55,172.25z"/>
				<path class="st2" d="M49.29,152.7c-0.01,0.26-1.84,0.48-3.67,0.26c-1.25-0.15-3.74-0.46-4.89-2.3c-0.33-0.54-0.67-1.4-0.4-1.62
					c0.4-0.36,1.75,1.23,4.31,2.37C47.23,152.54,49.29,152.42,49.29,152.7z"/>
				<path class="st2" d="M93.27,139.23c-0.18,0.68-0.42,1.33-0.67,1.9c-0.5,1.15-1.05,1.95-1.26,1.88
					c-0.06-0.03-0.07-0.11-0.06-0.25c0.06-0.67,0.73-2.61,0.53-5.35c-0.12-1.68-0.54-3.09-0.83-4.09c-0.28-0.94-0.44-1.54-0.15-1.66
					c0.17-0.07,0.43,0.04,0.72,0.22c0.36,0.26,0.78,0.67,1.07,1.01C94.34,135.03,93.62,137.83,93.27,139.23z"/>
				<path class="st2" d="M91.79,131.04c-0.07,0.29-0.15,0.57-0.24,0.85c-0.17,0.54-0.37,1.04-0.57,1.44
					c-0.3,0.6-0.58,0.96-0.71,0.91c-0.29-0.08,0.54-1.9,0.26-4.67c-0.17-1.57-0.61-2.84-0.87-3.67c-0.19-0.62-0.29-1.01-0.08-1.11
					c0.06-0.03,0.14-0.03,0.22,0.01c0.37,0.08,0.94,0.57,1.29,0.98C92.59,127.53,92.05,129.87,91.79,131.04z"/>
				<path class="st2" d="M89.82,124.01c0,0.26,0,0.53-0.01,0.79c-0.03,0.39-0.07,0.76-0.14,1.09c-0.15,0.94-0.42,1.64-0.61,1.64
					c-0.32-0.03,0.08-2.01-0.94-4.7c-0.55-1.43-1.3-2.54-1.8-3.3c-0.42-0.65-0.65-1.05-0.44-1.21c0.08-0.07,0.24-0.07,0.42-0.04
					c0.42,0.08,1.03,0.39,1.44,0.68C89.75,120.35,89.79,122.81,89.82,124.01z"/>
				<path class="st2" d="M44.88,149.04c-0.11,0.22-1.9-0.28-3.49-1.19c-1.08-0.62-3.27-1.87-3.6-4.02c-0.1-0.62-0.08-1.55,0.25-1.66
					c0.51-0.17,1.14,1.83,3.05,3.85C43.04,148.1,45.01,148.79,44.88,149.04z"/>
				<path class="st2" d="M53.93,155.77c0,0.21-1.33,0.67-2.74,0.8c-0.96,0.08-2.9,0.26-4.06-0.94c-0.33-0.35-0.73-0.94-0.58-1.15
					c0.25-0.33,1.54,0.65,3.64,1.08C52.35,156,53.89,155.57,53.93,155.77z"/>
				<path class="st2" d="M61.11,156.19c0.11,0.17-0.91,1.15-2.15,1.87c-0.83,0.48-2.51,1.47-4.07,0.86
					c-0.46-0.18-1.07-0.55-1.01-0.82c0.08-0.4,1.66-0.04,3.76-0.54C59.78,157.05,61,156.01,61.11,156.19z"/>
				<path class="st2" d="M39.02,75.5c-0.46,0.82-1.01,1.73-1.72,2.72c-0.12,0.19-0.26,0.37-0.42,0.57
					c-1.21,1.59-2.77,3.27-4.79,4.79c-1.65,1.23-2.01,1.16-4.02,2.51c-2.08,1.4-6.78,4.53-9.49,9.55
					c-2.69,4.92-2.99,10.77-1.87,11.21c1.09,0.43,3.73-4.24,4.21-3.95c0.36,0.22-1.43,2.87-2.34,6.96c-0.94,4.16-0.3,6.75-0.83,6.86
					c-0.71,0.12-2.7-4.25-3.12-9.17c-0.14-1.65-0.53-7.14,2.54-12.76c2.99-5.5,7.93-8.66,10.79-10.5c1.48-0.94,2.72-1.58,4.84-3.16
					c1.5-1.12,2.77-2.23,3.84-3.21c0.19-0.18,0.37-0.36,0.54-0.53C37.91,76.68,38.52,76.04,39.02,75.5z"/>
				<path class="st3" d="M77.68,2.32v99.38c-0.93-0.53-1.94-0.85-3.01-0.82c-0.68,0.01-1.32,0.18-2,0.53
					c-1.03,0.51-2.15,1.41-3.69,2.69v-3.05c0.06-0.01,0.1-0.04,0.12-0.08c0.07-0.12,0.03-0.33-0.12-0.61v-3.17
					c0.07,0.06,0.12,0.07,0.17,0.04c0.07-0.07,0.01-0.33-0.17-0.73V9.98H9.44v153.04H23.7c0.9,0.87,2.2,1.84,4.02,2.37
					c0.94,0.28,1.84,0.37,2.63,0.37c0.43,0,0.83-0.03,1.19-0.07c0.03,0.03,0.07,0.04,0.11,0.07c1.51,0.91,4.42,1.93,7.36,1.08
					c0.9-0.26,1.66-0.65,2.29-1.08c0.12-0.07,0.25-0.17,0.36-0.25c0.96-0.21,2.37-0.51,3.64,0.08c0,0.06,0.01,0.11,0.03,0.17
					c0.25,1.69,1.16,3.96,2.61,6.24H0V2.32H77.68z"/>
				<path class="st0" d="M22.61,33.01c-0.22,0.97-0.42,2.02-0.55,3.17c-0.06,0.43-0.11,0.85-0.14,1.25
					c-0.03,0.33-0.04,0.67-0.06,0.98c-0.01,0.12-0.01,0.24-0.01,0.36c0,0.03,0,0.07-0.01,0.1c0,0.15-0.01,0.32-0.01,0.47
					c-0.01,0.14-0.01,0.28-0.01,0.4c0,0.24,0,0.47,0.01,0.69c0-0.26,0.01-0.53,0.01-0.8c0-0.12,0-0.26,0.01-0.4
					c0-0.15,0.01-0.32,0.03-0.47c0.01-0.46,0.04-0.94,0.1-1.44c0.04-0.4,0.1-0.82,0.15-1.25c0.15-1.09,0.36-2.11,0.58-3.02
					C22.68,33.04,22.64,33.03,22.61,33.01z"/>
				<path class="st0" d="M91.82,137.41c-0.12-1.68-0.54-3.09-0.83-4.09c-0.3,0.6-0.58,0.96-0.71,0.91c-0.29-0.08,0.54-1.9,0.26-4.67
					c-0.17-1.57-0.61-2.84-0.87-3.67c-0.15,0.94-0.42,1.64-0.61,1.64c-0.32-0.03,0.08-2.01-0.94-4.7c-0.55-1.43-1.3-2.54-1.8-3.3
					c-0.01,0.87-0.17,1.45-0.48,1.57c-0.1,0.03-0.19,0.01-0.26,0c-1.36-0.32-0.86-4.6-1.87-8.67c-1.22-4.95-4.31-8.06-4.56-7.94
					c-0.24,0.14,2.06,3.52,2.02,8.36c-0.01,1.68-0.04,3.82-1.3,4.59c-0.64,0.37-1.33,0.25-2.18-0.14c-1.22-0.54-2.79-1.61-5-2.4
					v1.01c1.91-0.1,6.29,2.62,6.15,3.01c-0.08,0.21-1.37-0.55-3.71-0.46c-1.22,0.04-1.9,0.3-2.44,0.07v2.36
					c0-0.35,0.08-0.68,0.25-0.96c1-1.51,5.02-0.89,7.76,0.6c3.33,1.8,5.31,5.14,4.85,5.64c-0.39,0.43-2.15-1.82-5.96-2.62
					c-3.27-0.69-5.36,0.24-6.42-1.18c-0.3-0.4-0.49-0.96-0.49-1.48v13.93c0.01,0.03,0.03,0.04,0.04,0.07
					c0.86,1.47,0.94,3.35,0.47,3.55c-0.15,0.07-0.3-0.08-0.51-0.33c-0.29-0.33-0.71-0.85-1.45-1.19c-0.9-0.43-1.64-0.33-2.23-0.33
					c-0.43,0-0.8-0.04-1.12-0.37c-0.55-0.57-0.6-1.62-0.18-2.36c0.3-0.54,0.82-0.8,1.3-0.93v-2.11c-1.98,0.29-4.68,0.4-7.51,1.73
					c-4.61,2.18-6.51,6.12-7.08,5.72c-0.47-0.35,0.75-3.27,2.55-5.79c3.27-4.61,8.58-8.09,12.04-7.58v-1.27
					c-1.11,0.61-2.79,0.44-4.07,0.53c-6.72,0.4-10.55,7.95-11.21,7.43c-0.73-0.58,3.3-9.91,10.66-11.86
					c0.86-0.24,3.2-0.85,4.63-0.19v-5.47c-4.37-0.47-7.23,1-7.91-0.36c-1.05-2.05,4.74-6.91,7.14-8.92
					c0.26-0.22,0.53-0.44,0.78-0.65v-3.05c-0.73,0.14-3.91-2.56-9.73-2.99c-4.42-0.32-8.4,0.82-10.67-1.16
					c-0.32-0.28-1.16-1.04-1.41-2.27c-0.18-0.89,0-1.9,0.39-2.47c1.47-2.15,7.7-0.21,8.67,0.1c6.58,2.05,11.76,6.39,12.75,8.11
					v-3.17c-0.91-0.68-4.91-7.09-11.4-7.54c-2.19-0.14-5.22,0.35-8.81-1.03c-1.14-0.44-2.36-1.08-2.73-2.27
					c-0.26-0.83-0.1-1.87,0.37-2.47c1.58-1.97,7.25-0.12,10.35,1.3C63.83,88.44,68.07,94.4,69,96.49V80.25
					c-1.97-2.05-5-4.56-8.97-4.81c-2.19-0.15-5.22,0.33-8.81-1.04c-1.14-0.44-2.36-1.08-2.73-2.27c-0.26-0.83-0.1-1.87,0.37-2.47
					c1.58-1.97,7.25-0.12,10.35,1.3c4.39,2.02,7.69,5.1,9.78,7.64v-9.69c-1.36-0.69-2.9-1.18-4.57-1.29
					c-2.31-0.15-5.54,0.36-9.35-1.09c-1.21-0.47-2.49-1.15-2.9-2.41c-0.29-0.89-0.11-1.98,0.4-2.63c1.66-2.06,7.69-0.11,10.99,1.4
					c2.04,0.94,3.85,2.09,5.43,3.31v-7.3c-1.77,0-3.84-0.12-6.14-1.01c-1.14-0.43-2.36-1.07-2.74-2.26
					c-0.25-0.83-0.1-1.87,0.39-2.47c1.3-1.61,5.36-0.65,8.49,0.53v-9.35c-2.43-0.14-6.35-0.14-10.77,1.25
					c-5.35,1.7-8.49,4.5-8.85,4.5h-0.01c-1.43,0.98-3.26,2.38-5.09,4.25c0.53-0.33,1.08-0.65,1.68-0.96
					c4.34-2.22,8.98-2.52,10.67-1.08c0.17,0.15,0.67,0.58,0.75,1.23c0.14,1.15-1.16,2.09-1.4,2.26c-1.25,0.85-2.66,0.62-3.03,0.54
					c-1.93-0.43-4.63-0.75-7.62-0.01c-1.66,0.42-2.99,1.05-3.94,1.54c-0.91,1.29-1.75,2.72-2.43,4.31c2.38-2.09,5.7-2.69,8.3-2.09
					c0.9,0.21,2.91,0.68,3.19,2.02c0.22,1.14-0.89,2.56-2.08,2.88c-0.51,0.12-0.94,0.03-1.11,0c0,0-2.18-0.46-5.76,0.39
					c-2.16,0.5-3.48,1.98-4.32,2.94c-0.06,0.39-0.11,0.78-0.15,1.16c0.76-0.53,1.95-0.69,3.91-0.97c1.97-0.26,3.05-0.4,3.95,0.3
					c0.67,0.53,1.21,1.5,1.05,2.48c-0.22,1.33-1.64,1.98-2.06,2.18c-1.27,0.58-2.12,0.26-4.55,0.39c-1,0.04-1.83,0.15-2.45,0.24
					c0.06,1.22,0.18,2.33,0.32,3.28c0.73-0.69,1.34-1.33,1.84-1.87c-0.46,0.82-1.01,1.73-1.72,2.72c0.3,1.79,0.62,2.85,0.53,2.87
					c-0.08,0-0.5-0.86-0.94-2.3c-1.21,1.59-2.77,3.27-4.79,4.79c-1.65,1.23-2.01,1.16-4.02,2.51c-2.08,1.4-6.78,4.53-9.49,9.55
					c-2.69,4.92-2.99,10.77-1.87,11.21c1.09,0.43,3.73-4.24,4.21-3.95c0.36,0.22-1.43,2.87-2.34,6.96c-0.94,4.16-0.3,6.75-0.83,6.86
					c-0.71,0.12-2.7-4.25-3.12-9.17c-0.14-1.65-0.53-7.14,2.54-12.76c2.99-5.5,7.93-8.66,10.79-10.5c1.48-0.94,2.72-1.58,4.84-3.16
					c1.5-1.12,2.77-2.23,3.84-3.21c-0.62-2.31-1.19-5.72-0.85-9.51c0-0.08,0-0.17,0.01-0.25c0-0.1,0.01-0.18,0.03-0.28
					c0.25-2.36,0.85-4.84,2-7.28c3.28-6.98,9.7-10.68,12.65-11.9l0.01-0.01c1.58-1.5,4.67-3.81,8.7-4.92
					c3.85-1.05,7.48-0.75,9.8-0.24v-2.08c-1.55-1.86-3.56-4.18-6.25-6.61c-0.01-0.01-0.03-0.03-0.06-0.04
					c-0.15-0.11-0.32-0.22-0.49-0.35c-0.78-0.57-1.43-1.15-1.94-1.69c-0.69-0.54-1.43-1.09-2.22-1.64c-0.8-0.55-1.61-1.11-2.41-1.65
					c-0.06,0.11-0.1,0.21-0.15,0.32c-0.36-0.39-0.79-0.8-1.33-1.25h-0.01c0,0,0,0-0.01-0.01c-1.83-1.08-3.67-1.98-5.57-2.38v0.01
					c-0.07-0.01-0.15-0.04-0.24-0.06c-0.03,0-0.06-0.01-0.08-0.01H48.2c-0.21-0.04-0.4-0.07-0.61-0.1
					c-0.36-0.04-0.75-0.07-1.18-0.07c-0.17,0-0.33,0.01-0.51,0.03c-0.17,0-0.33,0.01-0.51,0.04c-0.01,0-0.01,0-0.03,0
					c-0.15,0.01-0.3,0.04-0.46,0.07c-0.33,0.06-0.64,0.12-0.9,0.19c-0.86,0.25-1.73,0.62-2.56,1.11c-0.4,0.24-0.86,0.54-1.34,0.91
					c-0.17,0.12-0.32,0.26-0.49,0.4c-0.19,0.17-0.37,0.35-0.54,0.51c-0.1,0.08-0.18,0.17-0.25,0.25c-0.4,0.42-0.73,0.82-1,1.18
					c-0.76,1.04-1.34,2.22-1.65,3.46c-0.36,1.5-0.25,2.83,0.11,4.09v0.01c0.06,0.01,0.1,0.04,0.15,0.06
					c0.51,1.3,1.03,2.62,1.55,3.92c0.3,0.62,0.6,1.25,0.86,1.88c0.07,0.18,0.14,0.37,0.21,0.55c0.28,0.73,0.5,1.51,0.6,2.3
					l0.01,0.01c0.55,0.44,0.37,2.55-0.62,4.7c-0.01,0.03-0.03,0.06-0.04,0.1c-0.57,1.43-1.69,3.42-3.8,4.35
					c-0.4,0.17-0.8,0.29-1.19,0.37c-0.03,0.01-0.06,0.01-0.08,0.01c-4.67,1.25-9.74-3.3-9.33-4.63c-0.35-0.55-0.67-1.14-0.93-1.77
					h-0.01c0-0.01-0.01-0.04-0.01-0.06c-0.61-1.36-1.05-2.9-1.36-4.52v-0.01c-0.25-1.33-0.39-2.72-0.44-4.14
					c-0.01-0.28-0.03-0.57-0.01-0.87c-0.01-0.22-0.01-0.46-0.01-0.69c0-0.12,0-0.26,0.01-0.4c0-0.15,0.01-0.32,0.01-0.47
					c0.01-0.03,0.01-0.07,0.01-0.1c0-0.12,0-0.24,0.01-0.36c0.01-0.32,0.03-0.65,0.06-0.98c0.03-0.4,0.08-0.82,0.14-1.25
					c0.14-1.15,0.33-2.2,0.55-3.17c0.03,0.01,0.07,0.03,0.1,0.04c0-0.04,0.01-0.1,0.03-0.14c0.4-1.61,0.94-3.19,1.61-4.68
					c0.04-0.1,0.08-0.19,0.14-0.29c0.03-0.06,0.04-0.11,0.08-0.17c0.28-0.68,0.67-1.41,1.12-2.19c0.72-1.19,1.47-2.16,2.15-2.94
					c0.73-0.93,1.57-1.91,2.55-2.9c0.58-0.6,1.25-1.21,2.01-1.83c0.33-0.28,0.67-0.54,1-0.78c0.17-0.12,0.32-0.24,0.47-0.36
					c0.17-0.12,0.32-0.24,0.47-0.33c1.76-1.18,3.76-2.2,6.01-2.9c0.43-0.18,0.93-0.36,1.51-0.51c0.91-0.24,1.73-0.3,2.38-0.3
					c2.23-0.25,4.35-0.14,6.36,0.24c0.06,0.01,0.12,0.03,0.18,0.04c0.01,0,0.03,0,0.04,0.01c0.67,0.11,1.39,0.28,2.16,0.51
					c1.27,0.39,2.36,0.87,3.24,1.36c0.07,0.03,0.15,0.07,0.22,0.11c1.94,1,3.73,2.23,5.36,3.64c0.11,0.1,0.24,0.18,0.36,0.29
					c0.07,0.04,0.12,0.08,0.19,0.14c0.65,0.53,1.25,1.05,1.79,1.55c-0.04,0.03-0.08,0.04-0.14,0.07c1.95,1.98,3.62,4.14,4.97,6.28
					v-17H9.44v153.04H23.7c-0.54-0.54-0.93-1.03-1.21-1.37c-0.43-0.55-1.45-1.95-2.65-6.37c-1.94-7.26-0.43-8.13-2.26-13.32
					c-0.36-1.05-1.11-2.94-0.54-3.34c0.37-0.28,1.16,0.19,1.75,0.61c0.42,1.15,1.01,2.95,1.52,5.21c1.44,6.28,0.51,7.82,1.94,11.53
					c0.28,0.72,2.08,5.39,5.24,7.05c0.62,0.32,1.29,0.54,2.01,0.58c0.89,0.04,1.91-0.15,2.81-0.58c0.82-0.4,1.55-0.98,1.97-1.76
					c1.22-2.18-0.43-4.96,0.6-5.53c0.51-0.29,1.34,0.22,1.79,0.62c1.39,1.26,0.75,4.07,0,5.61c-0.19,0.37-0.42,0.73-0.65,1.05
					c-0.67,0.91-1.5,1.54-2.15,1.95c0.06,0.03,0.11,0.06,0.14,0.08c1.87,1.14,5.56,0.76,7.46-1.05c0.3-0.3,0.57-0.64,0.78-0.98
					c0.79-1.29,0.94-2.72,0.97-3.09c0.14-1.7-0.43-2.97,0.03-3.21c0.37-0.21,1.16,0.32,1.59,0.97c1.15,1.77-0.46,4.6-0.91,5.33
					c-0.04,0.07-0.07,0.12-0.08,0.15c-0.07,0.1-0.18,0.26-0.32,0.46c0.28-0.01,0.57-0.04,0.96-0.18c0.32-0.12,0.58-0.28,0.82-0.43
					c0.54-0.36,0.87-0.76,1-0.93c1.66-2.02,0.54-4.68,1.48-5.04c0.58-0.21,1.66,0.6,1.94,1.51c0.33,1.05-0.53,1.8-0.14,2.31
					c0.43,0.54,1.57-0.19,3.26,0.14c1.45,0.28,2.76,1.26,2.65,1.7c-0.1,0.42-1.29,0.03-2.94,0.3c-0.3,0.04-0.62,0.11-0.96,0.21
					c-1.76,0.54-2.76,1.79-3.64,2.54c-0.1,0.08-0.19,0.17-0.29,0.24c0.24,1.47,0.55,3.3,1.4,4.99c0.18,0.36,0.36,0.69,0.57,1.01
					c1.72,2.83,4.1,4.32,4.79,4.75c4.37,2.67,10.99,3.33,12.69,0.78c0.97-1.46,0.24-3.81-0.3-5.53c-0.35-1.14-0.61-2-0.25-2.18
					c0.42-0.19,1.18,0.62,1.26,0.71c0.36,0.4,0.65,0.9,0.87,1.47c0.93,2.45,0.39,6.14-1.65,8.02c-0.12,0.11-0.25,0.21-0.37,0.3
					c0.14,0.04,0.28,0.08,0.42,0.12c1.19,0.32,2.54,0.37,3.52,0.17c3.05-0.65,5.72-4.52,5.17-7.47c-0.39-2.11-2.38-3.51-1.97-4
					c0.22-0.25,0.94-0.1,1.45,0.21c1.79,1.12,2.23,5.18,0.75,8.41c0.17-0.06,0.32-0.1,0.46-0.15c2.26-0.85,3.46-4.23,3.52-6.69
					c0.1-3.45-2.02-5.75-2.56-6.31c-0.75-0.79-1.58-1.37-2.4-1.8c-0.82-0.42-1.62-0.68-2.33-0.85c-1.01-0.24-1.83-0.28-2.2-0.29
					c-0.54-0.03-1.03,0-1.48,0.04c-1.01,0.12-1.9,0.39-2.85,0.67c-0.67,0.19-1.29,0.4-1.87,0.64c-3.62,1.4-5.53,3.21-6.42,2.48
					c-0.47-0.39-0.35-1.23-0.33-1.32c0.06-0.37,0.25-0.78,0.57-1.16c1.58-2.02,6.19-3.92,10.91-3.67v-0.15
					c-3.42-0.55-6.15-2.54-6.03-3.05c0.03-0.08,0.14-0.14,0.29-0.18c1.7-0.47,3.44,1.12,5.14,1.86c0.19,0.08,0.39,0.15,0.6,0.21
					c1.19,0.39,2.47,0.43,3.69,0.25c1.66-0.25,3.24-0.94,4.38-1.84c1.03-0.8,2.09-2.11,2.49-3.35c0,0,0-0.01,0-0.03
					c-0.08-0.53-0.06-1.08,0.08-1.59c0-0.01,0-0.01,0-0.01c-0.01-0.04-0.03-0.06-0.04-0.1c-0.55-1.47-2.84-1.84-2.69-2.47
					c0.07-0.32,0.78-0.54,1.32-0.39c0.83,0.22,1.37,1.29,1.61,2.4c0.01-0.07,0.04-0.12,0.08-0.18c0.04-1.36,0.53-2.73,1.44-3.01
					c0.55-0.17,1.25,0.07,1.33,0.39c0.14,0.57-1.79,0.82-2.7,2.47c-0.03,0.04-0.06,0.1-0.07,0.15c-0.01,0.15-0.01,0.3-0.01,0.46
					c0,0.06,0,0.11,0.01,0.17c0.03,0.17,0.04,0.33,0.06,0.5c0,0.01,0,0.01,0,0.03c0.01,0.17,0.5,2.97,2.06,3.33
					c2.52,0.57,7.39-5.49,8.88-11.06c0.1-0.35,0.22-0.86,0.37-1.37C91.35,142.1,92.03,140.16,91.82,137.41z M67.36,115.63
					c0.65,0.53,1.16,1.51,0.87,2.18c-0.51,1.15-3.08,0.32-5.92,0.93c-5.15,1.14-7.52,6.25-8.01,5.89c-0.43-0.3,1.09-4.31,4.67-6.97
					C61.29,115.92,65.39,114.06,67.36,115.63z M51.06,101.83c0.67-0.85,1.93-0.91,3.24-0.83c4.99,0.3,10.84,2.91,10.56,3.81
					c-0.17,0.53-2.11-0.47-5.71,0.21c-3.77,0.71-5.46,2.52-7.05,1.55c-1.07-0.64-1.39-2.08-1.43-2.27
					C50.62,104.02,50.36,102.71,51.06,101.83z M54.31,115.64c0.14,1.43-1.65,1.76-4.88,5.76c-2.59,3.21-2.73,4.59-4.18,4.82
					c-2.06,0.35-4.17-2.02-5.9-3.96c-2.66-2.99-3.31-5.35-4.12-5.18c-0.85,0.18-1.11,2.99-0.93,5.42c0.54,7.07,4.88,11.42,4,12.14
					c-0.75,0.61-3.98-1.84-3.8-2.23c0.1-0.21,1.09,0.39,1.51,0c0.75-0.71-1.62-3.62-3.42-8.83c-0.65-1.83-0.98-2.79-1.04-4.09
					c-0.03-0.61-0.21-4.31,1.97-6.71c2.77-3.02,7.73-2.18,11.68-1.5C46.6,111.53,54.02,112.8,54.31,115.64z M52.02,142.28
					c-2.94-0.06-5.71-2.3-6.36-5.17c-0.36-1.52-0.15-3.12,0.04-4.67c0.12-0.97,0.26-1.97,0.76-2.81c0.5-0.83,1.45-1.48,2.38-1.07
					C47.49,133.27,48.74,138.65,52.02,142.28z M44.72,144.44c-1.59-0.11-2.65-1.68-3.44-3.06c-0.36-0.64-0.73-1.3-0.78-2.02
					c-0.04-0.54,0.1-1.07,0.29-1.57c0.51-1.34,1.44-2.52,2.59-2.76C43.23,138.22,43.68,141.43,44.72,144.44z M34.35,131.43
					c-1.04,1.05-4.68-1.05-5.76-1.66c-4.16-2.38-7.46-6-7-6.6c0.4-0.53,3.02,2.54,8.44,3.59c1.32,0.25,2.9,0.42,3.85,1.68
					C34.6,129.36,34.93,130.84,34.35,131.43z M45.47,103.03c1.84,1.07,3.31,3.24,2.8,4.27c-0.44,0.85-2.24,0.76-4.88,0.61
					c-3.6-0.19-4.77-0.75-6.19-0.82c-6.06-0.3-10.61,8.34-11.14,7.94c-0.42-0.3,1.73-5.83,7.05-9.51
					C33.92,104.97,40.8,100.36,45.47,103.03z M20.55,99.61c-0.76-0.57,1.58-6.49,6.54-11c4.35-3.96,11.53-7.55,14.22-5.29
					c1.22,1.04,1.54,3.3,0.72,4.67c-1.19,2.04-4.34,1.37-7.88,2.08C25.51,91.81,21.48,100.3,20.55,99.61z M25.19,100.32
					c5.2-7.11,14.9-11.34,17.72-8.85c1.43,1.25,1.34,4.35,0,6.07c-1.87,2.41-5.29,0.9-9.4,2.08c-8.43,2.44-11.13,13.79-12.28,13.29
					C20.38,112.54,21.05,105.97,25.19,100.32z M18.28,132.7c-0.46,0.26-1.73,1-1.77,2.04c-0.04,0.86,0.75,1.51,0.42,2.16
					c-0.14,0.26-0.44,0.47-0.71,0.5c-0.94,0.08-1.94-2.11-2.62-3.85c-2.2-5.71-4.06-10.48-1.97-15.35c1.18-2.76,3.27-4.74,3.84-4.46
					c0.55,0.26-0.78,2.52,0,5.47c0.65,2.54,2.43,3.98,2.12,4.28c-0.24,0.22-1.4-0.4-2.27-1.25c-1.5-1.45-1.65-3.05-2.23-3.03
					c-0.46,0.03-0.76,1.01-0.94,1.62c-0.94,3.2-0.1,5.89,0.54,7.87c0.35,1.05,0.71,1.86,1.37,2.01c0.58,0.14,1.15-0.3,1.32-0.43
					c2.54-1.79,11.67,2.09,11.52,2.52C26.76,133.13,21.69,130.75,18.28,132.7z M24.9,137.76c0.03-0.9,7.15-2.88,9.45,0.04
					c0.93,1.19,1.05,3.19,0.35,3.67c-0.64,0.44-1.66-0.57-4.18-1.73C26.88,138.05,24.9,138.23,24.9,137.76z M39.15,148.93
					c-0.65,0.65-2.72-1.93-6.55-2.15c-3.67-0.19-6.14,1.94-6.44,1.44c-0.29-0.47,1.77-2.72,4.56-3.78c1.23-0.47,3.53-1.36,5.68-0.22
					C38.65,145.41,39.76,148.32,39.15,148.93z M37.79,143.83c-0.1-0.62-0.08-1.55,0.25-1.66c0.51-0.17,1.14,1.83,3.05,3.85
					c1.95,2.08,3.92,2.77,3.8,3.02c-0.11,0.22-1.9-0.28-3.49-1.19C40.31,147.22,38.12,145.98,37.79,143.83z M45.62,152.96
					c-1.25-0.15-3.74-0.46-4.89-2.3c-0.33-0.54-0.67-1.4-0.4-1.62c0.4-0.36,1.75,1.23,4.31,2.37c2.59,1.14,4.66,1.01,4.66,1.29
					C49.28,152.96,47.45,153.18,45.62,152.96z M51.19,156.58c-0.96,0.08-2.9,0.26-4.06-0.94c-0.33-0.35-0.73-0.94-0.58-1.15
					c0.25-0.33,1.54,0.65,3.64,1.08c2.16,0.43,3.7,0,3.74,0.21C53.93,155.98,52.6,156.44,51.19,156.58z M58.96,158.06
					c-0.83,0.48-2.51,1.47-4.07,0.86c-0.46-0.18-1.07-0.55-1.01-0.82c0.08-0.4,1.66-0.04,3.76-0.54c2.15-0.51,3.37-1.55,3.48-1.37
					C61.22,156.36,60.2,157.34,58.96,158.06z M64.75,151.48c-4.2,1.01-8.65-0.42-12.4-2.55c-1.23-0.71-2.45-1.51-3.34-2.63
					c-0.39-0.49-1.69-2.47-1.11-3.09c0.51-0.54,1.72,1.26,2.2,1.62c4.63,3.38,10.42,4.64,16.03,5.82
					C65.88,151.13,65.3,151.35,64.75,151.48z M72.22,144.92c-0.06,0.03-0.19-0.19-0.42-0.6c-0.37,0.22-1.43,0.68-2.81,0.93
					c-1.4,0.26-3.15,0.3-4.86-0.33c-1.91-0.72-4.23-2.48-4.55-4.84c-0.11-0.85,0.04-1.65,0.25-2.22c-0.73-0.01-1.33-0.1-1.45-0.43
					c-0.15-0.36,0.32-0.86,0.39-0.93c1.37-1.46,6.03-0.6,9.19,1.77c0.37,0.28,0.72,0.58,1.04,0.89
					C71.63,141.68,72.4,144.81,72.22,144.92z M80.75,133.03c-1.61,1.65-1.14,3.94-1.58,3.96c-0.71,0.06-2.48-5.36-0.76-6.55
					c0.53-0.37,1.41-0.36,2.05-0.06c0.51,0.25,1.11,0.8,1.09,1.43C81.54,132.34,81.09,132.67,80.75,133.03z M86.61,138.95
					c-0.29,0.93-0.68,1.51-0.79,1.66c-1.11,1.54-2.79,2.06-3.58,2.24c0.15,0.69,0.29,1.11,0.21,1.12c-0.22,0.06-2.22-3.34-1.08-6.69
					c1.18-3.51,5.11-4.99,5.24-4.82c0.03,0.04-0.21,0.19-0.6,0.47C86.44,133.52,87.44,136.25,86.61,138.95z M79.42,128.49
					c-1.59,0.15-3.26,0.57-4.74-0.42c-0.21-0.12-1.47-0.98-1.39-2.06c0.08-0.96,1.18-1.57,1.51-1.75
					c3.82-2.11,13.25,4.57,12.79,5.56C87.33,130.37,84.39,128.03,79.42,128.49z"/>
				<g>
					<path class="st2" d="M70.36,29.19l0.16,13.83l0.01,0.59l-0.38-0.45c-2.38-2.83-4.84-5.62-7.61-8.06
						c-2.68-2.25-5.62-4.37-8.62-6.15c0,0,0.24,0.06,0.24,0.06l-0.01,0h-0.2l-0.13-0.14l-0.01-0.01l0.09,0.07
						c-2.53-1.55-5.11-2.79-7.99-2.66c-2.44,0.09-4.94,1.42-6.66,3.1c-0.08,0.08-0.07,0.08-0.17,0.07c-0.06,0,0.15-0.05,0.14-0.06
						c0,0-0.21,0.22-0.21,0.22c0,0-0.01,0.01-0.01,0.01c-2.21,2.22-3.48,5.49-2.52,8.58c1.3,3.92,4.5,7.96,3.12,12.34
						c-0.75,2.75-2.58,5.51-5.53,6.13c-2.88,0.64-7.06-0.84-9.01-3.59c-0.71-0.87-1.17-1.89-1.71-2.88l0.34,0.22l-0.01,0l-0.27,0
						l-0.1-0.37c-1.44-2.77-2.17-8.28-1.87-11.39c0.04-0.93,0.12-1.92,0.26-2.83c0.51-2.91,1.04-5.51,2.46-8.37
						c1.21-2.65,3.7-5.86,5.98-8.2C44.35,5.49,62.05,13.15,70.36,29.19L70.36,29.19z M70.26,29.22
						c-4.35-7.41-11.12-14.07-19.73-15.89c0.05,0.11,0.4,0.13,0.15,0.1c-2.56-0.48-5.28-0.48-7.84,0.04
						c-3.88,0.75-7.54,2.59-10.49,5.22c-2.97,2.63-5.55,5.88-7.36,9.4c-0.71,1.48-1.37,3.42-1.78,4.96c0,0-0.01,0.12-0.01,0.12
						l-0.55,2.79c-0.46,3.15-0.52,6.01,0.04,9.42c0.19,1.24,0.75,3.2,1.32,4.61c0,0,0.01,0.06,0.01,0.06l-0.36-0.36l0.01,0l0.22,0
						c0.55,1,0.98,2.07,1.68,2.98c1.83,2.58,5.3,4.03,8.34,3.57c2.42-0.45,4.15-2.49,4.97-4.69c3.36-8.02-6.68-12.22-1.71-20.34
						c0.48-0.81,1.14-1.53,1.73-2.2c0,0,0.05-0.05,0.05-0.05l0.1,0l0.01,0l-0.17,0.07l0.43-0.42c1.81-1.67,4.33-2.87,6.57-2.97
						c2.9-0.25,5.97,1,8.56,2.56c0.12,0.05-0.4-0.15-0.3-0.12c0,0,0.14,0,0.14,0c0,0,0.1,0.06,0.1,0.06
						c2.97,1.84,6.34,4.41,8.67,6.52c2.72,2.5,5.12,5.36,7.41,8.23c0,0-0.38,0.14-0.38,0.14L70.26,29.22L70.26,29.22z"/>
				</g>
				<path class="st2" d="M85.47,139.42c-0.78,1.61-2.06,2.66-3.24,3.37c-0.28-1.25-0.57-3.33,0.24-5.49c0.82-2.2,2.45-3.56,3.4-4.24
					C85.96,133.87,86.8,136.71,85.47,139.42z"/>
				<path class="st4" d="M26.88,132.8c-0.12,0.33-5.2-2.05-8.61-0.1c-0.46,0.26-1.73,1-1.77,2.04c-0.04,0.86,0.75,1.51,0.42,2.16
					c-0.14,0.26-0.44,0.47-0.71,0.5c-0.94,0.08-1.94-2.11-2.62-3.85c-2.2-5.71-4.06-10.48-1.97-15.35c1.18-2.76,3.27-4.74,3.84-4.46
					c0.55,0.26-0.78,2.52,0,5.47c0.65,2.54,2.43,3.98,2.12,4.28c-0.24,0.22-1.4-0.4-2.27-1.25c-1.5-1.45-1.65-3.05-2.23-3.03
					c-0.46,0.03-0.76,1.01-0.94,1.62c-0.94,3.2-0.1,5.89,0.54,7.87c0.35,1.05,0.71,1.86,1.37,2.01c0.58,0.14,1.15-0.3,1.32-0.43
					C17.9,128.49,27.04,132.37,26.88,132.8z"/>
				<path class="st4" d="M27.49,163.02h-3.8c-0.54-0.54-0.93-1.03-1.21-1.37c-0.43-0.55-1.45-1.95-2.65-6.37
					c-1.94-7.26-0.43-8.13-2.26-13.32c-0.36-1.05-1.11-2.94-0.54-3.34c0.37-0.28,1.16,0.19,1.75,0.61c0.42,1.15,1.01,2.95,1.52,5.21
					c1.44,6.28,0.51,7.82,1.94,11.53C22.53,156.69,24.33,161.36,27.49,163.02z"/>
				<path class="st4" d="M34.35,131.43c-1.04,1.05-4.68-1.05-5.76-1.66c-4.16-2.38-7.46-6-7-6.6c0.4-0.53,3.02,2.54,8.44,3.59
					c1.32,0.25,2.9,0.42,3.85,1.68C34.6,129.36,34.93,130.84,34.35,131.43z"/>
				<path class="st4" d="M34.7,141.47c-0.64,0.44-1.66-0.57-4.18-1.73c-3.63-1.69-5.61-1.51-5.61-1.98c0.03-0.9,7.15-2.88,9.45,0.04
					C35.28,138.99,35.41,140.99,34.7,141.47z"/>
				<path class="st4" d="M36.67,161.97c-0.19,0.37-0.42,0.73-0.65,1.05h-3.7c0.82-0.4,1.55-0.98,1.97-1.76
					c1.22-2.18-0.43-4.96,0.6-5.53c0.51-0.29,1.34,0.22,1.79,0.62C38.05,157.62,37.41,160.43,36.67,161.97z"/>
				<path class="st4" d="M39.15,148.93c-0.65,0.65-2.72-1.93-6.55-2.15c-3.67-0.19-6.14,1.94-6.44,1.44
					c-0.29-0.47,1.77-2.72,4.56-3.78c1.23-0.47,3.53-1.36,5.68-0.22C38.65,145.41,39.76,148.32,39.15,148.93z"/>
				<path class="st4" d="M42.03,87.98c-1.19,2.04-4.34,1.37-7.88,2.08c-8.63,1.75-12.67,10.24-13.59,9.55
					c-0.76-0.57,1.58-6.49,6.54-11c4.35-3.96,11.53-7.55,14.22-5.29C42.53,84.35,42.85,86.61,42.03,87.98z"/>
				<path class="st4" d="M42.92,97.53c-1.87,2.41-5.29,0.9-9.4,2.08c-8.43,2.44-11.13,13.79-12.28,13.29
					c-0.86-0.36-0.19-6.93,3.95-12.58c5.2-7.11,14.9-11.34,17.72-8.85C44.34,92.71,44.26,95.81,42.92,97.53z"/>
				<path class="st4" d="M44.72,144.44c-1.59-0.11-2.65-1.68-3.44-3.06c-0.36-0.64-0.73-1.3-0.78-2.02
					c-0.04-0.54,0.1-1.07,0.29-1.57c0.51-1.34,1.44-2.52,2.59-2.76C43.23,138.22,43.68,141.43,44.72,144.44z"/>
				<path class="st4" d="M44.88,149.04c-0.11,0.22-1.9-0.28-3.49-1.19c-1.08-0.62-3.27-1.87-3.6-4.02c-0.1-0.62-0.08-1.55,0.25-1.66
					c0.51-0.17,1.14,1.83,3.05,3.85C43.04,148.1,45.01,148.79,44.88,149.04z"/>
				<path class="st4" d="M43.91,163.02h-1.68c0.79-1.29,0.94-2.72,0.97-3.09c0.14-1.7-0.43-2.97,0.03-3.21
					c0.37-0.21,1.16,0.32,1.59,0.97C45.98,159.46,44.37,162.29,43.91,163.02z"/>
				<path class="st4" d="M49.29,152.7c-0.01,0.26-1.84,0.48-3.67,0.26c-1.25-0.15-3.74-0.46-4.89-2.3c-0.33-0.54-0.67-1.4-0.4-1.62
					c0.4-0.36,1.75,1.23,4.31,2.37C47.23,152.54,49.29,152.42,49.29,152.7z"/>
				<path class="st4" d="M48.26,107.3c-0.44,0.85-2.24,0.76-4.88,0.61c-3.6-0.19-4.77-0.75-6.19-0.82
					c-6.06-0.3-10.61,8.34-11.14,7.94c-0.42-0.3,1.73-5.83,7.05-9.51c0.82-0.55,7.69-5.17,12.36-2.49
					C47.31,104.1,48.78,106.28,48.26,107.3z"/>
				<path class="st4" d="M52.02,142.28c-2.94-0.06-5.71-2.3-6.36-5.17c-0.36-1.52-0.15-3.12,0.04-4.67
					c0.12-0.97,0.26-1.97,0.76-2.81c0.5-0.83,1.45-1.48,2.38-1.07C47.49,133.27,48.74,138.65,52.02,142.28z"/>
				<path class="st4" d="M53.93,155.77c0,0.21-1.33,0.67-2.74,0.8c-0.96,0.08-2.9,0.26-4.06-0.94c-0.33-0.35-0.73-0.94-0.58-1.15
					c0.25-0.33,1.54,0.65,3.64,1.08C52.35,156,53.89,155.57,53.93,155.77z"/>
				<path class="st4" d="M49.43,121.41c-2.59,3.21-2.73,4.59-4.18,4.82c-2.06,0.35-4.17-2.02-5.9-3.96
					c-2.66-2.99-3.31-5.35-4.12-5.18c-0.85,0.18-1.11,2.99-0.93,5.42c0.54,7.07,4.88,11.42,4,12.14c-0.75,0.61-3.98-1.84-3.8-2.23
					c0.1-0.21,1.09,0.39,1.51,0c0.75-0.71-1.62-3.62-3.42-8.83c-0.65-1.83-0.98-2.79-1.04-4.09c-0.03-0.61-0.21-4.31,1.97-6.71
					c2.77-3.02,7.73-2.18,11.68-1.5c1.4,0.24,8.81,1.51,9.1,4.35C54.44,117.07,52.66,117.4,49.43,121.41z"/>
				<path class="st4" d="M55.47,162.72c-0.1,0.42-1.29,0.03-2.94,0.3h-7.25c0.54-0.36,0.87-0.76,1-0.93
					c1.66-2.02,0.54-4.68,1.48-5.04c0.58-0.21,1.66,0.6,1.94,1.51c0.33,1.05-0.53,1.8-0.14,2.31c0.43,0.54,1.57-0.19,3.26,0.14
					C54.28,161.29,55.58,162.27,55.47,162.72z"/>
				<path class="st4" d="M61.11,156.19c0.11,0.17-0.91,1.15-2.15,1.87c-0.83,0.48-2.51,1.47-4.07,0.86
					c-0.46-0.18-1.07-0.55-1.01-0.82c0.08-0.4,1.66-0.04,3.76-0.54C59.78,157.05,61,156.01,61.11,156.19z"/>
				<path class="st4" d="M64.87,104.81c-0.17,0.53-2.11-0.47-5.71,0.21c-3.77,0.71-5.46,2.52-7.05,1.55
					c-1.07-0.64-1.39-2.08-1.43-2.27c-0.06-0.28-0.32-1.58,0.39-2.47c0.67-0.85,1.93-0.91,3.24-0.83
					C59.29,101.3,65.14,103.91,64.87,104.81z"/>
				<path class="st4" d="M66.14,150.65c-0.26,0.49-0.85,0.71-1.39,0.83c-4.2,1.01-8.65-0.42-12.4-2.55
					c-1.23-0.71-2.45-1.51-3.34-2.63c-0.39-0.49-1.69-2.47-1.11-3.09c0.51-0.54,1.72,1.26,2.2,1.62
					C54.74,148.21,60.53,149.47,66.14,150.65z"/>
				<path class="st4" d="M68.23,117.81c-0.51,1.15-3.08,0.32-5.92,0.93c-5.15,1.14-7.52,6.25-8.01,5.89
					c-0.43-0.3,1.09-4.31,4.67-6.97c2.31-1.73,6.42-3.59,8.38-2.02C68.01,116.16,68.52,117.14,68.23,117.81z"/>
				<path class="st4" d="M69,43.52v0.82c-2.43-0.14-6.35-0.14-10.77,1.25c-5.35,1.7-8.49,4.5-8.85,4.5h-0.01
					c-1.43,0.98-3.26,2.38-5.09,4.25c0.53-0.33,1.08-0.65,1.68-0.96c4.34-2.22,8.98-2.52,10.67-1.08c0.17,0.15,0.67,0.58,0.75,1.23
					c0.14,1.15-1.16,2.09-1.4,2.26c-1.25,0.85-2.66,0.62-3.03,0.54c-1.93-0.43-4.63-0.75-7.62-0.01c-1.66,0.42-2.99,1.05-3.94,1.54
					c-0.91,1.29-1.75,2.72-2.43,4.31c2.38-2.09,5.7-2.69,8.3-2.09c0.9,0.21,2.91,0.68,3.19,2.02c0.22,1.14-0.89,2.56-2.08,2.88
					c-0.51,0.12-0.94,0.03-1.11,0c0,0-2.18-0.46-5.76,0.39c-2.16,0.5-3.48,1.98-4.32,2.94c-0.06,0.39-0.11,0.78-0.15,1.16
					c0.76-0.53,1.95-0.69,3.91-0.97c1.97-0.26,3.05-0.4,3.95,0.3c0.67,0.53,1.21,1.5,1.05,2.48c-0.22,1.33-1.64,1.98-2.06,2.18
					c-1.27,0.58-2.12,0.26-4.55,0.39c-1,0.04-1.83,0.15-2.45,0.24c0.06,1.22,0.18,2.33,0.32,3.28c0.73-0.69,1.34-1.33,1.84-1.87
					c-0.46,0.82-1.01,1.73-1.72,2.72c0.3,1.79,0.62,2.85,0.53,2.87c-0.08,0-0.5-0.86-0.94-2.3c-1.21,1.59-2.77,3.27-4.79,4.79
					c-1.65,1.23-2.01,1.16-4.02,2.51c-2.08,1.4-6.78,4.53-9.49,9.55c-2.69,4.92-2.99,10.77-1.87,11.21
					c1.09,0.43,3.73-4.24,4.21-3.95c0.36,0.22-1.43,2.87-2.34,6.96c-0.94,4.16-0.3,6.75-0.83,6.86c-0.71,0.12-2.7-4.25-3.12-9.17
					c-0.14-1.65-0.53-7.14,2.54-12.76c2.99-5.5,7.93-8.66,10.79-10.5c1.48-0.94,2.72-1.58,4.84-3.16c1.5-1.12,2.77-2.23,3.84-3.21
					c-0.62-2.31-1.19-5.72-0.85-9.51c0-0.08,0-0.17,0.01-0.25c0-0.1,0.01-0.18,0.03-0.28c0.25-2.36,0.85-4.84,2-7.28
					c3.28-6.98,9.7-10.68,12.65-11.9l0.01-0.01c1.58-1.5,4.67-3.81,8.7-4.92C63.05,42.7,66.68,43,69,43.52z"/>
				<path class="st4" d="M69,96.49v0.69c-0.91-0.68-4.91-7.09-11.4-7.54c-2.19-0.14-5.22,0.35-8.81-1.03
					c-1.14-0.44-2.36-1.08-2.73-2.27c-0.26-0.83-0.1-1.87,0.37-2.47c1.58-1.97,7.25-0.12,10.35,1.3C63.83,88.44,68.07,94.4,69,96.49
					z"/>
				<path class="st4" d="M69,100.36v0.69c-0.73,0.14-3.91-2.56-9.73-2.99c-4.42-0.32-8.4,0.82-10.67-1.16
					c-0.32-0.28-1.16-1.04-1.41-2.27c-0.18-0.89,0-1.9,0.39-2.47c1.47-2.15,7.7-0.21,8.67,0.1C62.83,94.3,68.01,98.64,69,100.36z"/>
				<path class="st4" d="M69,104.1v9.94c-4.37-0.47-7.23,1-7.91-0.36c-1.05-2.05,4.74-6.91,7.14-8.92
					C68.48,104.53,68.75,104.31,69,104.1z"/>
				<path class="st4" d="M69,119.51v4.1c-1.11,0.61-2.79,0.44-4.07,0.53c-6.72,0.4-10.55,7.95-11.21,7.43
					c-0.73-0.58,3.3-9.91,10.66-11.86C65.23,119.47,67.57,118.86,69,119.51z"/>
				<path class="st4" d="M69,124.89v5.92c-1.98,0.29-4.68,0.4-7.51,1.73c-4.61,2.18-6.51,6.12-7.08,5.72
					c-0.47-0.35,0.75-3.27,2.55-5.79C60.22,127.85,65.53,124.37,69,124.89z"/>
				<path class="st4" d="M69,132.91v3.66c-0.43,0-0.8-0.04-1.12-0.37c-0.55-0.57-0.6-1.62-0.18-2.36
					C68,133.3,68.51,133.03,69,132.91z"/>
				<path class="st2" d="M71.74,144.23c-0.42,0.07-1.39,0.28-2.74,0.3c-0.58,0-1.26-0.01-1.98-0.1c-1.43-0.15-3.03-0.35-4.6-1.5
					c-0.51-0.39-1.76-1.3-2.2-2.85c-0.24-0.83-0.19-1.62-0.1-2.2h0.75c0,0,1.59,0.01,4.52,0.4c1.43,0.19,2.63,1.03,3.62,2.04
					C70.31,141.65,71.23,143.32,71.74,144.23z"/>
				<path class="st4" d="M60.11,137.88c-0.1,0.58-0.14,1.37,0.1,2.2c0.44,1.55,1.69,2.47,2.2,2.85c1.57,1.15,3.17,1.34,4.6,1.5
					c0.72,0.08,1.4,0.1,1.98,0.1v0.72c-1.4,0.26-3.15,0.3-4.86-0.33c-1.91-0.72-4.23-2.48-4.55-4.84c-0.11-0.85,0.04-1.65,0.25-2.22
					c-0.73-0.01-1.33-0.1-1.45-0.43c-0.15-0.36,0.32-0.86,0.39-0.93c1.37-1.46,6.03-0.6,9.19,1.77c0.37,0.28,0.72,0.58,1.04,0.89
					v1.15c-0.98-1.01-2.19-1.84-3.62-2.04c-2.92-0.39-4.52-0.4-4.52-0.4H60.11z"/>
				<path class="st4" d="M69,158.03v1.16c-3.42-0.55-6.15-2.54-6.03-3.05c0.03-0.08,0.14-0.14,0.29-0.18
					c1.7-0.47,3.44,1.12,5.14,1.86C68.59,157.91,68.79,157.98,69,158.03z"/>
				<path class="st4" d="M69,159.35v2.37c-1.01,0.12-1.9,0.39-2.85,0.67c-0.67,0.19-1.29,0.4-1.87,0.64h-6.18
					C59.67,161,64.28,159.1,69,159.35z"/>
				<path class="st4" d="M69,53.69v5.21c-1.77,0-3.84-0.12-6.14-1.01c-1.14-0.43-2.36-1.07-2.74-2.26c-0.25-0.83-0.1-1.87,0.39-2.47
					C61.8,51.55,65.86,52.51,69,53.69z"/>
				<path class="st4" d="M69,66.2v2.72c-1.36-0.69-2.9-1.18-4.57-1.29c-2.31-0.15-5.54,0.36-9.35-1.09
					c-1.21-0.47-2.49-1.15-2.9-2.41c-0.29-0.89-0.11-1.98,0.4-2.63c1.66-2.06,7.69-0.11,10.99,1.4C65.6,63.83,67.42,64.98,69,66.2z"
					/>
				<path class="st4" d="M69,78.6v1.65c-1.97-2.05-5-4.56-8.97-4.81c-2.19-0.15-5.22,0.33-8.81-1.04c-1.14-0.44-2.36-1.08-2.73-2.27
					c-0.26-0.83-0.1-1.87,0.37-2.47c1.58-1.97,7.25-0.12,10.35,1.3C63.6,72.99,66.9,76.07,69,78.6z"/>
				<path class="st2" d="M36.04,73.85"/>
				<path class="st2" d="M52.03,48.24c0.08,0.11-1.03,0.69-2.66,1.84h-0.01c-1.43,0.98-3.26,2.38-5.09,4.25
					c-0.01,0.01-0.03,0.01-0.03,0.03c-0.98,1.03-1.97,2.18-2.87,3.49c-0.91,1.29-1.75,2.72-2.43,4.31
					c-0.04,0.08-0.08,0.15-0.11,0.24c-0.86,2.01-1.37,4-1.68,5.9c-0.06,0.39-0.11,0.78-0.15,1.16c-0.18,1.65-0.21,3.21-0.15,4.61
					c0.06,1.22,0.18,2.33,0.32,3.28c0.04,0.3,0.08,0.58,0.12,0.85c0.3,1.79,0.62,2.85,0.53,2.87c-0.08,0-0.5-0.86-0.94-2.3
					c-0.08-0.28-0.17-0.57-0.25-0.89c-0.62-2.31-1.19-5.72-0.85-9.51c0-0.08,0-0.17,0.01-0.25c0-0.1,0.01-0.18,0.03-0.28
					c0.25-2.36,0.85-4.84,2-7.28c3.28-6.98,9.7-10.68,12.65-11.9l0.01-0.01C51.4,48.31,51.98,48.17,52.03,48.24z"/>
				<path class="st2" d="M45.92,71.29c-0.22,1.33-1.64,1.98-2.06,2.18c-1.27,0.58-2.12,0.26-4.55,0.39c-1,0.04-1.83,0.15-2.45,0.24
					c-0.15,0.03-0.3,0.06-0.43,0.07c-0.15-0.35-1.08-2.56,0-4.12c0.15-0.24,0.35-0.42,0.58-0.57c0.76-0.53,1.95-0.69,3.91-0.97
					c1.97-0.26,3.05-0.4,3.95,0.3C45.53,69.33,46.08,70.3,45.92,71.29z"/>
				<path class="st2" d="M48.36,64.98c-0.51,0.12-0.94,0.03-1.11,0c0,0-2.18-0.46-5.76,0.39c-2.16,0.5-3.48,1.98-4.32,2.94
					c-0.53,0.61-0.87,1.03-1.12,0.87c-0.17-0.08-0.25-0.37-0.25-0.79c0-0.08,0-0.17,0.01-0.25c0-0.1,0.01-0.18,0.03-0.28
					c0.17-1.33,0.91-3.38,2.38-4.99c0.24-0.25,0.47-0.5,0.73-0.71c2.38-2.09,5.7-2.69,8.3-2.09c0.9,0.21,2.91,0.68,3.19,2.02
					C50.66,63.24,49.55,64.66,48.36,64.98z"/>
				<path class="st2" d="M57.37,53.54c0.14,1.15-1.16,2.09-1.4,2.26c-1.25,0.85-2.66,0.62-3.03,0.54c-1.93-0.43-4.63-0.75-7.62-0.01
					c-1.66,0.42-2.99,1.05-3.94,1.54c-0.89,0.47-1.43,0.79-1.52,0.65c-0.21-0.29,1.58-2.36,4.39-4.14c0-0.01,0.01-0.01,0.03-0.03
					c0.53-0.33,1.08-0.65,1.68-0.96c4.34-2.22,8.98-2.52,10.67-1.08C56.79,52.45,57.29,52.88,57.37,53.54z"/>
				<path class="st2" d="M41.43,27.36c-0.4,0.24-0.86,0.54-1.34,0.91c-0.17,0.12-0.32,0.26-0.49,0.4c-0.19,0.17-0.37,0.35-0.54,0.51
					c-0.1,0.08-0.18,0.17-0.25,0.25c-0.4,0.42-0.73,0.82-1,1.18c-1.21-0.71-3.44-2.23-5.2-5c-1.5-2.33-2.02-4.55-2.23-5.86
					c0.58-0.6,1.25-1.21,2.01-1.83c0.33-0.28,0.67-0.54,1-0.78c0.17-0.12,0.32-0.24,0.47-0.36c0.17-0.11,0.32-0.21,0.47-0.32
					c0.53,1.91,1.58,4.81,3.85,7.66C39.3,25.5,40.44,26.56,41.43,27.36z"/>
				<path class="st2" d="M64.16,20.64c-0.04,0.03-0.08,0.04-0.14,0.07c-1.68,0.91-4.09,2.54-6.21,5.28
					c-0.96,1.22-1.65,2.41-2.18,3.48c-0.06,0.11-0.1,0.21-0.15,0.32c-0.36-0.39-0.79-0.8-1.33-1.25h-0.01c0,0,0,0-0.01-0.01
					c-0.08-0.07-0.18-0.14-0.28-0.21c-0.8-0.61-1.57-1.01-2.19-1.3c0.39-1.3,1.34-3.77,3.55-6.06c1.86-1.93,3.82-2.91,5.02-3.4
					c0.5,0.32,1.04,0.69,1.59,1.09c0.11,0.1,0.24,0.18,0.36,0.29c0.07,0.04,0.12,0.08,0.19,0.14
					C63.02,19.61,63.62,20.14,64.16,20.64z"/>
				<path class="st2" d="M56.45,15.01c-1.15,0.54-2.81,1.5-4.34,3.17c-2.8,3.06-3.41,6.55-3.56,7.95v0.01
					c-0.07-0.01-0.15-0.04-0.24-0.06c-0.03,0-0.06-0.01-0.08-0.01H48.2c-0.21-0.04-0.4-0.07-0.61-0.1
					c-0.36-0.04-0.75-0.07-1.18-0.07c-0.17,0-0.33,0-0.51,0.01c-0.18,0.01-0.35,0.03-0.51,0.06c-0.01,0-0.01,0-0.03,0
					c-0.15,0.01-0.3,0.04-0.46,0.07c-0.33,0.06-0.64,0.12-0.9,0.19c-0.91-1.25-2.18-3.31-2.97-6.12c-0.76-2.72-0.79-5.04-0.68-6.57
					c0.43-0.18,0.93-0.36,1.51-0.51c0.91-0.24,1.73-0.3,2.38-0.3c0.76,6.58,1.37,7.98,1.8,7.98c0.48,0,0.65-1.7,1.97-4.14
					c0.9-1.64,1.88-2.84,2.59-3.59c0.06,0.01,0.11,0.01,0.18,0.03c0.01,0,0.03,0,0.04,0.01c0.67,0.11,1.39,0.28,2.16,0.51
					c1.27,0.39,2.36,0.87,3.24,1.36C56.3,14.93,56.38,14.97,56.45,15.01z"/>
				<path class="st2" d="M39.04,51.61c-0.01,0.03-0.03,0.06-0.04,0.1c-0.94,2.02-2.59,4.05-4.99,4.73
					c-0.03,0.01-0.06,0.01-0.08,0.01c-4.67,1.25-9.74-3.3-9.33-4.63c0.28-0.91,3.02,0.14,7.5-1.21c4.89-1.47,6.76-4.28,7.55-3.71
					l0.01,0.01C40.21,47.35,40.03,49.46,39.04,51.61z"/>
				<path class="st2" d="M38.88,44.49c-1.44,1.21-3.8,2.91-7.05,4.14c-3.28,1.22-6.18,1.48-8.06,1.5h-0.01
					c0-0.01-0.01-0.04-0.01-0.06c-0.47-1.48-0.93-2.99-1.4-4.49v-0.01c0.8-0.35,2.04-0.8,3.59-1.09c1.62-0.26,2.55-0.17,2.61-0.42
					c0.06-0.28-1.08-0.97-6.69-2.74c-0.01-0.28-0.03-0.57-0.01-0.87c-0.01-0.22-0.01-0.46-0.01-0.69c0-0.12,0-0.26,0.01-0.4
					c0-0.15,0.01-0.32,0.01-0.47c0.01-0.03,0.01-0.07,0.01-0.1c0-0.12,0-0.24,0.01-0.36c0.01-0.32,0.03-0.65,0.06-0.98
					c0.03-0.4,0.08-0.82,0.14-1.25c0.14-1.15,0.33-2.2,0.55-3.17c0.03,0.01,0.07,0.03,0.1,0.04c4.46,1.69,8.9,3.37,13.34,5.03v0.01
					c0.07,0.03,0.15,0.06,0.22,0.08c0.06,0.01,0.1,0.04,0.15,0.06c0.51,1.3,1.03,2.62,1.55,3.92c0.22,0.6,0.46,1.18,0.69,1.77
					C38.74,44.11,38.81,44.31,38.88,44.49z"/>
				<path class="st2" d="M33.92,33.41c-0.39,0.57-3.56-0.72-6.01-2.29c-1.61-1.04-2.79-2.11-3.56-2.9c0.04-0.1,0.08-0.19,0.14-0.29
					c0.03-0.06,0.04-0.11,0.08-0.17c0.28-0.68,0.67-1.41,1.12-2.19c0.72-1.19,1.47-2.16,2.15-2.94c0.3,1.36,0.9,3.33,2.13,5.43
					C31.94,31.43,34.27,32.9,33.92,33.41z"/>
				<path class="st2" d="M66.5,33.17c-0.87,1.12-1.76,1.94-2.4,2.47c-0.43-0.22-0.87-0.48-1.36-0.8c-0.01-0.01-0.03-0.03-0.06-0.04
					c-0.15-0.11-0.32-0.22-0.49-0.35c-0.78-0.57-1.43-1.15-1.94-1.69c-0.04-0.04-0.07-0.07-0.11-0.11c1.04-0.14,2.55-0.44,4.21-1.23
					c2.63-1.25,3.89-2.88,4.25-2.59C69.02,29.13,67.84,31.42,66.5,33.17z"/>
				<path class="st2" d="M69,43.52v0.82c-2.43-0.14-6.35-0.14-10.77,1.25c-5.35,1.7-8.49,4.5-8.85,4.5h-0.01
					c-0.01,0-0.01-0.01-0.01-0.01c-0.06-0.08,0.35-0.64,1.14-1.39l0.01-0.01c1.58-1.5,4.67-3.81,8.7-4.92
					C63.05,42.7,66.68,43,69,43.52z"/>
			</g>
			<path class="st3" d="M97.66,40.15c2.43-1.36,2.6-3.22,2.6-10.69V2.82c-7.41,0-11.14,5.26-13.01,8.26h-0.96l1.36-8.99l0.06-0.4
				h35.01l0.06,0.4l1.36,8.99h-0.96c-1.87-3-5.6-8.26-13.01-8.26v26.64c0,7.47,0.17,9.33,2.6,10.69v1.13h-15.1V40.15z"/>
			<path class="st3" d="M146.62,40.25c2.43-1.24,2.6-2.94,2.6-9.75v-7.07c0-4.59-1.02-7.74-4.86-7.74c-1.13,0-4.41,0.46-6.39,2.94
				V30.5c0,6.81,0.17,8.51,2.6,9.75v1.03h-15.1v-1.03c2.43-1.24,2.6-2.94,2.6-9.75V12.13c0-6.81-0.34-8.57-3.22-8.57V1.6
				c4.86,0,8.48-0.77,11.99-1.6h1.13v17.65c2.26-2.12,5.88-2.99,9.11-2.99c6.17,0,12.05,2.48,12.05,10.63v5.21
				c0,6.81,0.17,8.51,2.6,9.75v1.03h-15.1V40.25z"/>
			<path class="st3" d="M189.75,32.99c-2.54,4.03-5.74,4.66-7.75,4.66c-5.13,0-8.06-4.24-8.06-11.72v-1.09h15.76
				c0-6.91-6.76-10.12-11.83-10.12c-7.65,0-13.73,6.1-13.73,13.73c0,7.59,6.08,13.75,13.73,13.75c6.67,0,10.34-4.24,12.51-8.73
				L189.75,32.99z M177.86,15.73c2.44,0,3.16,3.62,3.2,8.06h-7.07C174.24,18.78,175.53,15.73,177.86,15.73z"/>
			<path class="st3" d="M86.29,90.57v-1.13c2.43-1.36,2.6-3.22,2.6-10.69V62.8c0-7.47-0.17-9.33-2.6-10.69v-1.13h31.28l0.06,0.4
				l1.36,8.99h-0.96c-1.87-3-5.6-8.26-13.01-8.26h-6.22v16.4h6.05c3.68,0,5.15-2.71,5.88-4.52l0.45-0.06v10.29l-0.45-0.06
				c-0.74-1.81-2.21-4.52-5.88-4.52h-6.05v19.8h6.22c7.41,0,11.14-5.26,13.01-8.26h0.96l-1.36,8.99l-0.06,0.4H86.29z"/>
			<path class="st3" d="M121.53,85.76c0-3.11,1.86-5.03,4.92-5.03c5.83,0,4.02,9.56,10.01,9.56c2.6,0,5.15-0.79,5.15-3.51
				c0-6.84-18.67-6.67-18.67-16.91c0-5.2,6.45-8.48,13.18-8.48c4.98,0,10.63,1.58,13.4,5.26c0,3.11-2.32,5.03-4.24,5.03
				c-6.45,0-3.73-9.16-9.16-9.16c-2.09,0-4.92,0.45-4.92,2.66c0,6.9,18.61,7.58,18.61,16.97c0,4.92-6.16,9.28-13.35,9.28
				C131.43,91.42,124.24,89.44,121.53,85.76L121.53,85.76z"/>
			<path class="st3" d="M152.64,85.76c0-3.11,1.86-5.03,4.92-5.03c5.83,0,4.02,9.56,10.01,9.56c2.6,0,5.15-0.79,5.15-3.51
				c0-6.84-18.67-6.67-18.67-16.91c0-5.2,6.45-8.48,13.18-8.48c4.98,0,10.63,1.58,13.4,5.26c0,3.11-2.32,5.03-4.24,5.03
				c-6.45,0-3.73-9.16-9.16-9.16c-2.09,0-4.92,0.45-4.92,2.66c0,6.9,18.61,7.58,18.61,16.97c0,4.92-6.16,9.28-13.35,9.28
				C162.53,91.42,155.35,89.44,152.64,85.76L152.64,85.76z"/>
			<path class="st3" d="M212.36,81.4c-2.77,4.42-6.28,5.1-8.48,5.1c-5.6,0-8.83-4.64-8.83-12.85v-1.19h17.25
				c0-7.58-7.41-11.09-12.96-11.09c-8.37,0-15.05,6.68-15.05,15.05c0,8.31,6.68,15.05,15.05,15.05c7.3,0,11.32-4.64,13.69-9.56
				L212.36,81.4z M199.35,62.51c2.66,0,3.45,3.96,3.51,8.83h-7.75C195.4,65.85,196.81,62.51,199.35,62.51z"/>
			<path class="st3" d="M239.06,89.44c2.43-1.36,2.6-3.22,2.6-10.69V71c0-5.04-1.02-8.48-4.86-8.48c-1.13,0-4.41,0.51-6.39,3.22
				v13.01c0,7.47,0.17,9.33,2.6,10.69v1.13h-15.1v-1.13c2.43-1.36,2.6-3.22,2.6-10.69v-4.07c0-7.47-0.34-9.39-3.22-9.39v-2.15
				c4.86,0,8.48-0.85,11.99-1.75h1.13v3.28c2.26-2.32,5.88-3.28,9.11-3.28c6.17,0,12.05,2.72,12.05,11.65v5.71
				c0,7.47,0.17,9.33,2.6,10.69v1.13h-15.1V89.44z"/>
			<path class="st3" d="M258.4,76.43c0-8.37,6.68-15.05,15.04-15.05c4.98,0,10.24,2.38,12.95,6.11c0,3.05-1.7,4.98-4.24,4.98
				c-6.9,0-3.68-9.95-8.77-9.95c-2.88,0-4.24,4.3-4.24,11.14c0,8.2,3.22,12.84,8.82,12.84c2.21,0,5.71-0.68,8.48-5.09l0.68,0.51
				c-2.38,4.92-6.39,9.56-13.69,9.56C265.07,91.47,258.4,84.74,258.4,76.43L258.4,76.43z"/>
			<path class="st3" d="M319.71,81.4c-2.77,4.42-6.29,5.1-8.49,5.1c-5.6,0-8.81-4.64-8.81-12.85v-1.19h17.24
				c0-7.58-7.4-11.09-12.94-11.09c-8.37,0-15.05,6.68-15.05,15.05c0,8.31,6.68,15.05,15.05,15.05c7.29,0,11.31-4.64,13.69-9.56
				L319.71,81.4z M306.7,62.51c2.66,0,3.45,3.96,3.51,8.83h-7.75C302.74,65.85,304.15,62.51,306.7,62.51z"/>
		</g>
		<rect x="69" y="25.46" class="st3" width="7.34" height="23.3"/>
	</g>
</g>
</svg>
