<?xml version="1.0" encoding="UTF-8"?>
<svg id="Capa_1" data-name="Capa 1" xmlns="http://www.w3.org/2000/svg" viewBox="0 0 160.19 91.15">
  <defs>
    <style>
      .cls-1, .cls-2, .cls-3 {
        stroke-width: 0px;
      }

      .cls-2 {
        fill: none;
      }

      .cls-3 {
        fill: #fff;
      }
    </style>
  </defs>
  <path class="cls-3" d="m13.44,66.4c-.06.16-2.6-1.03-4.3-.05-.23.13-.87.5-.89,1.02-.02.42.37.75.21,1.08-.07.13-.22.23-.36.25-.47.04-.97-1.06-1.31-1.93-1.1-2.86-2.03-5.24-.98-7.68.59-1.38,1.64-2.37,1.92-2.23.28.13-.39,1.26,0,2.74.33,1.27,1.21,1.99,1.06,2.14-.12.11-.7-.2-1.14-.62-.74-.73-.82-1.53-1.11-1.52-.23.01-.38.5-.47.81-.47,1.6-.05,2.94.27,3.93.17.53.35.93.68,1.01.29.07.58-.15.66-.22,1.27-.89,5.84,1.05,5.76,1.27Z"/>
  <path class="cls-3" d="m17.17,65.71c-.52.53-2.34-.53-2.88-.83-2.08-1.19-3.73-3-3.5-3.3.2-.26,1.51,1.27,4.22,1.79.66.13,1.45.21,1.93.84.36.47.52,1.21.23,1.5Z"/>
  <path class="cls-3" d="m17.35,70.73c-.32.22-.83-.28-2.1-.86-1.81-.85-2.8-.76-2.8-.99.01-.45,3.57-1.45,4.72.02.47.59.53,1.59.18,1.83Z"/>
  <path class="cls-3" d="m19.57,74.46c-.32.33-1.36-.96-3.28-1.07-1.83-.1-3.07.97-3.22.72-.14-.24.89-1.36,2.28-1.89.62-.24,1.77-.68,2.84-.12,1.13.6,1.69,2.06,1.38,2.36Z"/>
  <path class="cls-3" d="m21.01,43.99c-.59,1.02-2.17.68-3.94,1.04-4.32.87-6.33,5.12-6.8,4.77-.38-.28.79-3.24,3.27-5.5,2.18-1.98,5.77-3.78,7.11-2.65.61.52.77,1.65.36,2.34Z"/>
  <path class="cls-3" d="m21.46,48.76c-.94,1.21-2.65.45-4.7,1.04-4.21,1.22-5.57,6.89-6.14,6.65-.43-.18-.1-3.47,1.97-6.3,2.6-3.55,7.45-5.66,8.87-4.42.71.62.67,2.17,0,3.03Z"/>
  <path class="cls-3" d="m22.36,72.22c-.8-.06-1.33-.84-1.72-1.54-.18-.31-.37-.65-.39-1.01-.02-.27.05-.53.15-.78.25-.67.72-1.26,1.29-1.38-.07,1.59.15,3.2.67,4.71Z"/>
  <path class="cls-3" d="m22.44,74.52c-.06.11-.95-.14-1.75-.6-.54-.31-1.63-.94-1.8-2.01-.05-.31-.04-.78.13-.83.25-.08.57.91,1.52,1.92.98,1.04,1.96,1.39,1.9,1.52Z"/>
  <path class="cls-3" d="m24.64,76.34c0,.14-.92.25-1.83.14-.63-.08-1.87-.23-2.45-1.15-.17-.27-.33-.7-.2-.81.2-.18.87.61,2.15,1.18,1.3.57,2.33.51,2.33.64Z"/>
  <path class="cls-3" d="m24.13,53.65c-.22.42-1.12.38-2.44.3-1.8-.1-2.38-.37-3.1-.41-3.02-.15-5.3,4.17-5.57,3.97-.2-.15.87-2.91,3.53-4.75.41-.28,3.85-2.58,6.18-1.25.92.54,1.66,1.62,1.4,2.14Z"/>
  <path class="cls-3" d="m26.01,71.13c-1.47-.02-2.86-1.15-3.18-2.58-.18-.76-.08-1.56.02-2.34.06-.48.13-.98.38-1.4.25-.42.73-.74,1.19-.54-.68,2.36-.05,5.05,1.59,6.86Z"/>
  <path class="cls-3" d="m26.96,77.88c0,.11-.66.34-1.37.4-.48.05-1.45.14-2.03-.47-.16-.17-.37-.47-.29-.57.13-.17.77.32,1.82.54,1.08.21,1.85,0,1.87.1Z"/>
  <path class="cls-3" d="m27.15,57.82c.07.71-.82.88-2.44,2.88-1.29,1.61-1.36,2.29-2.09,2.41-1.03.17-2.09-1.01-2.95-1.98-1.33-1.5-1.66-2.68-2.06-2.59-.42.09-.55,1.49-.46,2.71.27,3.53,2.44,5.71,2,6.07-.38.3-1.99-.92-1.9-1.12.05-.1.55.2.76,0,.37-.35-.82-1.81-1.72-4.41-.32-.92-.49-1.4-.52-2.05-.01-.3-.1-2.15.99-3.35,1.38-1.51,3.86-1.09,5.84-.75.7.12,4.41.76,4.55,2.18Z"/>
  <path class="cls-3" d="m30.55,78.09c.06.08-.45.58-1.07.94-.42.24-1.25.73-2.04.43-.23-.09-.53-.28-.5-.41.04-.2.83-.02,1.87-.27,1.08-.26,1.69-.78,1.74-.69Z"/>
  <path class="cls-3" d="m32.43,52.4c-.08.26-1.05-.24-2.85.1-1.89.36-2.73,1.26-3.53.78-.53-.32-.69-1.04-.71-1.14-.03-.14-.16-.79.19-1.23.33-.42.96-.46,1.62-.42,2.5.16,5.42,1.46,5.28,1.91Z"/>
  <path class="cls-3" d="m33.07,75.32c-.13.24-.42.35-.69.41-2.1.51-4.33-.2-6.21-1.27-.61-.35-1.22-.76-1.67-1.32-.19-.24-.84-1.23-.55-1.54.26-.27.86.63,1.1.81,2.32,1.69,5.21,2.32,8.02,2.91Z"/>
  <path class="cls-3" d="m34.11,58.9c-.25.57-1.53.16-2.95.46-2.58.57-3.77,3.13-4.01,2.95-.21-.16.55-2.16,2.34-3.49,1.15-.86,3.2-1.79,4.19-1.01.32.26.58.76.43,1.09Z"/>
  <path class="cls-3" d="m12.3,25.9c.13-.45,1.51.07,3.74-.6,2.45-.73,3.39-2.14,3.78-1.86h.01c.26.22.19,1.18-.25,2.19-.01.06-.03.11-.06.17-.01,0-.02.03-.03.05-.28.71-.84,1.71-1.89,2.17-.2.09-.41.15-.6.19-.01.01-.03.01-.04.01-2.34.62-4.87-1.65-4.66-2.32Z"/>
  <path class="cls-3" d="m13.95,15.56c-.8-.52-1.39-1.05-1.78-1.45.02-.05.04-.1.07-.14.01-.03.02-.06.04-.09.14-.34.33-.7.56-1.09.36-.6.74-1.08,1.08-1.47.15.68.45,1.66,1.06,2.72.99,1.67,2.15,2.41,1.98,2.66-.19.29-1.78-.36-3.01-1.14Z"/>
  <path class="cls-3" d="m11.35,16.52c2.23.85,4.45,1.69,6.68,2.52.03.02.07.03.11.05.02,0,.05.02.07.02.26.66.52,1.31.78,1.97.11.29.23.58.35.88.03.09.06.19.1.28-.72.6-1.9,1.45-3.53,2.07-1.64.61-3.09.74-4.03.75h-.01v-.03c-.24-.74-.47-1.5-.7-2.24h0c.4-.18,1.02-.41,1.79-.56.81-.13,1.28-.08,1.3-.21.03-.13-.54-.48-3.34-1.37-.01-.14-.02-.28-.01-.43,0-.14.01-.27.01-.41v-.2c0-.07,0-.16.02-.23.01-.02.01-.04.01-.05v-.18c.01-.16.02-.33.04-.49.02-.2.05-.41.07-.63.08-.54.18-1.05.29-1.51Z"/>
  <path class="cls-3" d="m16.31,12.8c-.75-1.16-1.01-2.27-1.12-2.93.29-.3.63-.6,1.01-.91.16-.14.33-.27.5-.39.08-.06.16-.12.23-.18.08-.06.16-.11.24-.16.26.96.79,2.4,1.92,3.83.56.69,1.13,1.21,1.62,1.62-.2.11-.43.27-.67.45-.08.06-.16.13-.24.2-.1.09-.19.18-.27.26-.05.04-.09.08-.13.12-.2.21-.36.41-.49.59-.61-.35-1.72-1.11-2.6-2.5Z"/>
  <path class="cls-3" d="m22,13.12c-.46-.62-1.09-1.65-1.49-3.06-.38-1.36-.39-2.52-.34-3.29.22-.09.47-.18.76-.25.46-.12.87-.15,1.19-.15.38,3.29.69,3.99.9,3.99.24,0,.33-.86.99-2.08.45-.81.94-1.42,1.29-1.79.03.01.06.01.09.01.01,0,.02,0,.02.01.33.06.69.14,1.08.26.64.19,1.18.43,1.62.68.04.01.08.03.12.05-.58.27-1.41.75-2.17,1.59-1.4,1.53-1.71,3.28-1.78,3.98-.05-.01-.08-.02-.12-.03h-.06c-.11-.02-.21-.04-.31-.05-.18-.02-.37-.04-.59-.04-.08,0-.16.01-.25.02-.09,0-.17.01-.26.02h-.01c-.08.01-.16.02-.23.03-.17.03-.32.07-.45.1Z"/>
  <path class="cls-3" d="m31.18,9.54c.33.26.63.53.9.77-.02.02-.04.03-.07.04-.84.46-2.05,1.27-3.11,2.64-.47.61-.82,1.2-1.08,1.74-.03.05-.05.1-.08.16-.18-.2-.39-.4-.67-.63h-.01s-.09-.07-.14-.11c-.4-.3-.78-.5-1.09-.65.19-.65.67-1.88,1.77-3.03.93-.96,1.91-1.45,2.51-1.69.25.16.52.34.8.54.05.05.11.09.18.15.03.02.06.04.09.07Z"/>
  <path class="cls-3" d="m30.07,16.32c.52-.07,1.28-.23,2.11-.62,1.32-.63,1.95-1.44,2.13-1.3.2.16-.39,1.31-1.06,2.18-.44.56-.88.97-1.2,1.23-.22-.11-.44-.24-.68-.4t-.03-.02c-.07-.06-.16-.11-.24-.17-.39-.29-.71-.58-.97-.85-.02-.02-.03-.03-.06-.05Z"/>
  <path class="cls-3" d="m22.8,82.88h-2.15c.06-.04.12-.08.18-.13.47-.1,1.18-.25,1.82.05.05.02.1.05.15.08Z"/>
  <path class="cls-3" d="m15.82,82.88h-.65c.22,0,.42-.02.6-.04.01.02.03.02.05.04Z"/>
  <path class="cls-3" d="m36.34,3.85v46.85c-.51.26-1.08.71-1.84,1.35v-1.53c-.37.07-1.96-1.28-4.87-1.49-2.21-.16-4.2.4-5.33-.59-.16-.14-.59-.52-.71-1.13-.09-.45,0-.95.19-1.24.74-1.07,3.86-.1,4.34.05,3.29,1.03,5.88,3.2,6.38,4.06v-1.59c-.46-.34-2.46-3.55-5.71-3.77-1.09-.07-2.61.17-4.4-.51-.57-.23-1.18-.54-1.37-1.14-.13-.42-.05-.94.19-1.23.79-.99,3.62-.07,5.17.65,3.53,1.63,5.65,4.61,6.12,5.65v-8.12c-.99-1.02-2.51-2.28-4.49-2.4-1.09-.08-2.61.16-4.4-.52-.57-.22-1.18-.54-1.37-1.14-.13-.41-.05-.93.19-1.23.79-.99,3.62-.06,5.17.65,2.2,1.01,3.85,2.55,4.9,3.82v-4.85c-.68-.34-1.45-.58-2.29-.64-1.16-.08-2.77.18-4.68-.55-.6-.23-1.24-.57-1.45-1.2-.14-.45-.05-.99.21-1.32.83-1.03,3.84-.06,5.49.7,1.02.47,1.93,1.05,2.72,1.66v-3.66c-.89,0-1.92-.06-3.07-.5-.57-.22-1.18-.53-1.38-1.13-.12-.42-.04-.94.2-1.23.65-.81,2.68-.33,4.25.26V4.99H4.72v76.52h7.13c.45.43,1.1.92,2.01,1.18.47.14.92.19,1.31.19H3.22V3.85h33.12Z"/>
  <path class="cls-3" d="m36.34,79.57v.45c-.33-.12-.68-.2-1.03-.26v-.09c.27.01.54-.01.81-.06.07-.01.15-.02.22-.04Z"/>
  <g>
    <g>
      <g>
        <path class="cls-1" d="m38.84,78.3v3.22c-.64-.58-1.38-1.05-2.11-1.36-.13-.05-.26-.1-.39-.14-.33-.12-.68-.2-1.03-.26v-.09c.27.01.54-.01.81-.06.07-.01.15-.02.22-.04.3-.06.61-.15.91-.27.21-.09.42-.19.61-.3.04-.02.08-.04.11-.06.32-.19.61-.4.87-.64Z"/>
        <path class="cls-3" d="m26.01,71.13c-1.47-.02-2.86-1.15-3.18-2.58-.18-.76-.08-1.56.02-2.34.06-.48.13-.98.38-1.4.25-.42.73-.74,1.19-.54-.68,2.36-.05,5.05,1.59,6.86Z"/>
        <path class="cls-3" d="m22.36,72.22c-.8-.06-1.33-.84-1.72-1.54-.18-.31-.37-.65-.39-1.01-.02-.27.05-.53.15-.78.25-.67.72-1.26,1.29-1.38-.07,1.59.15,3.2.67,4.71Z"/>
        <path class="cls-3" d="m33.07,75.32c-.13.24-.42.35-.69.41-2.1.51-4.33-.2-6.21-1.27-.61-.35-1.22-.76-1.67-1.32-.19-.24-.84-1.23-.55-1.54.26-.27.86.63,1.1.81,2.32,1.69,5.21,2.32,8.02,2.91Z"/>
        <path class="cls-3" d="m36.02,64.6c-.21.52-.76.68-1.52.8-1,.14-2.35.2-3.76.86-2.31,1.09-3.26,3.07-3.54,2.86-.24-.17.37-1.63,1.27-2.89,1.64-2.31,4.29-4.05,6.03-3.79.13.02.25.05.37.09.21.08.81.29,1.09.86.2.4.18.89.06,1.21Z"/>
        <path class="cls-1" d="m34.11,58.9c-.25.57-1.53.16-2.95.46-2.58.57-3.77,3.13-4.01,2.95-.21-.16.55-2.16,2.34-3.49,1.15-.86,3.2-1.79,4.19-1.01.32.26.58.76.43,1.09Z"/>
        <path class="cls-3" d="m43.79,64.91c-.13.27-1.6-.9-4.08-.67-.8.08-1.63.28-2.37-.21-.11-.06-.74-.49-.7-1.03.04-.48.59-.78.76-.87,1.91-1.06,6.62,2.28,6.39,2.78Z"/>
        <path class="cls-3" d="m42.77,63.08c-.2.21-1.08-.91-2.98-1.31-1.64-.35-2.68.11-3.21-.59-.15-.2-.24-.48-.24-.74,0-.18.04-.34.12-.48.5-.76,2.51-.45,3.88.3,1.67.9,2.66,2.57,2.43,2.82Z"/>
        <path class="cls-3" d="m39.41,59.45c-.04.11-.68-.27-1.85-.23-.61.02-.95.16-1.22.04-.04-.02-.08-.04-.13-.08-.32-.25-.44-.87-.21-1.11.08-.08.19-.11.34-.12.95-.05,3.14,1.31,3.07,1.5Z"/>
        <path class="cls-3" d="m27.15,57.82c.07.71-.82.88-2.44,2.88-1.29,1.61-1.36,2.29-2.09,2.41-1.03.17-2.09-1.01-2.95-1.98-1.33-1.5-1.66-2.68-2.06-2.59-.42.09-.55,1.49-.46,2.71.27,3.53,2.44,5.71,2,6.07-.38.3-1.99-.92-1.9-1.12.05-.1.55.2.76,0,.37-.35-.82-1.81-1.72-4.41-.32-.92-.49-1.4-.52-2.05-.01-.3-.1-2.15.99-3.35,1.38-1.51,3.86-1.09,5.84-.75.7.12,4.41.76,4.55,2.18Z"/>
        <path class="cls-3" d="m43.3,66.23s-.1.1-.3.23c-.02-.04-.05-.05-.07-.05-.02.01-.02.04,0,.12-.47.34-1.29,1.02-1.7,2.12-.4,1.08-.26,2.12-.12,2.74,0,.01,0,.02.01.04.08.34.14.55.1.56-.11.02-1.11-1.67-.54-3.35.59-1.75,2.56-2.49,2.62-2.41Z"/>
        <path class="cls-3" d="m43,66.46s-.04.04-.07.07c-.02-.08-.02-.11,0-.12.02,0,.05.01.07.05Z"/>
        <path class="cls-3" d="m43.3,69.47c-.14.47-.34.76-.39.83-.56.77-1.4,1.04-1.79,1.13-.01-.02-.01-.03-.01-.04.59-.35,1.24-.88,1.62-1.68.67-1.36.25-2.78.2-3.18-.02-.08-.02-.11,0-.12.02,0,.05.01.07.05.22.3.72,1.66.3,3.01Z"/>
        <path class="cls-3" d="m40.77,65.9c0,.27-.23.43-.4.61-.8.83-.57,1.97-.79,1.98-.35.03-1.24-2.68-.38-3.27.26-.19.71-.18,1.03-.03.25.12.55.4.54.71Z"/>
        <path class="cls-3" d="m41.34,74.04c.07.29-.89.41-1.35,1.24,0,.02-.03.05-.03.07.02-.68.26-1.36.72-1.5.27-.08.62.03.66.19Z"/>
        <path class="cls-1" d="m24.13,53.65c-.22.42-1.12.38-2.44.3-1.8-.1-2.38-.37-3.1-.41-3.02-.15-5.3,4.17-5.57,3.97-.2-.15.87-2.91,3.53-4.75.41-.28,3.85-2.58,6.18-1.25.92.54,1.66,1.62,1.4,2.14Z"/>
        <path class="cls-3" d="m21.46,48.76c-.94,1.21-2.65.45-4.7,1.04-4.21,1.22-5.57,6.89-6.14,6.65-.43-.18-.1-3.47,1.97-6.3,2.6-3.55,7.45-5.66,8.87-4.42.71.62.67,2.17,0,3.03Z"/>
        <path class="cls-3" d="m21.01,43.99c-.59,1.02-2.17.68-3.94,1.04-4.32.87-6.33,5.12-6.8,4.77-.38-.28.79-3.24,3.27-5.5,2.18-1.98,5.77-3.78,7.11-2.65.61.52.77,1.65.36,2.34Z"/>
        <path class="cls-3" d="m32.43,52.4c-.08.26-1.05-.24-2.85.1-1.89.36-2.73,1.26-3.53.78-.53-.32-.69-1.04-.71-1.14-.03-.14-.16-.79.19-1.23.33-.42.96-.46,1.62-.42,2.5.16,5.42,1.46,5.28,1.91Z"/>
        <path class="cls-3" d="m34.56,50.48s-.04.03-.06.04c-.37.07-1.96-1.28-4.87-1.49-2.21-.16-4.2.4-5.33-.59-.16-.14-.59-.52-.71-1.13-.09-.45,0-.95.19-1.24.74-1.07,3.86-.1,4.34.05,3.29,1.03,5.88,3.2,6.38,4.06.07.13.09.24.06.3Z"/>
        <path class="cls-3" d="m34.58,48.61s-.05.01-.08-.02c-.46-.34-2.46-3.55-5.71-3.77-1.09-.07-2.61.17-4.4-.51-.57-.23-1.18-.54-1.37-1.14-.13-.42-.05-.94.19-1.23.79-.99,3.62-.07,5.17.65,3.53,1.63,5.65,4.61,6.12,5.65.09.2.11.33.08.37Z"/>
        <path class="cls-1" d="m34.5,39.3v.82c-.99-1.02-2.51-2.28-4.49-2.4-1.09-.08-2.61.16-4.4-.52-.57-.22-1.18-.54-1.37-1.14-.13-.41-.05-.93.19-1.23.79-.99,3.62-.06,5.17.65,2.2,1.01,3.85,2.55,4.9,3.82Z"/>
        <path class="cls-3" d="m34.5,26.84v2.6c-.89,0-1.92-.06-3.07-.5-.57-.22-1.18-.53-1.38-1.13-.12-.42-.04-.94.2-1.23.65-.81,2.68-.33,4.25.26Z"/>
        <path class="cls-3" d="m34.5,33.1v1.35c-.68-.34-1.45-.58-2.29-.64-1.16-.08-2.77.18-4.68-.55-.6-.23-1.24-.57-1.45-1.2-.14-.45-.05-.99.21-1.32.83-1.03,3.84-.06,5.49.7,1.02.47,1.93,1.05,2.72,1.66Z"/>
        <path class="cls-3" d="m13.44,66.4c-.06.16-2.6-1.03-4.3-.05-.23.13-.87.5-.89,1.02-.02.42.37.75.21,1.08-.07.13-.22.23-.36.25-.47.04-.97-1.06-1.31-1.93-1.1-2.86-2.03-5.24-.98-7.68.59-1.38,1.64-2.37,1.92-2.23.28.13-.39,1.26,0,2.74.33,1.27,1.21,1.99,1.06,2.14-.12.11-.7-.2-1.14-.62-.74-.73-.82-1.53-1.11-1.52-.23.01-.38.5-.47.81-.47,1.6-.05,2.94.27,3.93.17.53.35.93.68,1.01.29.07.58-.15.66-.22,1.27-.89,5.84,1.05,5.76,1.27Z"/>
        <path class="cls-1" d="m19.57,74.46c-.32.33-1.36-.96-3.28-1.07-1.83-.1-3.07.97-3.22.72-.14-.24.89-1.36,2.28-1.89.62-.24,1.77-.68,2.84-.12,1.13.6,1.69,2.06,1.38,2.36Z"/>
        <path class="cls-3" d="m17.35,70.73c-.32.22-.83-.28-2.1-.86-1.81-.85-2.8-.76-2.8-.99.01-.45,3.57-1.45,4.72.02.47.59.53,1.59.18,1.83Z"/>
        <path class="cls-3" d="m17.17,65.71c-.52.53-2.34-.53-2.88-.83-2.08-1.19-3.73-3-3.5-3.3.2-.26,1.51,1.27,4.22,1.79.66.13,1.45.21,1.93.84.36.47.52,1.21.23,1.5Z"/>
        <path class="cls-1" d="m23.96,82.88s-.09.08-.14.12c-.01-.05-.02-.08-.02-.12h.16Z"/>
        <path class="cls-1" d="m22.8,82.88h-.14s-.01-.06-.01-.08c.05.02.1.05.15.08Z"/>
        <path class="cls-3" d="m40.77,86.12c-.41,2.27-2.93,3.97-3.52,3.87-.35.36-1.01.9-1.94,1.09-1.03.21-2.05-.09-2.69-.54-1.76.62-4.24-.43-5.46-1.19-.54-.35-.9-.67-1.19-.94-.79-.72-1.47-1.57-2.01-2.41-.72-1.14-1.17-2.28-1.3-3.12h.14s-.1-.06-.15-.08c-.64-.3-1.35-.15-1.82-.05-.06.05-.12.09-.18.13-.32.21-.7.41-1.15.54-1.47.42-2.92-.08-3.68-.54-.02-.02-.04-.02-.05-.04-.18.02-.38.04-.6.04-.39,0-.84-.05-1.31-.19-.91-.26-1.56-.75-2.01-1.18-.27-.27-.47-.52-.61-.69-.21-.28-.72-.98-1.32-3.19-.97-3.63-.22-4.06-1.13-6.66-.18-.52-.55-1.46-.27-1.66.19-.14.58.09.87.3.21.57.51,1.48.77,2.61.72,3.13.25,3.9.97,5.76.13.36,1.03,2.69,2.61,3.53.32.16.65.27,1.01.29.44.02.96-.08,1.41-.29.4-.2.77-.5.98-.88.61-1.09-.22-2.48.3-2.77.25-.14.67.11.89.31.69.63.38,2.04,0,2.81-.1.19-.21.37-.32.53-.34.45-.75.77-1.08.97.03.02.06.03.07.04.94.57,2.78.39,3.73-.52.15-.15.28-.32.39-.49.39-.65.47-1.36.48-1.55.07-.85-.21-1.48.02-1.61.18-.1.58.16.79.49.58.89-.23,2.3-.46,2.67-.02.03-.03.06-.04.07-.03.05-.09.13-.16.23.14,0,.29-.02.48-.09.16-.06.29-.14.41-.21.27-.18.44-.38.5-.47.83-1.01.27-2.34.74-2.52.29-.1.83.3.97.76.17.52-.26.9-.07,1.15.22.27.78-.09,1.63.07.73.14,1.38.63,1.32.85-.05.21-.64.02-1.47.16-.15.02-.31.05-.47.1-.88.27-1.38.89-1.83,1.27h-.16s.01.07.02.12c.12.73.28,1.64.7,2.49.09.18.18.35.28.51.86,1.41,2.05,2.16,2.4,2.37,2.18,1.34,5.49,1.67,6.35.39.48-.73.11-1.9-.16-2.76-.17-.57-.3-1-.12-1.09.21-.1.59.31.63.35.18.2.33.45.44.74.46,1.22.19,3.07-.83,4.01-.06.05-.12.1-.19.15l.21.06c.6.16,1.27.19,1.76.09,1.53-.33,2.86-2.26,2.59-3.74-.2-1.05-1.2-1.75-.99-2,.11-.13.47-.05.73.1.89.56,1.12,2.59.37,4.21.09-.03.16-.05.23-.08,1.13-.42,1.74-2.11,1.76-3.34.05-1.73-1.01-2.88-1.28-3.16-.37-.39-.79-.68-1.2-.9-.41-.21-.81-.34-1.16-.42-.51-.12-.92-.14-1.1-.15-.27-.01-.52,0-.74.03-.51.06-.95.19-1.43.33-.33.09-.65.2-.94.32-1.81.7-2.76,1.6-3.21,1.24-.23-.2-.17-.62-.16-.66.03-.19.12-.39.28-.58.79-1.02,3.1-1.96,5.46-1.84.27.01.54.04.81.09.35.06.7.14,1.03.26.13.04.26.09.39.14.73.31,1.47.78,2.11,1.36,1.32,1.21,2.24,2.9,1.93,4.6Z"/>
        <path class="cls-1" d="m24.64,76.34c0,.14-.92.25-1.83.14-.63-.08-1.87-.23-2.45-1.15-.17-.27-.33-.7-.2-.81.2-.18.87.61,2.15,1.18,1.3.57,2.33.51,2.33.64Z"/>
        <path class="cls-3" d="m22.44,74.52c-.06.11-.95-.14-1.75-.6-.54-.31-1.63-.94-1.8-2.01-.05-.31-.04-.78.13-.83.25-.08.57.91,1.52,1.92.98,1.04,1.96,1.39,1.9,1.52Z"/>
        <path class="cls-1" d="m26.96,77.88c0,.11-.66.34-1.37.4-.48.05-1.45.14-2.03-.47-.16-.17-.37-.47-.29-.57.13-.17.77.32,1.82.54,1.08.21,1.85,0,1.87.1Z"/>
        <path class="cls-1" d="m30.55,78.09c.06.08-.45.58-1.07.94-.42.24-1.25.73-2.04.43-.23-.09-.53-.28-.5-.41.04-.2.83-.02,1.87-.27,1.08-.26,1.69-.78,1.74-.69Z"/>
        <path class="cls-1" d="m38.84,1.16v49.69c-.46-.27-.97-.43-1.5-.41-.34.01-.66.09-1,.26-.51.26-1.08.71-1.84,1.35v-1.53s.04-.02.06-.04c.03-.06.01-.17-.06-.3v-1.59s.06.03.08.02c.03-.04.01-.17-.08-.37V4.99H4.72v76.52h7.13c.45.43,1.1.92,2.01,1.18.47.14.92.19,1.31.19.22,0,.42-.02.6-.04.01.02.03.02.05.04.76.46,2.21.96,3.68.54.45-.13.83-.33,1.15-.54.06-.04.12-.08.18-.13.47-.1,1.18-.25,1.82.05,0,.02,0,.05.01.08.13.84.58,1.98,1.3,3.12H0V1.16h38.84Z"/>
        <path class="cls-3" d="m42.73,69.71c-.38.8-1.03,1.33-1.62,1.68-.14-.62-.28-1.66.12-2.74.41-1.1,1.23-1.78,1.7-2.12.05.4.47,1.82-.2,3.18Z"/>
        <path class="cls-3" d="m13.44,66.4c-.06.16-2.6-1.03-4.3-.05-.23.13-.87.5-.89,1.02-.02.42.37.75.21,1.08-.07.13-.22.23-.36.25-.47.04-.97-1.06-1.31-1.93-1.1-2.86-2.03-5.24-.98-7.68.59-1.38,1.64-2.37,1.92-2.23.28.13-.39,1.26,0,2.74.33,1.27,1.21,1.99,1.06,2.14-.12.11-.7-.2-1.14-.62-.74-.73-.82-1.53-1.11-1.52-.23.01-.38.5-.47.81-.47,1.6-.05,2.94.27,3.93.17.53.35.93.68,1.01.29.07.58-.15.66-.22,1.27-.89,5.84,1.05,5.76,1.27Z"/>
        <path class="cls-3" d="m17.17,65.71c-.52.53-2.34-.53-2.88-.83-2.08-1.19-3.73-3-3.5-3.3.2-.26,1.51,1.27,4.22,1.79.66.13,1.45.21,1.93.84.36.47.52,1.21.23,1.5Z"/>
        <path class="cls-3" d="m17.35,70.73c-.32.22-.83-.28-2.1-.86-1.81-.85-2.8-.76-2.8-.99.01-.45,3.57-1.45,4.72.02.47.59.53,1.59.18,1.83Z"/>
        <path class="cls-3" d="m19.57,74.46c-.32.33-1.36-.96-3.28-1.07-1.83-.1-3.07.97-3.22.72-.14-.24.89-1.36,2.28-1.89.62-.24,1.77-.68,2.84-.12,1.13.6,1.69,2.06,1.38,2.36Z"/>
        <path class="cls-2" d="m21.01,43.99c-.59,1.02-2.17.68-3.94,1.04-4.32.87-6.33,5.12-6.8,4.77-.38-.28.79-3.24,3.27-5.5,2.18-1.98,5.77-3.78,7.11-2.65.61.52.77,1.65.36,2.34Z"/>
        <path class="cls-2" d="m21.46,48.76c-.94,1.21-2.65.45-4.7,1.04-4.21,1.22-5.57,6.89-6.14,6.65-.43-.18-.1-3.47,1.97-6.3,2.6-3.55,7.45-5.66,8.87-4.42.71.62.67,2.17,0,3.03Z"/>
        <path class="cls-3" d="m22.36,72.22c-.8-.06-1.33-.84-1.72-1.54-.18-.31-.37-.65-.39-1.01-.02-.27.05-.53.15-.78.25-.67.72-1.26,1.29-1.38-.07,1.59.15,3.2.67,4.71Z"/>
        <path class="cls-3" d="m22.44,74.52c-.06.11-.95-.14-1.75-.6-.54-.31-1.63-.94-1.8-2.01-.05-.31-.04-.78.13-.83.25-.08.57.91,1.52,1.92.98,1.04,1.96,1.39,1.9,1.52Z"/>
        <path class="cls-3" d="m24.64,76.34c0,.14-.92.25-1.83.14-.63-.08-1.87-.23-2.45-1.15-.17-.27-.33-.7-.2-.81.2-.18.87.61,2.15,1.18,1.3.57,2.33.51,2.33.64Z"/>
        <path class="cls-3" d="m24.13,53.65c-.22.42-1.12.38-2.44.3-1.8-.1-2.38-.37-3.1-.41-3.02-.15-5.3,4.17-5.57,3.97-.2-.15.87-2.91,3.53-4.75.41-.28,3.85-2.58,6.18-1.25.92.54,1.66,1.62,1.4,2.14Z"/>
        <path class="cls-3" d="m26.01,71.13c-1.47-.02-2.86-1.15-3.18-2.58-.18-.76-.08-1.56.02-2.34.06-.48.13-.98.38-1.4.25-.42.73-.74,1.19-.54-.68,2.36-.05,5.05,1.59,6.86Z"/>
        <path class="cls-3" d="m26.96,77.88c0,.11-.66.34-1.37.4-.48.05-1.45.14-2.03-.47-.16-.17-.37-.47-.29-.57.13-.17.77.32,1.82.54,1.08.21,1.85,0,1.87.1Z"/>
        <path class="cls-3" d="m27.15,57.82c.07.71-.82.88-2.44,2.88-1.29,1.61-1.36,2.29-2.09,2.41-1.03.17-2.09-1.01-2.95-1.98-1.33-1.5-1.66-2.68-2.06-2.59-.42.09-.55,1.49-.46,2.71.27,3.53,2.44,5.71,2,6.07-.38.3-1.99-.92-1.9-1.12.05-.1.55.2.76,0,.37-.35-.82-1.81-1.72-4.41-.32-.92-.49-1.4-.52-2.05-.01-.3-.1-2.15.99-3.35,1.38-1.51,3.86-1.09,5.84-.75.7.12,4.41.76,4.55,2.18Z"/>
        <path class="cls-3" d="m30.55,78.09c.06.08-.45.58-1.07.94-.42.24-1.25.73-2.04.43-.23-.09-.53-.28-.5-.41.04-.2.83-.02,1.87-.27,1.08-.26,1.69-.78,1.74-.69Z"/>
        <path class="cls-2" d="m32.43,52.4c-.08.26-1.05-.24-2.85.1-1.89.36-2.73,1.26-3.53.78-.53-.32-.69-1.04-.71-1.14-.03-.14-.16-.79.19-1.23.33-.42.96-.46,1.62-.42,2.5.16,5.42,1.46,5.28,1.91Z"/>
        <path class="cls-3" d="m33.07,75.32c-.13.24-.42.35-.69.41-2.1.51-4.33-.2-6.21-1.27-.61-.35-1.22-.76-1.67-1.32-.19-.24-.84-1.23-.55-1.54.26-.27.86.63,1.1.81,2.32,1.69,5.21,2.32,8.02,2.91Z"/>
        <path class="cls-3" d="m34.11,58.9c-.25.57-1.53.16-2.95.46-2.58.57-3.77,3.13-4.01,2.95-.21-.16.55-2.16,2.34-3.49,1.15-.86,3.2-1.79,4.19-1.01.32.26.58.76.43,1.09Z"/>
        <path class="cls-2" d="m34.5,48.24v.35c-.46-.34-2.46-3.55-5.71-3.77-1.09-.07-2.61.17-4.4-.51-.57-.23-1.18-.54-1.37-1.14-.13-.42-.05-.94.19-1.23.79-.99,3.62-.07,5.17.65,3.53,1.63,5.65,4.61,6.12,5.65Z"/>
        <path class="cls-2" d="m34.5,50.18v.34c-.37.07-1.96-1.28-4.87-1.49-2.21-.16-4.2.4-5.33-.59-.16-.14-.59-.52-.71-1.13-.09-.45,0-.95.19-1.24.74-1.07,3.86-.1,4.34.05,3.29,1.03,5.88,3.2,6.38,4.06Z"/>
        <path class="cls-3" d="m34.87,61.48c-.1.13-.23.25-.37.32-.56.31-1.4.22-2.04.26-3.36.21-5.27,3.98-5.61,3.72-.36-.29,1.65-4.96,5.33-5.93.43-.12,1.6-.43,2.32-.1.14.07.27.16.37.29.29.38.29,1.03,0,1.44Z"/>
        <path class="cls-3" d="m36.59,69.21c-.07.03-.15-.04-.25-.17-.15-.16-.35-.42-.73-.59-.45-.22-.82-.17-1.11-.17-.22,0-.41-.02-.57-.19-.27-.28-.29-.81-.09-1.18.16-.27.41-.4.66-.46.29-.08.56-.05.58-.04.71.08,1.09.71,1.26.99.01.01.01.02.02.03.43.74.47,1.68.23,1.78Z"/>
        <path class="cls-3" d="m35.87,72.11c-.21.04-.7.14-1.37.15-.3,0-.64,0-1-.04-.71-.08-1.51-.18-2.3-.75-.25-.2-.88-.65-1.1-1.43-.12-.42-.09-.81-.05-1.1h.38s.8,0,2.26.2c.71.1,1.31.51,1.81,1.02.65.66,1.11,1.49,1.37,1.95Z"/>
        <path class="cls-3" d="m36.11,72.46s-.1-.11-.21-.3c0-.01-.02-.03-.03-.05-.26-.46-.72-1.29-1.37-1.95-.5-.51-1.1-.92-1.81-1.02-1.46-.2-2.26-.2-2.26-.2h-.38s-.09,0-.13-.01c-.37-.01-.67-.05-.73-.21-.08-.18.16-.43.19-.47.69-.73,3.02-.3,4.6.89.18.14.36.29.52.44,1.31,1.26,1.7,2.82,1.61,2.88Z"/>
        <path class="cls-3" d="m35.9,72.16c-.19.11-.71.34-1.4.46-.7.14-1.58.16-2.44-.16-.95-.36-2.11-1.24-2.27-2.42-.05-.42.02-.83.13-1.11.04.01.09.01.13.01-.04.29-.07.68.05,1.1.22.78.85,1.23,1.1,1.43.79.57,1.59.67,2.3.75.36.04.7.04,1,.04.67-.01,1.16-.11,1.37-.15.01.02.03.04.03.05Z"/>
        <path class="cls-3" d="m46.63,69.61c-.09.34-.2.67-.33.95.13.14.22.41.27.6.2.83-.28,1.56-1.4,3.16-1.82,2.59-2.26,3.08-3.09,3.4-.33.13-1.02.39-1.57.08-.31-.17-.44-.44-.53-.6-.05-.11-.1-.22-.13-.34-.18.52-.54,1.02-1.01,1.44-.26.24-.55.45-.87.64-.03.02-.07.04-.11.06-.19.11-.4.21-.61.3-.3.12-.61.21-.91.27-.07.02-.15.03-.22.04-.27.05-.54.07-.81.06-.27-.01-.55-.03-.81-.08-1.72-.27-3.08-1.26-3.02-1.52.02-.04.07-.07.15-.09.85-.24,1.72.56,2.57.93.09.04.19.07.3.1.59.2,1.23.22,1.84.13.83-.13,1.62-.47,2.19-.92.51-.41,1.04-1.06,1.25-1.68v-.02c-.05-.26-.03-.54.04-.79h0s-.02-.04-.02-.06c-.28-.73-1.42-.92-1.35-1.23.04-.16.39-.27.66-.19.42.11.69.64.8,1.19.01-.03.02-.06.05-.09-.01.08-.01.16-.01.23,0,.03,0,.06.01.09.01.08.02.16.02.24v.02c0,.08.25,1.48,1.04,1.66,1.26.29,3.69-2.74,4.44-5.53.04-.17.11-.43.18-.68.03-.34.37-1.31.27-2.68-.07-.84-.27-1.54-.42-2.04-.15.3-.29.48-.35.46-.15-.05.27-.95.13-2.34-.08-.78-.31-1.42-.44-1.84-.07.48-.2.82-.3.82-.16-.01.04-1-.47-2.35-.28-.71-.65-1.26-.9-1.65-.01.44-.09.73-.25.79-.04,0-.09,0-.13,0-.68-.16-.43-2.3-.93-4.34-.61-2.47-2.16-4.03-2.28-3.97-.12.07,1.03,1.76,1.01,4.18-.01.84-.02,1.91-.65,2.29-.32.19-.67.13-1.09-.07-.61-.27-1.39-.8-2.5-1.2-.06-.02-.12-.04-.17-.06-.6-.2-1.16-.31-1.67-.37-2.19-.23-3.62.5-3.96-.18-.53-1.02,2.37-3.45,3.57-4.46.13-.11.26-.22.39-.32.76-.64,1.33-1.09,1.84-1.35.34-.17.66-.25,1-.26.53-.02,1.04.14,1.5.41,1.91,1.08,3.15,3.96,3.37,4.48.52,1.25.85,2.74.93,3.81.21.04.52.19.72.34,1.01.69,1.04,1.92,1.05,2.52,0,.13,0,.27-.01.4.19.04.47.28.65.49.74.87.47,2.04.34,2.63-.03.14-.07.28-.11.42.18.13.38.33.53.5.86,1.07.5,2.47.32,3.17Z"/>
        <path class="cls-2" d="m34.5,26.84v2.6c-.89,0-1.92-.06-3.07-.5-.57-.22-1.18-.53-1.38-1.13-.12-.42-.04-.94.2-1.23.65-.81,2.68-.33,4.25.26Z"/>
        <path class="cls-2" d="m34.5,33.1v1.35c-.68-.34-1.45-.58-2.29-.64-1.16-.08-2.77.18-4.68-.55-.6-.23-1.24-.57-1.45-1.2-.14-.45-.05-.99.21-1.32.83-1.03,3.84-.06,5.49.7,1.02.47,1.93,1.05,2.72,1.66Z"/>
        <path class="cls-3" d="m34.5,39.3v.82c-.99-1.02-2.51-2.28-4.49-2.4-1.09-.08-2.61.16-4.4-.52-.57-.22-1.18-.54-1.37-1.14-.13-.41-.05-.93.19-1.23.79-.99,3.62-.06,5.17.65,2.2,1.01,3.85,2.55,4.9,3.82Z"/>
        <path class="cls-3" d="m20.71,13.68c-.2.11-.43.27-.67.45-.08.06-.16.13-.24.2-.1.09-.19.18-.27.26-.05.04-.09.08-.13.12-.2.21-.36.41-.49.59-.61-.35-1.72-1.11-2.6-2.5-.75-1.16-1.01-2.27-1.12-2.93.29-.3.63-.6,1.01-.91.16-.14.33-.27.5-.39.08-.06.16-.12.23-.18.08-.06.16-.11.24-.16.26.96.79,2.4,1.92,3.83.56.69,1.13,1.21,1.62,1.62Z"/>
        <path class="cls-3" d="m32.08,10.31s-.04.03-.07.04c-.84.46-2.05,1.27-3.11,2.64-.47.61-.82,1.2-1.08,1.74-.03.05-.05.1-.08.16-.18-.2-.39-.4-.67-.63h-.01s-.09-.07-.14-.11c-.4-.3-.78-.5-1.09-.65.19-.65.67-1.88,1.77-3.03.93-.96,1.91-1.45,2.51-1.69.25.16.52.34.8.54.05.05.11.09.18.15.03.02.06.04.09.07.33.26.63.53.9.77Z"/>
        <path class="cls-3" d="m28.23,7.5c-.58.27-1.41.75-2.17,1.59-1.4,1.53-1.71,3.28-1.78,3.98-.05-.01-.08-.02-.12-.03h-.06c-.11-.02-.21-.04-.31-.05-.18-.02-.37-.04-.59-.04-.08,0-.16,0-.25.01s-.18.02-.26.03h-.01c-.08.01-.16.02-.23.03-.17.03-.32.07-.45.1-.46-.62-1.09-1.65-1.49-3.06-.38-1.36-.39-2.52-.34-3.29.22-.09.47-.18.76-.25.46-.12.87-.15,1.19-.15.38,3.29.69,3.99.9,3.99.24,0,.33-.86.99-2.08.45-.81.94-1.42,1.29-1.79.03.01.06.01.09.01.01,0,.02,0,.02.01.33.06.69.14,1.08.26.64.19,1.18.43,1.62.68.04.01.08.03.12.05Z"/>
        <path class="cls-3" d="m19.58,25.63c-.01.06-.03.11-.06.17-.01,0-.02.03-.03.05-.47,1.01-1.29,2.02-2.49,2.36-.01.01-.03.01-.04.01-2.34.62-4.87-1.65-4.66-2.32.13-.45,1.51.07,3.74-.6,2.45-.73,3.39-2.14,3.78-1.86h.01c.26.22.19,1.18-.25,2.19Z"/>
        <path class="cls-3" d="m19.44,22.24c-.72.6-1.9,1.45-3.53,2.07-1.64.61-3.09.74-4.03.75h-.01v-.03c-.24-.74-.47-1.5-.7-2.24h0c.4-.18,1.02-.41,1.79-.56.81-.13,1.28-.08,1.3-.21.03-.13-.54-.48-3.34-1.37-.01-.14-.02-.28-.01-.43-.01-.11-.01-.23-.01-.35,0-.06,0-.13.01-.2,0-.08.01-.16.01-.24v-.05c0-.06,0-.11,0-.18.01-.16.02-.32.03-.49.01-.2.04-.41.07-.62.07-.58.16-1.1.28-1.59.01.01.03.02.04.02,2.23.85,4.45,1.69,6.68,2.52.03.02.07.03.11.05.02,0,.05.02.07.02.26.66.52,1.31.78,1.97.11.29.23.58.35.88.03.09.06.19.1.28Z"/>
        <path class="cls-3" d="m16.96,16.7c-.19.29-1.78-.36-3.01-1.14-.8-.52-1.39-1.05-1.78-1.45.02-.05.04-.1.07-.14.01-.03.02-.06.04-.09.14-.34.33-.7.56-1.09.36-.6.74-1.08,1.08-1.47.15.68.45,1.66,1.06,2.72.99,1.67,2.15,2.41,1.98,2.66Z"/>
        <path class="cls-3" d="m33.25,16.58c-.44.56-.88.97-1.2,1.23-.22-.11-.44-.24-.68-.4t-.03-.02c-.07-.06-.16-.11-.24-.17-.39-.29-.71-.58-.97-.85-.02-.02-.03-.03-.06-.05.52-.07,1.28-.23,2.11-.62,1.32-.63,1.95-1.44,2.13-1.3.2.16-.39,1.31-1.06,2.18Z"/>
        <path class="cls-3" d="m34.5,21.75v.41c-1.22-.07-3.18-.07-5.39.63-2.67.85-4.25,2.25-4.43,2.25-.72.49-1.63,1.19-2.55,2.13.27-.17.55-.33.84-.48,2.17-1.11,4.49-1.26,5.34-.54.08.07.33.29.37.61.07.58-.58,1.05-.7,1.13-.62.43-1.33.31-1.51.27-.97-.21-2.32-.37-3.82,0-.83.2-1.49.52-1.96.77-.46.64-.88,1.35-1.22,2.15,1.2-1.05,2.85-1.34,4.15-1.05.45.11,1.46.34,1.6,1.02.11.56-.45,1.28-1.04,1.44-.26.06-.47.01-.56,0,0,0-1.08-.23-2.88.19-1.08.25-1.74.99-2.16,1.47-.03.19-.05.39-.08.58.39-.26.98-.35,1.96-.48.98-.14,1.52-.2,1.97.15.34.26.61.75.53,1.24-.11.66-.82.99-1.03,1.09-.64.29-1.06.13-2.28.19-.49.02-.91.08-1.22.12.03.61.09,1.16.16,1.64.36-.35.67-.66.92-.93-.23.4-.51.86-.86,1.35.15.9.31,1.43.26,1.44-.04,0-.25-.43-.47-1.15-.6.79-1.38,1.63-2.4,2.39-.82.62-1,.59-2,1.26-1.04.7-3.39,2.26-4.75,4.77-1.34,2.46-1.5,5.39-.94,5.61.55.21,1.87-2.12,2.11-1.98.18.11-.71,1.44-1.17,3.48-.47,2.08-.15,3.38-.42,3.43-.35.06-1.35-2.13-1.56-4.59-.06-.82-.26-3.56,1.27-6.38,1.5-2.75,3.97-4.33,5.4-5.25.74-.47,1.36-.79,2.42-1.58.75-.56,1.38-1.11,1.92-1.61-.31-1.15-.6-2.86-.43-4.75,0-.04,0-.08.01-.12,0-.05.01-.09.02-.14.12-1.18.42-2.42.99-3.64,1.65-3.49,4.85-5.34,6.33-5.95h.01c.79-.76,2.33-1.91,4.35-2.47,1.92-.52,3.74-.37,4.9-.12Z"/>
      </g>
      <path class="cls-3" d="m48.83,20.08c1.22-.68,1.3-1.61,1.3-5.34V1.41c-3.7,0-5.57,2.63-6.5,4.13h-.48l.68-4.5.03-.2h17.51l.03.2.68,4.5h-.48c-.93-1.5-2.8-4.13-6.5-4.13v13.32c0,3.73.08,4.67,1.3,5.34v.57h-7.55v-.57Z"/>
      <path class="cls-3" d="m73.31,20.13c1.22-.62,1.3-1.47,1.3-4.88v-3.53c0-2.3-.51-3.87-2.43-3.87-.57,0-2.21.23-3.2,1.47v5.93c0,3.41.08,4.26,1.3,4.88v.52h-7.55v-.52c1.22-.62,1.3-1.47,1.3-4.88V6.06c0-3.41-.17-4.28-1.61-4.28v-.98c2.43,0,4.24-.39,5.99-.8h.57v8.82c1.13-1.06,2.94-1.5,4.55-1.5,3.08,0,6.02,1.24,6.02,5.32v2.61c0,3.41.08,4.26,1.3,4.88v.52h-7.55v-.52Z"/>
      <path class="cls-3" d="m94.87,16.49c-1.27,2.01-2.87,2.33-3.87,2.33-2.57,0-4.03-2.12-4.03-5.87v-.54h7.87c0-3.46-3.38-5.06-5.91-5.06-3.83,0-6.87,3.05-6.87,6.87s3.04,6.87,6.87,6.87c3.33,0,5.17-2.12,6.25-4.37l-.31-.23Zm-5.94-8.63c1.22,0,1.58,1.81,1.6,4.03h-3.54c.13-2.5.77-4.03,1.94-4.03Z"/>
      <path class="cls-3" d="m43.14,45.28v-.57c1.22-.68,1.3-1.61,1.3-5.34v-7.98c0-3.73-.09-4.67-1.3-5.34v-.57h15.64l.03.2.68,4.5h-.48c-.93-1.5-2.8-4.13-6.5-4.13h-3.11v8.2h3.02c1.84,0,2.57-1.36,2.94-2.26l.23-.03v5.15l-.23-.03c-.37-.91-1.1-2.26-2.94-2.26h-3.02v9.9h3.11c3.7,0,5.57-2.63,6.5-4.13h.48l-.68,4.5-.03.2h-15.64Z"/>
      <path class="cls-3" d="m60.76,42.88c0-1.56.93-2.52,2.46-2.52,2.91,0,2.01,4.78,5.01,4.78,1.3,0,2.57-.4,2.57-1.75,0-3.42-9.33-3.34-9.33-8.46,0-2.6,3.22-4.24,6.59-4.24,2.49,0,5.32.79,6.7,2.63,0,1.56-1.16,2.52-2.12,2.52-3.22,0-1.87-4.58-4.58-4.58-1.05,0-2.46.23-2.46,1.33,0,3.45,9.3,3.79,9.3,8.48,0,2.46-3.08,4.64-6.67,4.64-2.52,0-6.11-.99-7.47-2.83h0Z"/>
      <path class="cls-3" d="m76.32,42.88c0-1.56.93-2.52,2.46-2.52,2.91,0,2.01,4.78,5.01,4.78,1.3,0,2.57-.4,2.57-1.75,0-3.42-9.33-3.34-9.33-8.46,0-2.6,3.22-4.24,6.59-4.24,2.49,0,5.32.79,6.7,2.63,0,1.56-1.16,2.52-2.12,2.52-3.22,0-1.87-4.58-4.58-4.58-1.05,0-2.46.23-2.46,1.33,0,3.45,9.3,3.79,9.3,8.48,0,2.46-3.08,4.64-6.67,4.64-2.52,0-6.11-.99-7.47-2.83h0Z"/>
      <path class="cls-3" d="m106.18,40.7c-1.39,2.21-3.14,2.55-4.24,2.55-2.8,0-4.42-2.32-4.42-6.43v-.59h8.63c0-3.79-3.71-5.55-6.48-5.55-4.18,0-7.52,3.34-7.52,7.53s3.34,7.52,7.52,7.52c3.65,0,5.66-2.32,6.85-4.78l-.34-.25Zm-6.51-9.45c1.33,0,1.73,1.98,1.76,4.42h-3.88c.15-2.75.85-4.42,2.12-4.42Z"/>
      <path class="cls-3" d="m119.53,44.72c1.22-.68,1.3-1.61,1.3-5.34v-3.87c0-2.52-.51-4.24-2.43-4.24-.57,0-2.21.25-3.2,1.61v6.5c0,3.73.08,4.67,1.3,5.34v.57h-7.55v-.57c1.22-.68,1.3-1.61,1.3-5.34v-2.04c0-3.73-.17-4.69-1.61-4.69v-1.07c2.43,0,4.24-.42,5.99-.88h.57v1.64c1.13-1.16,2.94-1.64,4.55-1.64,3.08,0,6.02,1.36,6.02,5.83v2.86c0,3.73.08,4.67,1.3,5.34v.57h-7.55v-.57Z"/>
      <path class="cls-3" d="m129.2,38.21c0-4.19,3.34-7.52,7.52-7.52,2.49,0,5.12,1.19,6.48,3.05,0,1.53-.85,2.49-2.12,2.49-3.45,0-1.84-4.98-4.38-4.98-1.44,0-2.12,2.15-2.12,5.57,0,4.1,1.61,6.42,4.41,6.42,1.1,0,2.86-.34,4.24-2.54l.34.25c-1.19,2.46-3.2,4.78-6.84,4.78-4.18,0-7.52-3.37-7.52-7.52h0Z"/>
      <path class="cls-3" d="m159.85,40.7c-1.38,2.21-3.14,2.55-4.24,2.55-2.8,0-4.41-2.32-4.41-6.43v-.59h8.62c0-3.79-3.7-5.55-6.47-5.55-4.19,0-7.53,3.34-7.53,7.53s3.34,7.52,7.53,7.52c3.64,0,5.65-2.32,6.84-4.78l-.34-.25Zm-6.5-9.45c1.33,0,1.72,1.98,1.75,4.42h-3.87c.14-2.75.84-4.42,2.12-4.42Z"/>
    </g>
    <rect class="cls-1" x="34.5" y="12.73" width="3.67" height="11.65"/>
  </g>
</svg>