<?xml version="1.0" encoding="UTF-8"?>
<svg id="Graphic_Elements" data-name="Graphic Elements" xmlns="http://www.w3.org/2000/svg" viewBox="0 0 84.85 719.75">
  <defs>
    <style>
      .cls-1 {
        fill: #fff;
        stroke-width: 0px;
      }
    </style>
  </defs>
  <path class="cls-1" d="m0,28.87v-8.32c.74-.05,1.47-.35,1.98.21,1.36,1.45,1.34,3.87.36,5.61C1.77,27.38.94,28.2,0,28.87Z"/>
  <path class="cls-1" d="m59.34,57.37c-6,8.31-16.09,12.95-26.2,13.7-10.11.75-20.22-2.05-29.42-6.36C2.48,64.12,1.25,63.52,0,62.94v-30.27c1.05-.74,2-1.54,2.81-2.35,4.04-4.05,7.45-14.38-1.09-16.33-.6-.14-1.18-.09-1.71.09V0c.6.04,1.18.1,1.74.17,7.77.95,16.04,3.53,20.5,10.06,2.52,3.7,3.04,8.93,1.44,13.12-2.52,6.61-11.03,9.89-12.81,17.24-.87,3.58.19,7.69,2.95,10.08,2.78,2.38,7.22,2.68,10.05.36.86-.71,1.6-1.76,1.44-2.87-.2-1.41-2.06-2.24-3.21-1.43.44.1.88.2,1.32.3.46.92-.3,2.1-1.27,2.43-.97.33-2.02.07-3.02-.19-.44-.12-.92-.26-1.22-.61-.31-.38-.35-.9-.38-1.39-.14-2.38-.14-5.12,1.6-6.72,1.56-1.42,3.91-1.36,5.99-1.12,1.91.22,3.85.54,5.56,1.46,1.82.98,3.24,2.57,4.98,3.71,6.43,4.21,7.81-3.3,6.93-8.25-.22-1.2-.57-2.43-1.33-3.36-1.34-1.61-3.71-1.45-5.57-1.17,3.43-.51,5.64,5.11,2.82,7.15-3.72,2.31-9.02-.96-9.82-5.31-.81-4.35,1.87-8.75,5.45-11.27,8.32-5.87,21.02-2.55,26.67,6,5.66,8.55,4.53,20.67-1.46,28.98Z"/>
  <path class="cls-1" d="m84.85,154.24v7.13c-1.22-1.64-1.97-3.69-1.27-5.58.24-.63.7-1.16,1.27-1.55Z"/>
  <path class="cls-1" d="m84.85,129.94c-.28-.7-.65-1.37-1.11-1.97-1.77-2.34-4.49-3.81-7.27-4.91-1.97-.79-4.05-1.43-6.19-1.55-4.19-.24-8.48,1.64-11.12,4.86-1.89,2.32-2.72,5.08-2.87,7.99-.02.44-.12,5.76-.13,5.76-4.56-9.12-7.35-17.69-19.05-19.73-9.11-1.58-19.55,1.86-25.05,9.43-4.05,5.57-4.82,13.49-1.04,19.11,2.42,3.6,8.89,9.36,13.8,9.34,9.25-.05,10.24-15.65,1.51-12.18-1.57.62-2.5,2.8-1.37,4-2.43-1.04-5.22-2.52-5.47-5.12-.22-2.2,1.72-4.24,3.93-4.8,2.21-.55,4.55.08,6.56,1.08,2.2,1.08,4.22,2.66,5.31,4.82,3.56,7.01-5.24,17.23-12.09,18.81-4.5,1.03-9.03-.68-12.76-3.06C6.88,159.55,3.53,156.64,0,154.25v21.57c2.42,3.33,5.14,6.43,8.3,9.11,7.19,6.09,17,9.83,26.45,8.05,8.36-1.57,27.79-19.67,11.82-22.96-1.87-.39-3.86-.62-5.7-.06-1.85.57-3.5,2.12-3.63,3.99-.1,1.69,1.18,3.34,2.86,3.68,1.69.35,3.58-.64,4.23-2.22-.52-.47-1.04-.95-1.55-1.42,1.9.1,3.02,2.48,2.22,4.18-.81,1.69-2.95,2.51-4.83,2.23s-3.5-1.43-4.79-2.77c-.63-.65-1.21-1.38-1.44-2.25-.24-.94-.04-1.94.31-2.85,2.31-6.07,8.75-8.21,14.88-7.6,7.91.78,7.17,7.61,11.76,12.6,2.92,3.16,7.55,4.07,11.86,4.8,1.2.21,2.43.41,3.65.28,3.59-.38,6.19-3.46,8.32-6.33.04-.06.09-.12.13-.18v-10.83c-2.62-1.72-6.34-2.59-7.69-5.39-.78-1.62-.56-3.58.14-5.26,1.24-2.96,4.06-5.38,7.31-5.76.08-.01.16-.02.24-.02v-12.9c-.11.08-.22.17-.33.27.13-.2.24-.41.33-.62v-5.65Z"/>
  <path class="cls-1" d="m69.85,495.68c-5.99,6.01-11.03,21.32,1.63,24.21,4.39,1.01,8.41-4.61,4.82-8.82-1.75-2.06-3.9.19-5.22-1.22-2.03-2.15-1.99-5.73-.53-8.31,1.46-2.59,4.04-4.32,6.7-5.57,2.39-1.11,4.97-1.79,7.6-2.01v46.53c-4.7.53-9.39.38-13.4-.11-11.52-1.42-23.78-5.23-30.4-14.92-3.74-5.48-4.49-13.24-2.12-19.44,3.73-9.8,16.36-14.67,18.99-25.56,1.28-5.32-.29-11.4-4.39-14.94-4.11-3.54-10.7-3.98-14.89-.54-1.27,1.05-2.37,2.61-2.13,4.26.29,2.08,3.06,3.31,4.76,2.12-.66-.15-1.31-.3-1.96-.45-.69-1.37.44-3.11,1.88-3.6,1.43-.48,3-.1,4.48.29.66.17,1.36.37,1.81.9.45.55.51,1.33.56,2.06.2,3.53.21,7.58-2.37,9.95-2.31,2.12-5.8,2.03-8.89,1.67-2.83-.33-5.71-.81-8.22-2.16-2.71-1.46-4.83-3.82-7.39-5.5-9.54-6.24-11.59,4.89-10.27,12.23.32,1.78.83,3.59,1.98,4.97,1.91,2.3,5.22,2.16,7.92,1.79-4.91.35-7.95-7.68-3.86-10.65,5.51-3.42,13.37,1.42,14.56,7.87s-2.77,12.97-8.08,16.71c-6.79,4.78-15.53,5.45-23.42,2.97v-67.43c7.5-4.47,16.19-7.06,24.89-7.71,14.99-1.11,29.97,3.04,43.62,9.44,5.3,2.49,10.57,5.36,16.34,6.29v36.23c-5.7,1.23-11.36,4.79-15,8.45Z"/>
  <path class="cls-1" d="m84.85,277.91c-3.18-4.14-6.73-8.01-10.75-11.42-10.66-9.04-25.2-14.58-39.2-11.94-12.4,2.33-41.19,29.15-17.53,34.04,2.79.58,5.73.92,8.46.08,2.74-.84,5.2-3.13,5.37-5.91.17-2.5-1.73-4.94-4.23-5.46-2.5-.51-5.31.96-6.27,3.29.76.71,1.54,1.41,2.3,2.12-2.82-.15-4.49-3.69-3.29-6.2,1.19-2.51,4.37-3.72,7.16-3.31,2.78.41,5.18,2.12,7.1,4.11.93.96,1.8,2.04,2.13,3.33.36,1.39.06,2.88-.46,4.23-3.42,8.99-12.97,12.16-22.07,11.26C4.71,295.26,3.18,289.25,0,283.17v68.31c1.91-3.03,2.79-6.45,2.96-10.02.04-.66.18-8.55.19-8.55,6.78,13.52,10.91,26.23,28.25,29.24,13.51,2.35,28.99-2.75,37.14-13.98,5.99-8.24,7.14-19.98,1.54-28.32-3.59-5.34-13.19-13.88-20.45-13.84-13.72.06-15.2,23.19-2.25,18.05,2.34-.92,3.72-4.15,2.03-5.93,3.61,1.54,7.73,3.74,8.12,7.59.32,3.27-2.55,6.29-5.84,7.12-3.27.82-6.74-.12-9.73-1.6-3.25-1.61-6.25-3.95-7.87-7.14-5.27-10.41,7.77-25.55,17.94-27.89,6.65-1.53,13.38,1,18.91,4.53,4.75,3.03,9.24,6.83,13.91,10.14v-32.97Z"/>
  <path class="cls-1" d="m0,596.76c.22.2.4.44.53.72.55,1.16.26,2.58-.53,3.61v17.93c1.62-.25,3.21-.67,4.71-1.18,5.74-1.98,11.55-5.02,17.54-4.07,3.12.5,5.96,2.05,8.82,3.39,7.33,3.44,15.39,5.67,23.44,5.07,8.06-.6,16.11-4.3,20.88-10.92,4.78-6.62,5.67-16.28,1.17-23.09-4.51-6.82-14.62-9.46-21.25-4.79-2.86,2.01-4.99,5.52-4.35,8.99s4.86,6.07,7.83,4.23c2.25-1.63.49-6.1-2.24-5.7,1.48-.22,3.37-.35,4.43.94.61.74.89,1.71,1.06,2.67.7,3.95-.39,9.93-5.53,6.57-1.38-.9-2.52-2.17-3.97-2.95-1.35-.73-2.9-.99-4.42-1.16-1.66-.2-3.54-.25-4.78.89-1.39,1.27-1.38,3.45-1.28,5.35.03.39.06.81.31,1.11.24.28.61.39.97.49.78.2,1.63.41,2.41.15.77-.27,1.38-1.2,1.01-1.94l-1.05-.24c.92-.64,2.4.02,2.56,1.14.12.89-.46,1.73-1.15,2.29-2.26,1.85-5.8,1.61-8-.29-2.21-1.9-3.06-5.17-2.37-8.03,1.41-5.86,8.2-8.47,10.21-13.74,1.27-3.34.87-7.51-1.15-10.45-3.56-5.21-10.15-7.26-16.34-8.02-6.02-.74-14.9,0-18.61,5.7-3.11,4.81-.25,14.77,4.48,17.67,3.32,2.03,7.55,2.11,11.01.5,1.43-.67,2.82-1.6,3.6-2.99.77-1.39.81-3.31-.29-4.47-.7-.76-1.87.45-2.81-.66-1.93-2.26.24-5.28,2.59-4.74,6.81,1.55,4.1,9.79.88,13.02-2.82,2.83-7.88,5.54-12,4.61-4.45-1.02-7.19-5.43-12.37-5.89-2.01-.18-4.08.11-5.97.83v7.45Z"/>
  <path class="cls-1" d="m84.85,663.61c-1.31.66-2.48,1.58-3.4,2.7-1.51,1.85-2.17,4.05-2.29,6.36-.02.35-.09,4.59-.1,4.59-3.63-7.26-5.86-14.1-15.18-15.72-7.26-1.26-15.59,1.49-19.97,7.52-3.22,4.43-3.84,10.74-.83,15.22,1.93,2.88,7.09,7.47,11,7.45,7.37-.04,8.17-12.47,1.2-9.71-1.25.5-2,2.23-1.09,3.19-1.94-.83-4.16-2.01-4.36-4.08-.17-1.76,1.38-3.38,3.13-3.83,1.77-.44,3.63.07,5.24.86,1.74.87,3.35,2.13,4.22,3.84,2.84,5.6-4.17,13.74-9.63,15-3.58.82-7.19-.55-10.18-2.44-5.68-3.62-10.66-9.29-17.48-9.56-4.14-.17-8.35,1.97-10.61,5.4,1.87-1.51,4.7-1.35,6.82-.26,6.3,3.27,8,8.23,11.66,13.7,2.23,3.36,4.81,6.5,7.92,9.13,4.2,3.56,9.5,6.11,15,6.66,1.47.15,2.94.16,4.41,0,.56-.05,1.12-.14,1.67-.24,6.66-1.25,22.13-15.67,9.42-18.3-1.5-.31-3.08-.49-4.56-.04-1.46.45-2.79,1.68-2.88,3.18-.08,1.34.93,2.65,2.28,2.93s2.85-.52,3.37-1.77c-.41-.38-.83-.76-1.24-1.14,1.52.08,2.42,1.98,1.77,3.33-.64,1.36-2.36,2.01-3.85,1.79s-2.78-1.15-3.82-2.22c-.49-.51-.96-1.09-1.14-1.78-.2-.75-.03-1.55.25-2.28,1.83-4.83,6.97-6.54,11.86-6.05,6.29.62,5.7,6.06,9.37,10.04.59.65,1.27,1.17,2.02,1.61v-45.08Z"/>
</svg>