<?xml version="1.0" encoding="UTF-8"?>
<svg id="Capa_1" data-name="Capa 1" xmlns="http://www.w3.org/2000/svg" viewBox="0 0 70.47 87.33">
  <defs>
    <style>
      .cls-1 {
        stroke-width: 2.01px;
      }

      .cls-1, .cls-2, .cls-3 {
        fill: none;
        stroke: #b20404;
        stroke-miterlimit: 10;
      }

      .cls-2 {
        stroke-width: 1.52px;
      }

      .cls-3 {
        stroke-width: 1.65px;
      }

      .cls-4 {
        fill: #b20404;
        stroke-width: 0px;
      }
    </style>
  </defs>
  <rect class="cls-1" x="1.01" y="1.01" width="57.81" height="85.31" rx="6.36" ry="6.36"/>
  <path class="cls-1" d="m63.1,1.01c3.5,0,6.36,2.86,6.36,6.36v72.59c0,3.5-2.86,6.36-6.36,6.36"/>
  <line class="cls-1" x1="52.45" y1="86.32" x2="18.02" y2="86.32"/>
  <line class="cls-1" x1="52.45" y1="1.01" x2="18.02" y2="1.01"/>
  <circle class="cls-2" cx="30" cy="25.89" r="15.75"/>
  <ellipse class="cls-2" cx="30" cy="25.89" rx="4.5" ry="15.75"/>
  <ellipse class="cls-3" cx="30" cy="25.89" rx="15.15" ry="5.51"/>
  <g>
    <path class="cls-4" d="m18.78,69.08c0,1.04-.38,1.87-1.13,2.48-.76.61-1.76.92-3.03.92h-.93v3.91h-2.34v-10.73h3.26c1.26,0,2.27.31,3.03.93.75.62,1.13,1.45,1.13,2.5Zm-4.18-1.51h-.91v3h.91c.55,0,.98-.13,1.31-.4.32-.26.49-.63.49-1.09s-.16-.84-.48-1.11c-.32-.27-.76-.4-1.32-.4Z"/>
    <path class="cls-4" d="m19.78,71.02c0-1.53.54-2.84,1.61-3.92,1.07-1.08,2.37-1.62,3.9-1.62s2.83.54,3.91,1.62c1.08,1.08,1.62,2.39,1.62,3.92s-.54,2.84-1.62,3.92c-1.08,1.08-2.38,1.62-3.91,1.62s-2.83-.54-3.9-1.62c-1.07-1.08-1.61-2.39-1.61-3.92Zm8.69,0c0-.96-.3-1.76-.91-2.4s-1.36-.96-2.26-.96-1.64.32-2.25.96c-.61.64-.91,1.44-.91,2.4s.3,1.76.91,2.4c.61.64,1.36.96,2.25.96s1.66-.32,2.26-.96c.61-.64.91-1.44.91-2.4Z"/>
    <path class="cls-4" d="m35.79,72.42h-.79v3.97h-2.34v-10.73h3.26c1.25,0,2.26.31,3.02.93.76.62,1.14,1.45,1.14,2.49,0,.67-.16,1.25-.49,1.75-.33.5-.8.89-1.42,1.16l3.12,4.4h-2.72l-2.78-3.97Zm.12-4.85h-.91v3h.91c.55,0,.98-.13,1.31-.4.32-.26.49-.63.49-1.09s-.16-.84-.48-1.11c-.32-.27-.76-.4-1.32-.4Z"/>
    <path class="cls-4" d="m50.26,65.66v1.94h-3.32v8.79h-2.35v-8.79h-3.32v-1.94h9Z"/>
  </g>
  <g>
    <path class="cls-4" d="m19.85,51.85c0,1.08-.39,1.93-1.17,2.56-.78.63-1.83.95-3.13.95h-.96v4.05h-2.42v-11.11h3.38c1.31,0,2.35.32,3.13.96.78.64,1.17,1.5,1.17,2.59Zm-4.32-1.57h-.94v3.1h.94c.57,0,1.02-.14,1.35-.41s.5-.65.5-1.13-.17-.87-.49-1.15c-.33-.28-.78-.42-1.36-.42Z"/>
    <path class="cls-4" d="m19.74,59.41l5.83-11.56,5.81,11.56h-2.57l-.97-2.01h-4.56l-.97,2.01h-2.56Zm7.21-3.86l-1.38-2.86-1.38,2.86h2.77Z"/>
    <path class="cls-4" d="m32.6,58.5v-2.45c.63.5,1.23.87,1.81,1.12.58.25,1.14.37,1.67.37s.94-.1,1.24-.3c.3-.2.45-.49.45-.85,0-.25-.07-.47-.21-.64-.14-.17-.41-.35-.81-.55l-1.87-.85c-.84-.41-1.43-.83-1.76-1.29-.33-.45-.5-1-.5-1.64,0-.97.36-1.77,1.08-2.38.72-.61,1.63-.92,2.74-.92.57,0,1.13.1,1.68.3.55.2,1,.46,1.35.78v2.48c-.49-.48-1-.85-1.54-1.11-.54-.26-1.07-.4-1.59-.4-.43,0-.76.09-1.01.28-.25.19-.37.44-.37.77,0,.2.06.38.19.54.13.16.34.31.63.45l1.72.78c.96.42,1.64.86,2.02,1.34.38.48.57,1.08.57,1.81,0,1.03-.38,1.87-1.13,2.5-.75.63-1.72.95-2.91.95-.64,0-1.26-.1-1.87-.3-.61-.2-1.13-.46-1.57-.8Z"/>
    <path class="cls-4" d="m41.82,58.5v-2.45c.63.5,1.23.87,1.81,1.12.58.25,1.14.37,1.67.37s.94-.1,1.24-.3c.3-.2.45-.49.45-.85,0-.25-.07-.47-.21-.64-.14-.17-.41-.35-.81-.55l-1.87-.85c-.84-.41-1.43-.83-1.76-1.29-.33-.45-.5-1-.5-1.64,0-.97.36-1.77,1.08-2.38.72-.61,1.63-.92,2.74-.92.57,0,1.13.1,1.68.3.55.2,1,.46,1.35.78v2.48c-.49-.48-1-.85-1.54-1.11-.54-.26-1.07-.4-1.59-.4-.43,0-.76.09-1.01.28-.25.19-.37.44-.37.77,0,.2.06.38.19.54.13.16.34.31.63.45l1.72.78c.96.42,1.64.86,2.02,1.34.38.48.57,1.08.57,1.81,0,1.03-.38,1.87-1.13,2.5-.75.63-1.72.95-2.91.95-.64,0-1.26-.1-1.87-.3-.61-.2-1.13-.46-1.57-.8Z"/>
  </g>
</svg>