<?xml version="1.0" encoding="utf-8"?>
<!-- Generator: Adobe Illustrator 27.8.0, SVG Export Plug-In . SVG Version: 6.00 Build 0)  -->
<svg version="1.1" id="Capa_1" xmlns="http://www.w3.org/2000/svg" xmlns:xlink="http://www.w3.org/1999/xlink" x="0px" y="0px"
	 viewBox="0 0 444.63 146.59" style="enable-background:new 0 0 444.63 146.59;" xml:space="preserve">
<style type="text/css">
	.st0{fill:#E20E18;}
	.st1{fill:#FFFFFF;}
	.st2{fill:#1E1E1C;}
	.st3{font-family:'Geograph-BoldItalic';}
	.st4{font-size:44.9117px;}
	.st5{letter-spacing:1;}
</style>
<g>
	<rect y="35.52" class="st0" width="424.61" height="106.8"/>
	<rect x="20.02" y="15.38" class="st1" width="424.61" height="106.8"/>
	<g>
		<path class="st1" d="M341.57,4.67c-5.13,2.14-9.02,4.74-11.65,6.77l-9.24,7.22c-2.68,2.53-6.19,6.29-9.49,11.41
			c-1.56,2.43-3.72,5.81-5.36,10.43c-1.35,3.77-4.65,13.04-1.39,23.19c1.35,4.21,3.7,11.52,9.86,15.21
			c1.79,1.07,5.02,2.51,5.58,5.39c0.34,1.73-0.58,2.47-0.58,4.72c0,3.13,1.79,4.71,2.98,7.12c1.88,3.79,0.22,5.49,0.29,13.38
			c0.03,3.71,0.08,9.08,2.31,15.11c0.74,2,2.63,6.52,6.67,11.07c1.44,1.62,6.12,6.9,12.94,9.24c5.93,2.04,6.95-0.39,25.14-2.69
			c6.49-0.82,16.71-1.82,25.02-3.27c0.81-0.14,3.4-0.6,6.74-1.44c2.4-0.61,4.91-1.25,7.89-2.44c3.17-1.27,4.76-1.9,6.13-2.98
			c5.4-4.28,6.06-12.1,6.32-15.21c0.15-1.8,0.1-3.06,0-5.13c-0.5-10.77-0.91-19.46-5.97-26.59c-1.75-2.46-3.82-4.42-3.85-7.7
			c-0.02-2.37,1.03-3.35,1.54-6.03c0.8-4.23-2.29-5.92-1.39-9.53c0.39-1.57,1.16-2.44,1.88-3.45c3.13-4.41,3.67-9.48,4.15-13.62
			c1.2-10.54-2.95-18.99-3.52-20.11c-4.62-9.1-12.01-13.43-17.02-16.36c-6.89-4.03-12.97-5.46-16.89-6.35
			c-2.72-0.62-11-2.31-21.75-1.3C354.52,1.12,348.64,1.72,341.57,4.67z"/>
		<g>
			<path class="st2" d="M318.16,82.38c-5.84-6.07-13.43-16.21-13.73-28.96c-0.67-28.79,36.2-56.45,68.66-52.43
				c16.63,2.06,39.92,13.39,43.95,34.21c2.18,11.29-2.13,21.12-4.74,25.97c0.98-1.13,2.28-2.8,3.5-4.99
				c7.01-12.65,2.34-26.77,1.75-28.46c-7.16-20.6-34.89-25.81-39.7-26.72c-3.82-0.72-29.51-4.95-51.44,12.23
				c-20.83,16.33-29.1,39.2-21.97,54.93C305.89,71.37,309.39,77.37,318.16,82.38z"/>
			<path class="st2" d="M323.46,28.07c0.19,0.14,2.58-1.42,2.37-3.62c-0.15-1.63-1.66-2.8-3-3.06c-2.81-0.55-5.84,2.71-5.43,4.68
				c0.13,0.65,0.69,1.39,1.29,1.41c1.26,0.04,1.54-3.09,3.51-3.53c0.84-0.19,1.86,0.13,2.22,0.76
				C325.12,25.9,323.27,27.93,323.46,28.07z"/>
			<path class="st2" d="M331.94,21.32c0.19,0.14,2.58-1.42,2.37-3.62c-0.15-1.63-1.66-2.8-3-3.06c-2.81-0.55-5.84,2.71-5.43,4.68
				c0.13,0.65,0.69,1.39,1.29,1.41c1.26,0.04,1.54-3.09,3.51-3.53c0.84-0.19,1.86,0.13,2.22,0.76
				C333.6,19.15,331.74,21.18,331.94,21.32z"/>
			<path class="st2" d="M342.97,16.58c0.18,0.17,3.69-1.71,3.56-4.72c-0.06-1.3-0.79-2.69-1.97-3.31c-3.11-1.66-8.6,2.4-8.28,4.68
				c0.09,0.63,0.65,1.32,1.29,1.41c1.72,0.25,2.61-3.91,5.11-4.07c1.01-0.06,2.11,0.53,2.46,1.36
				C345.91,13.77,342.78,16.41,342.97,16.58z"/>
			<path class="st2" d="M354.02,13.8c0.01,0.14,3.28,1.14,5.23-0.78c1.46-1.43,1.6-3.91,0.67-5.45c-1.87-3.08-8.08-2.49-9.25-0.32
				c-0.29,0.55-0.41,1.45,0.03,1.92c1.21,1.27,5.09-2.19,7.27-0.76c1.18,0.77,1.59,2.79,0.94,3.93
				C357.84,14.21,354.01,13.65,354.02,13.8z"/>
			<path class="st2" d="M377.97,11.04c-0.03,0.11,2.21,1.66,4.16,0.68c1.46-0.73,2.16-2.58,1.83-3.97
				c-0.67-2.79-5.52-3.85-6.94-2.49c-0.36,0.34-0.66,1-0.44,1.46c0.61,1.26,4.39-0.43,5.7,1.19c0.7,0.87,0.53,2.5-0.25,3.21
				C380.78,12.28,378.01,10.93,377.97,11.04z"/>
			<path class="st2" d="M388.41,13.84c-0.03,0.11,2.31,1.74,4.35,0.71c1.53-0.77,2.26-2.7,1.92-4.16c-0.7-2.92-5.78-4.03-7.27-2.61
				c-0.37,0.36-0.69,1.04-0.46,1.53c0.64,1.32,4.6-0.45,5.97,1.25c0.74,0.91,0.56,2.62-0.26,3.36
				C391.34,15.14,388.44,13.72,388.41,13.84z"/>
			<path class="st2" d="M398.76,18.54c-0.11,0.27,3.56,2.96,5.03,1.79c1-0.8,0.55-3.04-0.17-4.39c-1.48-2.79-5.3-4.11-6.3-3.18
				c-0.34,0.32-0.41,0.95-0.23,1.39c0.39,0.98,1.79,0.72,3.35,1.65c1.6,0.95,2.72,2.78,2.36,3.35
				C402.29,19.93,398.87,18.29,398.76,18.54z"/>
			<path class="st2" d="M315.48,35.65c0.25,0.14,3.35-3.2,2.35-4.79c-0.68-1.08-2.95-0.89-4.39-0.33c-2.94,1.15-4.68,4.79-3.88,5.9
				c0.28,0.38,0.9,0.51,1.36,0.39c1.01-0.28,0.92-1.7,2.02-3.14c1.13-1.48,3.07-2.39,3.59-1.96
				C317.26,32.31,315.24,35.52,315.48,35.65z"/>
			<path class="st2" d="M404.38,22.64c-0.51,0.33,1.1,6.29,3.98,6.18c1.56-0.06,3.16-1.9,3.22-3.86c0.08-2.53-2.43-4.24-4.22-4.33
				c-0.46-0.02-1.25,0.04-1.37,0.39c-0.18,0.53,1.35,1.09,2.25,2.81c0.5,0.97,0.79,2.27,0.44,2.5
				C407.93,26.78,404.86,22.32,404.38,22.64z"/>
			<path class="st2" d="M310.81,44.15c0.29,0.01,1.49-4.38-0.13-5.34c-1.1-0.65-3.03,0.57-4.05,1.73c-2.08,2.37-1.95,6.41-0.72,7.02
				c0.42,0.21,1.03,0.04,1.38-0.28c0.77-0.71,0.04-1.93,0.35-3.71c0.32-1.84,1.62-3.54,2.28-3.39
				C310.85,40.37,310.54,44.14,310.81,44.15z"/>
			<path class="st2" d="M309.65,56.39c0.61,0.03,2.84-5.72,0.46-7.34c-1.3-0.88-3.67-0.34-4.89,1.2c-1.57,1.99-0.55,4.85,0.83,5.99
				c0.36,0.29,1.03,0.71,1.34,0.5c0.46-0.32-0.44-1.68-0.14-3.59c0.17-1.08,0.71-2.3,1.13-2.27
				C309.24,50.94,309.07,56.36,309.65,56.39z"/>
			<path class="st2" d="M409.12,31.38c-0.51,0.33,1.1,6.29,3.98,6.18c1.56-0.06,3.16-1.9,3.22-3.86c0.08-2.53-2.43-4.24-4.22-4.33
				c-0.46-0.02-1.25,0.04-1.37,0.39c-0.18,0.53,1.35,1.09,2.25,2.81c0.5,0.97,0.79,2.27,0.44,2.5
				C412.68,35.52,409.61,31.06,409.12,31.38z"/>
			<path class="st2" d="M413.25,41.35c-0.34,0.02-1.21,3.39,0.23,4.14c0.78,0.4,2.08-0.05,2.65-1c0.74-1.22-0.01-2.75-0.87-3.3
				c-0.22-0.14-0.62-0.33-0.78-0.19c-0.24,0.21,0.36,0.91,0.32,2c-0.02,0.61-0.24,1.33-0.48,1.35
				C413.84,44.37,413.57,41.33,413.25,41.35z"/>
			<path class="st2" d="M412.62,49.43c-0.34,0.02-1.21,3.39,0.23,4.14c0.78,0.4,2.08-0.05,2.65-1c0.74-1.22-0.01-2.75-0.87-3.3
				c-0.22-0.14-0.62-0.33-0.78-0.19c-0.24,0.21,0.36,0.91,0.32,2c-0.02,0.61-0.24,1.33-0.48,1.35
				C413.21,52.45,412.95,49.41,412.62,49.43z"/>
			<path class="st2" d="M323.41,43.38c0.28,0.2,3.05-1.91,2.38-3.39c-0.36-0.8-1.66-1.25-2.7-0.86c-1.34,0.5-1.7,2.17-1.37,3.12
				c0.09,0.25,0.29,0.65,0.5,0.63c0.32-0.02,0.28-0.94,0.99-1.77c0.4-0.47,1.02-0.9,1.21-0.76
				C324.82,40.64,323.14,43.19,323.41,43.38z"/>
			<path class="st2" d="M389.92,24.15c0.4,0.03,1.95-3.7,0.42-4.79c-0.83-0.6-2.4-0.28-3.22,0.71c-1.06,1.28-0.44,3.17,0.45,3.94
				c0.23,0.2,0.66,0.48,0.87,0.35c0.31-0.2-0.26-1.11-0.04-2.36c0.13-0.7,0.5-1.49,0.78-1.47
				C389.74,20.57,389.54,24.11,389.92,24.15z"/>
			<path class="st2" d="M311.5,64.67c0.57-0.22,0.19-6.38-2.65-6.86c-1.54-0.26-3.48,1.23-3.94,3.13c-0.59,2.47,1.53,4.64,3.26,5.1
				c0.45,0.12,1.23,0.22,1.42-0.11c0.29-0.48-1.1-1.34-1.63-3.2c-0.3-1.05-0.32-2.39,0.08-2.53
				C308.86,59.89,310.96,64.88,311.5,64.67z"/>
			<path class="st2" d="M313.61,72.03c0.31-0.15-0.17-3.6-1.79-3.74c-0.88-0.08-1.9,0.84-2.07,1.93c-0.22,1.41,1.06,2.54,2.06,2.72
				c0.26,0.05,0.7,0.07,0.8-0.12c0.14-0.29-0.68-0.71-1.06-1.73c-0.21-0.58-0.28-1.33-0.07-1.43
				C311.91,69.46,313.31,72.17,313.61,72.03z"/>
			<path class="st2" d="M317.59,76.71c0.31-0.15-0.17-3.6-1.79-3.74c-0.88-0.08-1.9,0.84-2.07,1.93c-0.22,1.41,1.06,2.54,2.06,2.72
				c0.26,0.05,0.7,0.07,0.8-0.12c0.14-0.29-0.68-0.71-1.06-1.73c-0.21-0.58-0.28-1.33-0.07-1.43
				C315.89,74.15,317.29,76.86,317.59,76.71z"/>
			<path class="st2" d="M365.41,11.59c-0.05,0.34,2.72,1.9,5,0.79c2.25-1.1,3.15-4.38,2.12-6.31c-1.64-3.05-8.06-2.53-9.25-0.32
				c-0.29,0.55-0.41,1.45,0.03,1.92c1.24,1.31,5.37-2.22,7.27-0.76c0.97,0.74,1.15,2.6,0.44,3.61
				C369.72,12.42,365.47,11.17,365.41,11.59z"/>
			<ellipse class="st2" cx="338.75" cy="42.15" rx="3.75" ry="4.03"/>
			<ellipse class="st2" cx="374.62" cy="30.07" rx="3.75" ry="4.03"/>
			<path class="st2" d="M343.16,37.89c-2.48-2.53-6.32-2.18-8.63-1.19c-0.66,0.28-2.41,1.05-3.55,2.92
				c-2.47,4.05-0.22,10.23,2.19,10.77c0.38,0.08,0.51-0.03,1.83-0.32c3.01-0.69,3.67-0.45,4.88-0.8c2.18-0.64,4.75-2.83,5.15-5.86
				C345.43,40.28,343.29,38.02,343.16,37.89z M343.39,43.39c-0.67,3.4-4.73,4.4-5.37,4.55c-1.01,0.25-2.92,0.73-4.51-0.32
				c-2.27-1.5-2.7-5.36-1.13-7.68c0.9-1.31,2.21-1.8,2.88-2.05c0.49-0.18,4.37-1.57,6.77,0.88
				C343.2,39.98,343.71,41.78,343.39,43.39z"/>
			<path class="st2" d="M380.48,23.46c-3.69-2.61-8.43,0.05-8.84,0.29c-0.66,0.38-3.57,2.18-4.32,5.74
				c-0.15,0.68-0.59,2.95,0.65,5.26c0.32,0.6,1.09,1.83,2.58,2.71c1.73,1.05,3.4,1.01,4.35,0.99c0.71-0.02,2.45-0.08,4.19-1.07
				c2.67-1.51,4.54-4.71,4.33-8.07C383.38,28.69,383.17,25.36,380.48,23.46z M378.84,35.45c-1.25,0.71-2.6,0.87-4.22,1.07
				c-1.51,0.19-1.96,0.03-2.16-0.04c-1.21-0.5-1.7-1.82-2.34-3.61c-0.66-1.83-0.98-2.74-0.84-3.84c0.33-2.67,2.79-4.25,3.51-4.66
				c0.38-0.22,4.11-2.29,7.18-0.24c1.97,1.32,2.42,3.5,2.51,4C383.03,31.27,381.03,34.21,378.84,35.45z"/>
			<path class="st2" d="M347.18,43.18c-0.62-0.36,0.45-5.69,4.54-8.51c2.41-1.66,4.75-1.7,8.8-1.75c2.71-0.04,5.88-0.08,6.88,1.76
				c0.36,0.67,0.53,1.79,0,2.31c-1.35,1.33-5.24-3.09-9.79-2.77C351.4,34.66,348.03,43.68,347.18,43.18z"/>
			<path class="st2" d="M356.64,38.25c0.07-0.36-1.93-1.59-2.68-0.94c-0.76,0.66,0.21,2.83,0.66,2.81c0.29-0.01,0.23-0.97,1.03-1.5
				C356.16,38.29,356.6,38.41,356.64,38.25z"/>
			<path class="st2" d="M356.45,41.3c0.02,0.23-1.34,0.82-2.78,0.52c-1.02-0.21-2.51-0.97-2.61-2.15c-0.06-0.74,0.42-1.56,0.8-1.54
				c0.47,0.02,0.32,1.34,1.26,2.25C354.37,41.56,356.43,41.02,356.45,41.3z"/>
			<path class="st2" d="M357.26,37.57c-0.3-0.22,0.36-2.48,1.35-2.5c1-0.02,1.75,2.23,1.41,2.52c-0.22,0.19-0.83-0.56-1.77-0.41
				C357.64,37.27,357.4,37.67,357.26,37.57z"/>
			<path class="st2" d="M359.52,39.33c0.11,0.14,1.19-0.23,1.85-1.14c0.47-0.65,0.92-1.85,0.37-2.57c-0.35-0.45-1.05-0.67-1.25-0.47
				c-0.26,0.26,0.51,0.93,0.45,1.93C360.85,38.4,359.39,39.15,359.52,39.33z"/>
			<path class="st2" d="M342.13,51.54c0.41-0.15,0.79,0.64,1.87,0.87c0.61,0.13,1.18,0.03,1.9-0.22c3.76-1.31,6.24-3.46,6.24-3.46
				c2.91-2.53,4.84-5.38,6.09-7.68c1.34,0.79,2.68,1.57,4.03,2.36c2.39,0.44,4.26,0.34,5.49,0.19c4.05-0.51,5.01-2.14,7.99-1.7
				c0.74,0.11,1.81,0.38,2.62-0.22c0.76-0.56,0.68-1.43,1.42-1.86c0.71-0.4,1.64-0.11,2.29,0.19c0.28,0.53,0.56,1.27,0.27,1.85
				c-0.43,0.84-1.79,0.85-3.98,1.06c-1.62,0.16-3.2,0.54-4.82,0.67c-3.11,0.25-7.55,0.67-13.19,1.2c-4.03,2.99-7.52,5.19-10.05,6.68
				c-6.17,3.64-7.58,3.66-8.2,3.12C341.25,53.86,341.53,51.76,342.13,51.54z"/>
			<path class="st2" d="M353.76,50.41c-0.66,0.57,1.61,4.87,4.6,8.06c1.79,1.91,6.64,7.08,10.55,5.8c2.95-0.96,3.69-5.55,5.18-14.73
				c0.4-2.48,0.57-4.47-0.5-5.18c-0.91-0.61-2.62-0.22-3.12,0.69c-0.44,0.8,0.27,1.63,0.73,3.42c0.38,1.47,0.33,2.55,0.23,4.54
				c-0.13,2.63-0.39,8.05-3.28,9.27c-2.42,1.02-6.25-1.07-8.05-3.68c-1.64-2.37-1.21-4.6-3.68-6.8
				C355.58,51.04,354.15,50.07,353.76,50.41z"/>
			<path class="st2" d="M353.64,48.79c0.23,0.41,1.87,3.28,2.78,3c1.07-0.33,0.59-4.87,0.1-4.92c-0.32-0.03-0.46,1.97-1.57,2.27
				C354.48,49.26,353.99,49.03,353.64,48.79z"/>
			<path class="st2" d="M358.12,44.44c0.5,0.51,1.37,1.57,1.63,3.12c0.25,1.47-0.05,3.4-0.77,3.56c-0.72,0.16-1.65-1.49-1.99-2.22
				c-0.66-1.42-0.76-2.96-0.54-3.02c0.34-0.1,1.37,3.43,1.83,3.32C358.54,49.13,358.56,47.86,358.12,44.44z"/>
			<path class="st2" d="M362.91,43.69c1.3,4.45,1.13,5.7,0.66,5.95c-0.6,0.31-1.88-0.92-2.53-1.86c-1.19-1.72-1.02-3.61-0.94-4.23
				c1.61,3.31,2.2,4.19,2.36,4.12c0.22-0.09-0.51-1.85,0.32-3.72C362.83,43.84,362.88,43.75,362.91,43.69z"/>
			<path class="st2" d="M366.17,44.1c0.5-0.3,0.86-0.35,1.11-0.23c1.07,0.54,0.63,4.66-0.55,4.99c-1.4,0.39-3.79-4.48-3.94-4.8
				c0.81-0.18,1.21-0.02,1.44,0.16c0.38,0.32,0.27,0.75,0.75,1.54c0.15,0.25,0.55,0.9,0.82,0.84C366,46.58,366.21,46.11,366.17,44.1
				z"/>
			<polygon class="st2" points="357.9,44.67 365.97,58.35 359.29,43.2 			"/>
			<path class="st2" d="M345.31,52.76c3.78,0.34,7.55,0.69,11.33,1.03l-2.22-2.87c-0.24,0.08-0.6,0.19-1.05,0.28
				c-1.67,0.35-2.88,0.1-3.66,0.06C348.71,51.21,347.23,51.43,345.31,52.76z"/>
			<path class="st2" d="M372.03,46.48c1.58-0.72,2.47-1.59,3-2.26c0.38-0.48,0.72-1.07,1.5-1.62c0.61-0.43,1.62-0.93,1.84-0.7
				c0.26,0.27-0.46,1.69-4.65,6.64C373.15,47.86,372.59,47.17,372.03,46.48z"/>
			<path class="st2" d="M422.27,112.84c-0.06-2.55,0.45-2.61,0.61-5.37c0.25-4.1-0.66-7.55-1.83-11.95c-0.1-0.36-0.36-1.35-0.7-2.44
				c-0.94-3.04-2.87-8.3-6.95-15.38c0.87-3.19,1.74-8.13,0.52-13.73c-0.42-1.93-0.75-2.41-7.76-14.94
				c-9.93-17.75-9.8-17.74-10.21-18.11c-0.26-0.23-1.35-1.12-1.21-2.11c0.11-0.85,1.03-1.05,1.63-2.06c0.6-1.03,0.42-2.15,0.24-3.24
				c-0.36-2.25-1.77-5.59-5.05-7.43c-0.72-0.4-2.6-1.42-5-1.2c-0.45,0.04-1.56,0.15-2.81,0.76c-1.69,0.83-2.13,1.87-3.49,2
				c-0.86,0.08-1.5-0.25-1.91-0.44c-2.22-0.98-4.55-0.59-7.49-0.38c-6.6,0.46-8.2-0.54-13.01,0.12c-7.96,1.1-9.36,4.65-20.91,10.17
				c-1.37,0.66-6.32,2.96-7.57,5.49c-0.1,0.19-0.35,0.73-0.92,1.09c-1.29,0.81-2.63-0.34-4.19-0.25c-2.67,0.15-4.47,3.82-5.3,5.53
				c-0.39,0.8-2.77,5.66-0.94,7.56c1.02,1.06,2.4,0.21,3.59,1.1c2.12,1.59,0.81,6.57,0.03,9.88c0,0-1.68,7.13-3.04,19.09
				c-0.93,8.12-1.35,12.26,0.54,16.11c0.91,1.85,2.07,3.26,2.56,6.06c0.69,3.89-0.55,6.83-1.09,8.73
				c-2.05,7.14,1.43,14.41,3.84,19.43c0,0,1.16,2.42,3.75,5.74c0,0,4.9,6.4,12.3,11.11c7.87,5.02,38.71,4.4,76.11-11.46
				c2.07-2.62,3.4-5.03,4.23-6.76c1.35-2.86,2.11-4.45,2.18-6.75C423.1,116.46,422.35,115.89,422.27,112.84z M420.87,118.46
				c-2.05,7.76-5.6,11.82-8.19,14.03c-8.54,7.29-15.77,2.18-38.97,8.23c-5.32,1.39-10.85,1.84-16.23,3.01
				c-3.85,0.84-8.93,2.04-13.67-0.46c-1.06-0.56-1.84-1.17-2.34-1.6c-1.15-0.72-2.74-1.8-4.5-3.28c-2.32-1.96-9.84-8.28-12.23-17.51
				c-2.74-10.51,2.81-18.44-1.43-25.55c-0.41-0.69-1.28-1.98-1.84-4.01c-0.95-3.49-0.09-5.83,0.24-9.85
				c0.31-3.8-0.17-5.26-0.28-8.49c-0.46-13.91,7.33-23.09,3.56-26.63c-1.77-1.65-4.33-0.47-5.47-2.54c-1.1-1.99-0.03-5.45,2.09-6.59
				c1.07-0.58,2.27-0.5,3.85-0.39c2.22,0.15,2.55,0.72,3.65,0.51c1.35-0.24,1.79-1.25,3.85-3.87c2.19-2.81,3.43-4.38,5.37-5.7
				c0.94-0.64,2.19-1.14,4.65-2.1c1.78-0.69,3.22-1.25,4.88-1.82c0,0,1.28-0.44,2.56-0.83c12.66-3.87,19.38-5.93,25.39-3.39
				c2.36,1,3.76,2.35,5.69,1.76c2.25-0.7,2.53-3.22,5.59-4.28c0.54-0.18,1.98-0.66,3.56-0.24c3.74,1.02,5.86,6.46,4.5,8.42
				c-0.64,0.92-1.82,0.71-3.1,2.29c-0.31,0.38-0.91,1.13-1.02,2.03c-0.26,2.02,1.98,3.85,2.53,4.32c3.41,2.91,6.52,8.83,11.89,18.44
				c2.68,4.81,8.29,14.85,5.99,20.88c-0.24,0.64-1.04,2.46-0.87,4.88c0.21,2.89,1.69,4.95,2.21,5.71
				c5.24,7.62,7.27,20.76,7.66,23.22C420.81,109.65,421.2,113.55,420.87,118.46z"/>
			<path class="st2" d="M344,102.85c1.68-2.12-1.25,1.12-5.31,0.62c-4.06-0.5-5.68-5.12-6.68-4.68c-1,0.44-1.06,4.81,6.43,5.62
				C338.94,104.47,342.56,104.66,344,102.85z"/>
			<path class="st2" d="M320.87,69.49c0.2-0.07,0.66,0.65,1.59,2.08c1.72,2.66,1.79,3.24,2.76,4c0.24,0.19,0.98,0.54,2.45,1.23
				c0.79,0.37,1.37,0.62,3.5,1.6c0.04,0.02,0.29,0.13,0.37,0.17c0.88,0.41,4.04,1.7,6.3,3.75c1.76,1.59,1.66,2.2,4.03,4.33
				c1.73,1.55,2.59,2.33,3.7,2.72c2.2,0.77,3.42-0.07,5.85,1.08c1.16,0.55,1.1,0.84,1.85,0.96c2.12,0.35,3.14-1.76,4.81-1.47
				c0.56,0.1,1.17,1.12,2.39,3.06c1.15,1.83,1.19,2.4,1.09,2.84c-0.14,0.61-0.55,0.91-0.45,1.54c0.09,0.62,0.55,0.65,0.69,1.19
				c0.23,0.93-0.99,1.35-1.23,2.75c-0.17,1,0.38,1.2,0.29,2.32c-0.07,0.94-0.55,1.99-1.2,2.51c-1.51,1.2-3.69-0.7-8.69-1.7
				c-3.57-0.71-6.46-0.54-6.49-1.07c-0.01-0.19,0.49-0.43,1.48-0.91c0.89-0.42,1.54-0.74,2.12-0.87c1.6-0.36,1.98,0.8,4.37,1.21
				c2.32,0.4,3.03-0.52,4.78,0.31c0.76,0.36,1.26,0.84,1.59,0.62c0.56-0.37-0.31-2.18,0.53-2.9c0.25-0.22,0.38-0.09,0.71-0.35
				c0.62-0.49,0.98-1.59,0.59-2.17c-0.38-0.59-1.24-0.28-1.64-0.96c-0.19-0.32-0.23-0.78-0.04-0.95c0.25-0.22,0.74,0.27,1.08,0.07
				c0.38-0.23,0.46-1.29-0.02-1.72c-0.65-0.58-1.88,0.37-2.65-0.3c-0.2-0.17-0.43-0.5-0.34-0.76c0.2-0.64,2.03-0.26,2.23-0.89
				c0.11-0.35-0.27-0.99-0.76-1.16c0,0-0.02-0.01-0.03-0.01c-0.53-0.15-0.93,0.29-2.43,0.7c0,0-0.27,0.06-0.72,0.17
				c-0.75,0.19-3.65-0.28-4.78-0.56c-1.12-0.28-2.62-0.47-4.59-0.37c-0.88,0.04-0.81,0.19-1.17,0.14c-1.72-0.23-1.98-2.3-4.14-3
				c-0.72-0.23-0.84-0.05-1.23-0.33c-1.16-0.83-0.11-2.53-1.04-4.15c-0.7-1.23-1.59-0.75-4.6-2.84c-1.45-1-1.37-1.12-2.25-1.62
				c-1.72-0.97-2.3-0.19-4.21-1c-1.08-0.45-1.88-1.21-3.5-2.72c-1.1-1.03-1.66-1.55-2.1-2.29C320.6,71.89,320.49,69.62,320.87,69.49
				z"/>
			<path class="st2" d="M392.19,31.32c1.18,1.95,2.69,4.76,3.99,8.31c1.66,4.51,3.31,8.99,2.81,14.65
				c-0.51,5.81-3.18,11.51-5.09,14.42c-0.46,0.69-1.37,1.99-2.21,4.01c-1.06,2.56-0.79,3.38-1.69,5.74
				c-0.8,2.12-1.58,4.17-3.44,5.56c-2.45,1.83-4.16,0.55-6.77,2.59c-1.77,1.39-2.95,3.28-2.53,3.9c0.25,0.38,1,0.13,1.31,0.66
				c0.32,0.53-0.26,1.1,0,1.69c0.25,0.55,0.95,0.45,1.78,0.81c1.76,0.77,1.21,2.38,3.15,3.56c0.51,0.31,0.43,0.13,2.53,1.06
				c0.72,0.32,0.87,0.31,1.03,0.31c1.11,0.04,1.57-0.96,2.65-1.44c0.61-0.27,1.55-0.44,2.96,0.03c4.33-2.43,14.69-8.46,15.55-11.66
				c0.13-0.49,0.52-1.94,0.02-2.26c-0.32-0.2-0.87,0.14-1.2,0.35c-3.58,2.39-10.48,11-14.59,11.35c-0.59,0.05-1.72-0.02-2.9,0.69
				c-1.01,0.6-1.28,1.31-1.94,1.23c-0.81-0.09-1.03-1.26-1.99-1.26c-0.39,0-0.42,0.17-0.84,0.19c-0.81,0.04-1.69-0.54-2.12-1.28
				c-0.65-1.12,0.03-2.14-0.56-2.56c-0.56-0.4-1.44,0.34-1.84-0.06c-0.4-0.4,0.34-1.28-0.09-2c-0.4-0.66-1.39-0.51-1.48-0.94
				c-0.1-0.48,1.02-1.1,1.23-1.22c2.09-1.14,4.97-2.17,7.33-2.93c2.73-1.97,4.02-4,4.68-5.43c1.56-3.36,0.71-5.61,2.93-8.43
				c1-1.27,1.35-1.03,3.37-2.93c0,0,2.99-2.81,4.81-5.87c3.47-5.85,0.27-14.81-0.25-16.23C399.26,41.05,395.73,36.19,392.19,31.32z"
				/>
			<path class="st2" d="M381.64,123.51c-0.68,0.44-2.07-1.8-3.65-1.5c-1.14,0.22-1.35,1.56-2.42,1.49c-0.6-0.04-1.2-0.51-1.2-0.89
				c0.01-0.39,0.64-0.65,0.58-0.77c-0.07-0.13-0.84,0.34-1.2,0.08c-0.39-0.29-0.33-1.44,0.23-1.83c0.35-0.24,0.93-0.18,2.08-0.07
				c0.35,0.04,0.73,0.09,0.8-0.06c0.09-0.18-0.35-0.47-0.28-0.64c0.09-0.22,0.87,0.02,1.79,0.11c1.66,0.16,2.1-0.31,3.2,0.11
				c0.57,0.22,1.2,0.63,1.14,0.84c-0.14,0.48-3.62-0.14-3.68,0.18c-0.05,0.29,2.44,0.59,2.8,1.96
				C381.9,122.83,381.9,123.34,381.64,123.51z"/>
		</g>
	</g>
	<g>
		<text transform="matrix(1 0 0 1 27.4421 115.2226)" class="st2 st3 st4 st5">Shinrin-Yoku</text>
	</g>
</g>
</svg>
