<?xml version="1.0" encoding="utf-8"?>
<!-- Generator: Adobe Illustrator 27.8.0, SVG Export Plug-In . SVG Version: 6.00 Build 0)  -->
<svg version="1.1" id="Capa_1" xmlns="http://www.w3.org/2000/svg" xmlns:xlink="http://www.w3.org/1999/xlink" x="0px" y="0px"
	 viewBox="0 0 457.95 173.68" style="enable-background:new 0 0 457.95 173.68;" xml:space="preserve">
<style type="text/css">
	.st0{fill:#E20E18;}
	.st1{fill:#FFFFFF;}
	.st2{fill:#1E1E1C;}
	.st3{font-family:'Geograph-BoldItalic';}
	.st4{font-size:44.4882px;}
	.st5{letter-spacing:1;}
</style>
<g>
	<rect y="51.93" class="st0" width="420.6" height="105.8"/>
	<rect x="19.83" y="31.98" class="st1" width="420.6" height="105.8"/>
	<g>
		<path class="st1" d="M382.63,64.53c0-1.07-0.06-4.33-2.03-7.13c-0.99-1.4-1.89-1.9-4.76-3.77c-1.79-1.17-4.44-2.93-7.69-5.24
			c0.69,0.89,1.64,2.2,2.67,3.88c1.21,1.97,2.13,3.47,1.83,3.76c-0.27,0.26-1.64-0.38-6.79-4.78c1,1.66,2.56,4.2,4.62,7.21
			c3.81,5.58,5.34,7.02,5.02,9.31c-0.23,1.68-1.8,3.19-4.94,6.19c-3.05,2.92-4.19,2.92-5.65,5.11c0,0-2.11,2.64-3.13,6.68
			c-2.48,9.84,7.29,18.14,4.73,22.44c-2.24,3.77-10.6-1.13-22.18,0c-18.67,1.82-22.79,17.08-41.84,20.55
			c-5.47,1-13.66,1.29-24.44-2.71c0.62,1.05,1.68,2.58,3.41,3.94c3.89,3.06,7.89,2.67,8.38,4.58c0.19,0.73-0.1,1.96-2.67,4.03
			l14.16,5.89l-6.14,3.36l19.69,2.41l-7.11,3.48l4,1.62l13.96-0.91l-9.34,6.71l7.48,1.54l11.54-4.72l4.23-1.82l-7.28,9.98
			l13.35-4.19l7.17-4.79l-5.55,8.99l7.23-2.38l4.12-3.62l3.09-3.62l-5.38,12.67l9.25-8.2l3.43-6.53h4.27l-7.26,14.73l11.86-10.72
			l8.01-9.3l-2.1,11.34l4.96-4.48l2.48-7.49l4.39-2.57l-2.24,13.39l8.24-9.41l2.65-12.83l22.58-4.44l0.35-2.39l-9.64-15.92
			l16.25-3.14c7.39-3.58,8.76-4.91,8.57-5.44c-0.25-0.74-3.47,0.09-8.57,0.26c-7.32,0.24-14.45-1-14.46-1.8
			c0-0.48,2.56-1.18,14.46-2.08c7.48-3.55,11.09-5.71,10.81-6.48c-0.24-0.68-3.49-0.28-9.73,1.19l8.4-7.47
			c2.9-1.05,4.3-1.87,4.21-2.44c-0.13-0.78-3.04-1.12-8.76-1.01c8.49-7.56,12.32-11.96,11.48-13.2c-0.74-1.09-5.06,0.26-12.98,4.05
			l8.53-7.94c2.42-4.62,4.83-9.24,7.25-13.86c-3.89,2.46-7.78,4.91-11.67,7.37c2.71-6.18,5.43-12.36,8.14-18.54
			c-3.29,2.18-6.58,4.35-9.87,6.53l7.67-16.54v-2.76l-6.51,5.02l0.79-14.74l-4.34,1.44c-1.01-5.61-2.02-11.22-3.03-16.82
			c-1.38,3.66-2.77,7.33-4.15,10.99c0.09,2.75-0.14,8.1-3.21,13.66c-1.47,2.67-3.19,4.66-4.63,6.07
			c-4.43,5.68-8.86,11.36-13.29,17.04c-1.76,0.85-3.68,1.91-5.68,3.27c-3.71,2.52-6.52,5.24-8.55,7.57
			c-0.96,4.15-1.92,8.3-2.89,12.45l-3.24,9.66l-5.19,7.43c-1.05,0.96-2.05,1.39-2.82,1.59c-3.78,1-8.48-1.72-11.78-6.77
			c-0.14-0.96-0.25-2.56,0.28-4.35c1.17-3.94,4.4-5.28,8.33-9.59c1.2-1.31,2.93-3.42,4.64-6.43
			C382.33,67.61,382.63,66.22,382.63,64.53z"/>
		<path class="st2" d="M377.42,55.06c-6.19-6.85-12.38-13.71-18.57-20.56c1.94,2.95,3.45,5.37,4.41,6.96
			c5.28,8.65,6.97,12.7,10.91,13.6C375.56,55.37,376.77,55.19,377.42,55.06z"/>
		<path class="st2" d="M370.87,59.76c-1.33-2.02-2.83-4.11-4.51-6.23c-4.34-5.48-8.85-9.85-12.97-13.28
			c2.54,1.92,19.27,14.58,19.7,16.91c0.16,0.86-0.16,1.45-0.16,1.45C372.48,59.44,371.41,59.68,370.87,59.76z"/>
		<path class="st2" d="M378.6,55.34c0.87,0.71,3.48,3.03,4.39,7.05c0.71,3.15,0,5.74-0.38,6.86c-1.5,4.06-3.56,6.27-5.18,7.53
			c-2.1,1.64-4.19,2.27-6.07,4.96c-0.39,0.56-1.49,2.13-1.72,3.72c-0.53,3.73,3.68,8.27,10.3,11.15c-2.1-0.48-7.49-2.01-10.58-6.86
			c-0.92-1.45-1.78-2.77-1.62-4.48c0.28-3,3.33-3.62,8.35-8.85c3.88-4.04,4.81-6.55,5.09-7.35c1.05-3.04,0.82-5.55,0.76-6.1
			C381.52,58.99,379.45,56.33,378.6,55.34z"/>
		<path class="st2" d="M374.46,59.75c1.48-1.06,2.12-1.08,2.42-0.87c0.52,0.35,0.08,1.32,0.78,2.32c0.6,0.86,1.56,1.03,1.52,1.12
			c-0.04,0.1-1.31,0-1.98-0.86c-0.61-0.77-0.26-1.55-0.8-1.94C376.14,59.33,375.61,59.21,374.46,59.75z"/>
		<path class="st2" d="M372.08,60.56c1.26,1.75,2.92,4.63,2.38,7.78c-1,5.88-8.6,6.45-12.04,12.33c-5.47,9.35,4.32,24.04,4.54,23.96
			c0.22-0.08-9-14.25-3.46-23.64c3.88-6.58,12.67-6.84,13.33-12.2C377.23,65.47,374.25,62.4,372.08,60.56z"/>
		<path class="st2" d="M381.23,97.57c6.4,0.05,16.95,1.15,26.95,7.75c14.64,9.68,19.6,25.56,19.19,25.8
			c-0.4,0.24-6.02-14.58-20.97-24.53C397.49,100.67,388.25,98.46,381.23,97.57z"/>
		<path class="st2" d="M385.17,100.62c-1.6-0.26-4.08-0.49-6.99,0c-7.09,1.18-8.45,5.23-14.18,7.41
			c-8.18,3.11-11.04-2.97-21.76-0.45c-4.43,1.04-7.61,2.94-12.56,5.9c-6.92,4.14-8.59,6.75-14.2,9.16
			c-4.74,2.04-9.1,2.55-12.01,2.67c3.11,0.17,7.48,0.01,12.2-1.72c5.97-2.17,7.66-5.05,15.35-9.25c4.25-2.32,7.6-4.14,12.2-5.15
			c10.88-2.38,13.68,3.09,21.35-0.06c5.17-2.13,5.99-5.47,12.87-7.47C380.57,100.77,383.31,100.61,385.17,100.62z"/>
		<path class="st2" d="M380.6,95.67c4.39-3.16,6.7-6.48,8.01-9.02c4.05-7.9,0.79-12.92,5.34-20.85c2.19-3.81,5.07-6.24,7.75-8.52
			c5.39-4.58,8.1-4.67,12.01-8.14c2.57-2.28,5.85-6.18,8.01-13.09c-1.52,7-4.44,11-6.8,13.35c-4,3.99-7.25,4.1-12.71,9.37
			c-1.58,1.52-4.39,4.23-6.61,8.33c-4.66,8.59-1.52,13.69-5.72,20.56C388.53,89.86,385.94,93.03,380.6,95.67z"/>
		<path class="st2" d="M305.48,126.08c2.32,0.49,6.46,1.05,11.44,0c4.94-1.04,8.47-3.2,10.39-4.58c-0.99,1.17-4.27,4.75-9.91,6.01
			C311.48,128.82,306.82,126.74,305.48,126.08z"/>
		<path class="st2" d="M357.28,145.44c1.87-1.45,4.98-4.24,7.4-8.72c2.4-4.44,3.04-8.53,3.24-10.88c0.25,1.52,0.86,6.33-1.84,11.44
			C363.26,142.63,358.65,144.84,357.28,145.44z"/>
		<path class="st2" d="M364.91,144.89c1.87-1.45,4.98-4.24,7.4-8.72c2.4-4.44,3.04-8.53,3.24-10.88c0.25,1.52,0.86,6.33-1.84,11.44
			C370.89,142.09,366.28,144.3,364.91,144.89z"/>
		<path class="st2" d="M372.61,142.23c1.58-1.11,4.18-3.29,5.98-7.04c1.79-3.71,1.99-7.28,1.94-9.36c0.38,1.37,1.39,5.7-0.6,9.99
			C377.84,140.31,373.81,141.83,372.61,142.23z"/>
		<path class="st2" d="M382.63,140.53c1.07-1.61,2.69-4.59,2.99-8.74c0.31-4.11-0.81-7.51-1.61-9.42c0.85,1.14,3.38,4.8,3.09,9.52
			C386.79,136.83,383.6,139.71,382.63,140.53z"/>
		<path class="st2" d="M389.5,139.49c0.79-1.77,1.9-4.97,1.52-9.11c-0.37-4.1-2.03-7.27-3.13-9.03c1.03,0.98,4.12,4.18,4.61,8.88
			C393.01,135.15,390.33,138.52,389.5,139.49z"/>
		<path class="st2" d="M396.21,136.49c0.73-1.39,1.72-3.92,1.21-7.25c-0.51-3.3-2.26-5.89-3.41-7.34c1.05,0.82,4.24,3.48,4.88,7.27
			C399.55,133.13,397.01,135.74,396.21,136.49z"/>
		<path class="st2" d="M402.24,134.03c0.73-1.39,1.72-3.92,1.21-7.25c-0.51-3.3-2.26-5.89-3.41-7.34c1.05,0.82,4.24,3.48,4.88,7.27
			C405.58,130.68,403.03,133.29,402.24,134.03z"/>
		<path class="st2" d="M407.77,132.66c0.73-1.39,1.72-3.92,1.21-7.25c-0.51-3.3-2.26-5.89-3.41-7.34c1.05,0.82,4.24,3.48,4.88,7.27
			C411.11,129.31,408.56,131.92,407.77,132.66z"/>
		<path class="st2" d="M311.29,129.29c2.32,0.49,6.46,1.05,11.44,0c4.94-1.04,8.47-3.2,10.39-4.58c-0.99,1.17-4.27,4.75-9.91,6.01
			C317.3,132.04,312.64,129.95,311.29,129.29z"/>
		<path class="st2" d="M317.66,133.72c2.36,0.14,6.54,0.09,11.31-1.69c4.73-1.76,7.9-4.42,9.6-6.06c-0.81,1.31-3.52,5.33-8.92,7.4
			C324,135.55,319.08,134.18,317.66,133.72z"/>
		<path class="st2" d="M330.94,141.02c2.34-0.35,6.42-1.27,10.72-4.01c4.26-2.71,6.81-5.96,8.13-7.92c-0.52,1.45-2.33,5.94-7.18,9.1
			C337.52,141.48,332.43,141.16,330.94,141.02z"/>
		<path class="st2" d="M340.36,143.89c2.26-0.72,6.13-2.29,9.93-5.67c3.77-3.35,5.77-6.98,6.75-9.13
			c-0.28,1.51-1.35,6.24-5.63,10.13C346.94,143.29,341.85,143.79,340.36,143.89z"/>
		<path class="st2" d="M346.21,145.95c2.26-0.72,6.13-2.29,9.93-5.67c3.77-3.35,5.77-6.98,6.75-9.13
			c-0.28,1.51-1.35,6.24-5.63,10.13C352.78,145.35,347.7,145.86,346.21,145.95z"/>
		<path class="st2" d="M323.88,135.9c1.94,0.3,5.6,0.59,9.85-0.77c5.2-1.66,8.37-4.87,9.69-6.38c-0.48,0.95-3.01,5.67-8.79,7.59
			C329.4,138.08,324.98,136.36,323.88,135.9z"/>
		<path class="st2" d="M422.45,37.13c0.29,1.17,1.63,6.99-1.81,12.77c-2.78,4.68-7.02,6.52-8.39,7.05c1.65-0.98,5.21-3.4,7.72-8.01
			C422.76,43.84,422.61,39.02,422.45,37.13z"/>
		<path class="st2" d="M424.46,44.4c0.16,1.2,0.85,7.13-3.2,12.5c-3.28,4.34-7.69,5.71-9.11,6.09c1.74-0.79,5.56-2.81,8.55-7.11
			C424.03,51.1,424.41,46.29,424.46,44.4z"/>
		<path class="st2" d="M426.02,52.61c-0.04,1.21-0.36,7.17-5.27,11.78c-3.96,3.73-8.54,4.33-10.01,4.46
			c1.85-0.49,5.95-1.83,9.63-5.56C424.46,59.14,425.65,54.47,426.02,52.61z"/>
		<path class="st2" d="M428.17,59.42c-0.17,1.19-1.12,7.09-6.49,11.15c-4.34,3.29-8.95,3.4-10.43,3.38
			c1.89-0.29,6.11-1.19,10.17-4.51C425.93,65.75,427.6,61.23,428.17,59.42z"/>
		<path class="st2" d="M429.06,66.69c-0.17,1.19-1.12,7.09-6.49,11.15c-4.34,3.29-8.95,3.4-10.43,3.38
			c1.89-0.29,6.11-1.19,10.17-4.51C426.82,73.02,428.5,68.5,429.06,66.69z"/>
		<path class="st2" d="M429.06,75.5c-0.39,1.14-2.43,6.75-8.46,9.74c-4.88,2.41-9.43,1.66-10.88,1.36
			c1.91,0.07,6.23-0.02,10.83-2.52C425.67,81.3,428.17,77.17,429.06,75.5z"/>
		<path class="st2" d="M423.85,93.29c-0.43,0.9-2.67,5.28-8.4,6.4c-4.63,0.9-8.76-0.87-10.06-1.49c1.75,0.53,5.71,1.51,10.1,0.46
			C420.36,97.51,422.92,94.53,423.85,93.29z"/>
		<path class="st2" d="M423.33,97.57c-0.43,0.9-2.67,5.28-8.4,6.4c-4.63,0.9-8.76-0.87-10.06-1.49c1.75,0.53,5.71,1.51,10.1,0.46
			C419.84,101.79,422.4,98.81,423.33,97.57z"/>
		<path class="st2" d="M422.95,39.87c-0.42-0.15,3.61-9.2,6.11-21.8c0.36-1.83,1.07-6.03,3.02-11.25c1.15-3.07,2.87-6.9,3.1-6.82
			c0.09,0.03-0.15,0.67-0.29,1.48c-0.72,4.18,2.4,6.35,2.39,11.82c0,0.19-0.02,0.51-0.05,1.14c-0.36,7.04-0.54,10.55-1.33,13.25
			c-2.03,6.92-8.86,14.66-9.49,15.93c-0.07,0.14-0.38,0.77-0.38,0.77c0,0,0,0,0,0c8.28-13.51,8.71-22.59,8.22-27.41
			c-0.07-0.68-0.57-5.67-1.42-5.7c-0.81-0.02-1.31,4.49-2.38,9.25C427.96,31.61,423.36,40.01,422.95,39.87z"/>
		<path class="st2" d="M424.61,45.71c4.54-4.84,7.05-9.33,8.52-12.58c2.19-4.87,3.77-10.82,7.91-17.92
			c0.43-0.74,2.32-3.98,2.67-3.81c0.19,0.09-0.22,1.17-0.48,2.19c-0.84,3.39,0.19,5.68,0.6,8.61c0,0,0.34,2.48-0.7,8.64
			c-1.08,6.42-7.09,16.05-17.12,25.36c10.32-8.72,12.89-17.16,13.69-21.55c0.98-5.41,0.51-11.46-0.57-11.63
			c-1.02-0.16-1.94,5.01-5.43,11.25C430.74,39.56,427.23,43.3,424.61,45.71z"/>
		<path class="st2" d="M425.94,56.4c-0.34-0.29,6.67-7.3,13.51-18.16c0.99-1.58,3.15-5.25,6.84-9.42c2.17-2.45,5.15-5.42,5.33-5.25
			c0.07,0.07-0.38,0.58-0.8,1.28c-2.17,3.64-0.03,6.79-2.01,11.89c-0.07,0.18-0.2,0.47-0.46,1.05c-2.86,6.44-4.29,9.66-5.99,11.89
			c-4.38,5.73-13.53,10.51-14.57,11.47c-0.11,0.1-0.63,0.58-0.63,0.58c0,0,0,0,0,0c12.56-9.65,16.22-17.97,17.49-22.65
			c0.18-0.66,1.5-5.5,0.71-5.83c-0.75-0.31-2.83,3.72-5.54,7.79C433.57,50.48,426.27,56.68,425.94,56.4z"/>
		<path class="st2" d="M425.39,62.45c5.97-2.89,9.93-6.18,12.46-8.7c3.79-3.76,7.39-8.75,13.81-13.9c0.67-0.53,3.6-2.88,3.86-2.6
			c0.15,0.16-0.63,1.01-1.23,1.88c-2,2.86-1.85,5.37-2.52,8.26c0,0-0.57,2.43-3.75,7.82c-3.31,5.61-12.37,12.44-25.06,17.55
			c12.75-4.44,18.18-11.4,20.49-15.21c2.86-4.7,4.58-10.52,3.63-11.06c-0.89-0.52-3.6,3.98-9.1,8.56
			C433.32,58.9,428.7,61.14,425.39,62.45z"/>
		<path class="st2" d="M424.81,88.59c4.87,0.41,8.62-0.19,11.17-0.83c3.82-0.96,7.98-2.77,13.98-3.63c0.62-0.09,3.36-0.48,3.43-0.2
			c0.03,0.15-0.78,0.41-1.49,0.73c-2.35,1.06-3.19,2.71-4.7,4.29c0,0-1.27,1.33-5.31,3.55c-4.21,2.31-12.52,3.24-22.49,1.71
			c9.76,1.97,15.81-0.4,18.72-1.95c3.58-1.91,6.85-4.95,6.46-5.65c-0.37-0.66-3.78,1.17-8.99,2.01
			C431.17,89.32,427.4,89,424.81,88.59z"/>
		<path class="st2" d="M419.66,97.21c-0.02-0.33,7.29-0.14,16.57-1.98c1.35-0.27,4.41-0.97,8.51-1.12c2.41-0.08,5.51,0.01,5.52,0.19
			c0,0.07-0.5,0.09-1.09,0.22c-3.05,0.69-3.65,3.43-7.38,4.96c-0.13,0.05-0.35,0.13-0.79,0.29c-4.89,1.74-7.34,2.61-9.4,2.83
			c-5.29,0.57-12.49-1.9-13.53-1.97c-0.11-0.01-0.63-0.04-0.63-0.04c0,0,0,0,0,0c11.53,1.83,17.84-0.44,20.99-2.13
			c0.44-0.24,3.7-1.99,3.48-2.58c-0.21-0.56-3.43,0.37-6.98,0.99C426.7,98.29,419.67,97.53,419.66,97.21z"/>
		<path class="st2" d="M418.59,105.2c4.77,1.07,8.56,0.99,11.18,0.71c3.91-0.43,8.28-1.66,14.35-1.68c0.63,0,3.4-0.01,3.42,0.27
			c0.01,0.16-0.83,0.3-1.57,0.52c-2.47,0.73-3.53,2.25-5.25,3.6c0,0-1.44,1.14-5.75,2.79c-4.48,1.71-12.85,1.5-22.51-1.39
			c9.4,3.29,15.72,1.77,18.81,0.64c3.81-1.4,7.47-3.97,7.17-4.71c-0.28-0.71-3.91,0.64-9.18,0.76
			C424.79,106.79,421.1,105.96,418.59,105.2z"/>
		<path class="st2" d="M426.9,73.47c-0.29-0.36,7.85-4.88,16.48-12.98c1.25-1.18,4.01-3.96,8.38-6.78c2.57-1.66,6.03-3.56,6.19-3.36
			c0.06,0.08-0.47,0.43-1,0.96c-2.76,2.75-1.15,6.24-3.96,10.38c-0.1,0.14-0.27,0.38-0.63,0.84c-3.91,5.13-5.87,7.7-7.94,9.29
			c-5.31,4.07-15.23,5.94-16.43,6.54c-0.13,0.06-0.73,0.36-0.73,0.36c0,0,0,0,0,0c14.13-5.41,19.14-12.06,21.18-16.01
			c0.29-0.56,2.4-4.65,1.67-5.16c-0.7-0.49-3.44,2.64-6.81,5.64C435.5,70.14,427.18,73.83,426.9,73.47z"/>
		<path class="st2" d="M426.02,79.79c-0.03-0.09,4.98-0.86,11.26-3.77c2.32-1.07,7.62-3.53,11.96-6.39
			c0.27-0.18,1.98-1.31,4.48-2.19c1.64-0.58,3.89-1.15,4.05-0.77c0.09,0.22-0.6,0.59-1.45,1.32c-2.34,1.98-2.59,4.2-3.69,6.55
			c0,0,0,0,0,0c-2.03,0-4.02,4.48-4.76,5.85c-3.28,6.05-12.5,7.55-18.36,8.51c-4.59,0.75-7.96,0.45-7.96,0.36
			c-0.01-0.13,6.6,0.13,13.97-2.84c4.44-1.79,6.46-3.66,7.69-5.17c2.01-2.46,3.76-6.25,2.7-7.29c-0.9-0.88-3.18,0.8-8.63,2.83
			C431.03,79.12,426.04,79.89,426.02,79.79z"/>
		<path class="st2" d="M312.23,128.65c0-0.45-9.88,0.28-22.58-1.63c-1.85-0.28-6.03-1.04-11.61-0.97c-3.27,0.04-7.47,0.36-7.46,0.61
			c0,0.1,0.68,0.09,1.49,0.23c4.18,0.74,5.16,4.41,10.31,6.25c0.18,0.06,0.48,0.16,1.09,0.34c6.74,2.04,10.11,3.06,12.92,3.23
			c7.2,0.43,16.8-3.37,18.21-3.54c0.15-0.02,0.85-0.1,0.85-0.1c0,0,0,0,0,0c-15.51,3.21-24.2,0.54-28.57-1.55
			c-0.62-0.3-5.14-2.46-4.88-3.27c0.26-0.77,4.67,0.28,9.51,0.9C302.76,130.57,312.23,129.09,312.23,128.65z"/>
		<path class="st2" d="M317.17,132.19c-6.09,2.63-11.16,3.48-14.73,3.75c-5.32,0.41-11.46-0.12-19.54,1.37
			c-0.84,0.16-4.53,0.84-4.49,1.22c0.02,0.21,1.18,0.19,2.22,0.29c3.48,0.36,5.27,2.11,7.9,3.48c0,0,2.21,1.16,8.37,2.27
			c6.41,1.16,17.5-1.24,29.66-7.52c-11.7,6.75-20.51,6.31-24.91,5.58c-5.43-0.91-10.95-3.41-10.75-4.48
			c0.19-1.01,5.37-0.13,12.42-1.3C309.3,135.87,314.01,133.84,317.17,132.19z"/>
		<path class="st2" d="M326.77,137.06c-0.16-0.42-9.13,3.8-21.67,6.56c-1.82,0.4-6,1.19-11.18,3.25c-3.04,1.21-6.84,3.01-6.75,3.24
			c0.04,0.09,0.67-0.16,1.47-0.32c4.16-0.81,6.4,2.27,11.87,2.14c0.19,0,0.51-0.03,1.14-0.07c7.03-0.51,10.54-0.76,13.22-1.61
			c6.88-2.17,14.47-9.17,15.73-9.82c0.13-0.07,0.76-0.4,0.76-0.4c0,0,0,0,0,0c-13.33,8.55-22.4,9.17-27.23,8.79
			c-0.68-0.05-5.68-0.46-5.72-1.31c-0.04-0.81,4.46-1.41,9.2-2.57C318.62,142.24,326.93,137.47,326.77,137.06z"/>
		<path class="st2" d="M332.65,138.59c-4.74,4.64-9.18,7.24-12.41,8.78c-4.82,2.29-10.74,3.99-17.76,8.28
			c-0.73,0.45-3.93,2.41-3.76,2.75c0.1,0.19,1.17-0.25,2.18-0.52c3.37-0.91,5.68,0.08,8.62,0.42c0,0,2.48,0.29,8.63-0.88
			c6.4-1.22,15.9-7.42,25-17.64c-8.5,10.49-16.89,13.24-21.26,14.13c-5.39,1.1-11.45,0.74-11.64-0.33
			c-0.18-1.01,4.97-2.04,11.13-5.67C326.62,144.85,330.29,141.27,332.65,138.59z"/>
		<path class="st2" d="M357.44,146.9c-1.26,4.72-3.1,8.04-4.57,10.23c-2.2,3.27-5.31,6.57-8.15,11.93c-0.29,0.56-1.59,3-1.35,3.15
			c0.13,0.08,0.65-0.59,1.19-1.15c1.8-1.85,3.63-2.09,5.63-2.97c0,0,1.68-0.75,5.14-3.8c3.6-3.18,7.29-10.68,9.23-20.58
			c-1.45,9.85-5.73,14.74-8.17,16.95c-3.01,2.72-6.98,4.77-7.51,4.16c-0.5-0.57,2.38-3.16,4.93-7.78
			C355.97,153.14,356.95,149.48,357.44,146.9z"/>
		<path class="st2" d="M367.3,144.98c-0.3-0.13-2.6,6.81-7.48,14.92c-0.71,1.18-2.41,3.82-3.94,7.63c-0.9,2.24-1.86,5.19-1.69,5.25
			c0.07,0.03,0.25-0.44,0.58-0.95c1.68-2.64,4.46-2.27,7.16-5.26c0.09-0.1,0.24-0.29,0.54-0.65c3.29-4.02,4.94-6.02,5.85-7.89
			c2.33-4.78,2.44-12.39,2.73-13.4c0.03-0.11,0.17-0.61,0.18-0.61c0,0,0,0,0,0c-2.19,11.47-6.46,16.64-9.11,19.03
			c-0.38,0.34-3.13,2.81-3.6,2.4c-0.45-0.39,1.51-3.1,3.29-6.23C365.93,151.97,367.59,145.1,367.3,144.98z"/>
		<path class="st2" d="M375.18,146.68c-0.61,4.85-1.97,8.39-3.12,10.76c-1.73,3.54-4.36,7.23-6.44,12.93
			c-0.22,0.59-1.16,3.19-0.91,3.31c0.14,0.06,0.56-0.68,1.02-1.3c1.53-2.08,3.31-2.56,5.17-3.72c0,0,1.57-0.97,4.57-4.47
			c3.13-3.64,5.76-11.58,6.32-21.65c-0.09,9.96-3.66,15.39-5.77,17.91c-2.61,3.11-6.26,5.68-6.87,5.15
			c-0.57-0.5,1.93-3.46,3.82-8.38C374.57,153.06,375.04,149.3,375.18,146.68z"/>
		<path class="st2" d="M387.16,137.13c-0.33-0.03-0.41,7.28-2.61,16.48c-0.32,1.34-1.14,4.37-1.44,8.46
			c-0.18,2.41-0.2,5.51-0.02,5.52c0.07,0.01,0.11-0.5,0.26-1.08c0.8-3.02,3.56-3.52,5.23-7.19c0.06-0.13,0.14-0.35,0.32-0.78
			c1.92-4.83,2.88-7.24,3.18-9.29c0.77-5.26-1.43-12.55-1.46-13.59c0-0.11-0.02-0.63-0.02-0.63c0,0,0,0,0,0
			c1.39,11.59-1.11,17.81-2.92,20.89c-0.26,0.44-2.13,3.63-2.71,3.38c-0.55-0.24,0.5-3.41,1.25-6.93
			C387.98,144.21,387.48,137.16,387.16,137.13z"/>
		<path class="st2" d="M395.19,136.36c0.89,4.81,0.67,8.59,0.28,11.2c-0.58,3.89-1.97,8.21-2.22,14.27
			c-0.03,0.63-0.14,3.4,0.14,3.43c0.16,0.02,0.33-0.82,0.58-1.55c0.83-2.44,2.38-3.45,3.8-5.11c0,0,1.2-1.4,3.01-5.64
			c1.88-4.42,1.98-12.78-0.54-22.55c2.94,9.51,1.17,15.78-0.08,18.82c-1.54,3.75-4.24,7.31-4.98,6.99c-0.7-0.3,0.79-3.88,1.1-9.14
			C396.54,142.63,395.86,138.91,395.19,136.36z"/>
		<path class="st2" d="M342.51,143.75c-0.24-0.4-7.25,5.74-17.8,11.1c-1.53,0.78-5.08,2.43-9.22,5.59
			c-2.43,1.85-5.39,4.47-5.26,4.68c0.05,0.09,0.56-0.3,1.24-0.62c3.53-1.67,6.26,1.03,11.11-0.21c0.17-0.04,0.45-0.13,1-0.31
			c6.16-1.94,9.23-2.91,11.43-4.32c5.63-3.62,10.75-12.32,11.72-13.24c0.1-0.1,0.59-0.56,0.59-0.56c0,0,0,0,0,0
			c-9.87,11.46-17.83,13.93-22.24,14.51c-0.62,0.08-5.19,0.68-5.42-0.18c-0.23-0.82,3.65-2.34,7.61-4.49
			C336.46,150.71,342.75,144.14,342.51,143.75z"/>
		<path class="st2" d="M348.76,145.06c-0.08-0.06-2.5,4.39-7.36,9.32c-1.8,1.82-5.9,5.97-10.06,9.09c-0.26,0.19-1.91,1.42-3.58,3.47
			c-1.1,1.35-2.39,3.27-2.1,3.55c0.18,0.16,0.76-0.36,1.73-0.92c2.66-1.53,4.83-1.02,7.41-1.25c0,0,0,0,0,0
			c0.69-1.91,5.57-2.27,7.12-2.5c6.8-1.03,11.34-9.2,14.22-14.39c2.26-4.06,3.12-7.34,3.03-7.37c-0.12-0.05-2.11,6.25-7.4,12.18
			c-3.18,3.57-5.63,4.84-7.47,5.49c-3,1.06-7.15,1.42-7.78,0.07c-0.53-1.14,1.83-2.72,5.59-7.16
			C346.43,149.55,348.84,145.12,348.76,145.06z"/>
	</g>
	<g>
		<text transform="matrix(1 0 0 1 27.4776 132.9232)" class="st2 st3 st4 st5">Tradición</text>
	</g>
</g>
</svg>
